<mxfile>
    <diagram id="nP-OY_wl-n511qJIP8V6" name="Page-1">
        <mxGraphModel dx="1204" dy="636" grid="1" gridSize="10" guides="1" tooltips="1" connect="1" arrows="1" fold="1" page="1" pageScale="1" pageWidth="1169" pageHeight="827" math="1" shadow="0">
            <root>
                <mxCell id="0"/>
                <mxCell id="1" parent="0"/>
                <mxCell id="2" value="" style="edgeStyle=none;rounded=0;jumpStyle=none;html=1;shadow=0;labelBackgroundColor=none;startArrow=none;startFill=0;endArrow=classic;endFill=1;jettySize=auto;orthogonalLoop=1;strokeColor=#2F5B7C;strokeWidth=3;fontFamily=Helvetica;fontSize=16;fontColor=#23445D;spacing=5;" edge="1" parent="1" source="5" target="10">
                    <mxGeometry relative="1" as="geometry"/>
                </mxCell>
                <mxCell id="3" value="" style="edgeStyle=none;rounded=0;jumpStyle=none;html=1;shadow=0;labelBackgroundColor=none;startArrow=none;startFill=0;endArrow=classic;endFill=1;jettySize=auto;orthogonalLoop=1;strokeColor=#2F5B7C;strokeWidth=3;fontFamily=Helvetica;fontSize=16;fontColor=#23445D;spacing=5;" edge="1" parent="1" source="5" target="12">
                    <mxGeometry relative="1" as="geometry"/>
                </mxCell>
                <mxCell id="4" value="" style="edgeStyle=none;rounded=0;jumpStyle=none;html=1;shadow=0;labelBackgroundColor=none;startArrow=none;startFill=0;endArrow=classic;endFill=1;jettySize=auto;orthogonalLoop=1;strokeColor=#2F5B7C;strokeWidth=3;fontFamily=Helvetica;fontSize=16;fontColor=#23445D;spacing=5;" edge="1" parent="1" source="5" target="9">
                    <mxGeometry relative="1" as="geometry"/>
                </mxCell>
                <mxCell id="5" value="Electrostatics" style="rounded=1;whiteSpace=wrap;html=1;shadow=0;labelBackgroundColor=none;strokeColor=none;strokeWidth=3;fillColor=#2F5B7C;fontFamily=Helvetica;fontSize=16;fontColor=#FFFFFF;align=center;fontStyle=1;spacing=5;arcSize=7;perimeterSpacing=2;" vertex="1" parent="1">
                    <mxGeometry x="1082" y="810" width="150" height="70" as="geometry"/>
                </mxCell>
                <mxCell id="6" value="" style="edgeStyle=none;rounded=1;jumpStyle=none;html=1;shadow=0;labelBackgroundColor=none;startArrow=none;startFill=0;jettySize=auto;orthogonalLoop=1;strokeColor=#E85642;strokeWidth=3;fontFamily=Helvetica;fontSize=14;fontColor=#FFFFFF;spacing=5;fontStyle=1;fillColor=#b0e3e6;entryX=1;entryY=0.5;entryDx=0;entryDy=0;" edge="1" parent="1" source="9" target="25">
                    <mxGeometry relative="1" as="geometry">
                        <mxPoint x="763.6412213740459" y="746" as="targetPoint"/>
                    </mxGeometry>
                </mxCell>
                <mxCell id="7" value="" style="edgeStyle=none;rounded=1;jumpStyle=none;html=1;shadow=0;labelBackgroundColor=none;startArrow=none;startFill=0;jettySize=auto;orthogonalLoop=1;strokeColor=#E85642;strokeWidth=3;fontFamily=Helvetica;fontSize=14;fontColor=#FFFFFF;spacing=5;fontStyle=1;fillColor=#b0e3e6;entryX=0.75;entryY=0;entryDx=0;entryDy=0;exitX=0;exitY=1;exitDx=0;exitDy=0;" edge="1" parent="1" source="9" target="32">
                    <mxGeometry relative="1" as="geometry">
                        <mxPoint x="753" y="845" as="targetPoint"/>
                    </mxGeometry>
                </mxCell>
                <mxCell id="9" value="Electric Field" style="rounded=1;whiteSpace=wrap;html=1;shadow=0;labelBackgroundColor=none;strokeColor=none;strokeWidth=3;fillColor=#e85642;fontFamily=Helvetica;fontSize=14;fontColor=#FFFFFF;align=center;spacing=5;fontStyle=1;arcSize=7;perimeterSpacing=2;" vertex="1" parent="1">
                    <mxGeometry x="802" y="815" width="150" height="60" as="geometry"/>
                </mxCell>
                <mxCell id="10" value="Electric potential" style="rounded=1;whiteSpace=wrap;html=1;shadow=0;labelBackgroundColor=none;strokeColor=none;strokeWidth=3;fillColor=#F08705;fontFamily=Helvetica;fontSize=14;fontColor=#FFFFFF;align=center;spacing=5;fontStyle=1;arcSize=7;perimeterSpacing=2;" vertex="1" parent="1">
                    <mxGeometry x="1082" y="675" width="150" height="60" as="geometry"/>
                </mxCell>
                <mxCell id="11" value="" style="edgeStyle=none;rounded=0;jumpStyle=none;html=1;shadow=0;labelBackgroundColor=none;startArrow=none;startFill=0;endArrow=classic;endFill=1;jettySize=auto;orthogonalLoop=1;strokeColor=#F08705;strokeWidth=3;fontFamily=Helvetica;fontSize=14;fontColor=#FFFFFF;spacing=5;entryX=0;entryY=1;entryDx=0;entryDy=0;exitX=1;exitY=0;exitDx=0;exitDy=0;" edge="1" parent="1" source="10" target="38">
                    <mxGeometry relative="1" as="geometry">
                        <mxPoint x="1285.8888888888891" y="602" as="targetPoint"/>
                    </mxGeometry>
                </mxCell>
                <mxCell id="12" value="Charge" style="rounded=1;whiteSpace=wrap;html=1;shadow=0;labelBackgroundColor=none;strokeColor=none;strokeWidth=3;fillColor=#12aab5;fontFamily=Helvetica;fontSize=14;fontColor=#FFFFFF;align=center;spacing=5;fontStyle=1;arcSize=7;perimeterSpacing=2;" vertex="1" parent="1">
                    <mxGeometry x="1382" y="815" width="150" height="60" as="geometry"/>
                </mxCell>
                <mxCell id="14" value="" style="edgeStyle=none;rounded=1;jumpStyle=none;html=1;shadow=0;labelBackgroundColor=none;startArrow=none;startFill=0;jettySize=auto;orthogonalLoop=1;strokeColor=#12AAB5;strokeWidth=3;fontFamily=Helvetica;fontSize=14;fontColor=#FFFFFF;spacing=5;fontStyle=1;fillColor=#b0e3e6;entryX=0;entryY=0.5;entryDx=0;entryDy=0;exitX=1;exitY=0.75;exitDx=0;exitDy=0;" edge="1" parent="1" source="12" target="22">
                    <mxGeometry relative="1" as="geometry">
                        <mxPoint x="1590" y="876.0333333333333" as="targetPoint"/>
                    </mxGeometry>
                </mxCell>
                <mxCell id="15" value="" style="edgeStyle=none;rounded=1;jumpStyle=none;html=1;shadow=0;labelBackgroundColor=none;startArrow=none;startFill=0;jettySize=auto;orthogonalLoop=1;strokeColor=#12AAB5;strokeWidth=3;fontFamily=Helvetica;fontSize=14;fontColor=#FFFFFF;spacing=5;fontStyle=1;fillColor=#b0e3e6;entryX=0;entryY=0.5;entryDx=0;entryDy=0;exitX=1;exitY=0;exitDx=0;exitDy=0;" edge="1" parent="1" source="12" target="20">
                    <mxGeometry relative="1" as="geometry">
                        <mxPoint x="1590" y="806.3666666666668" as="targetPoint"/>
                    </mxGeometry>
                </mxCell>
                <mxCell id="16" value="" style="edgeStyle=none;rounded=1;jumpStyle=none;html=1;shadow=0;labelBackgroundColor=none;startArrow=none;startFill=0;jettySize=auto;orthogonalLoop=1;strokeColor=#12AAB5;strokeWidth=3;fontFamily=Helvetica;fontSize=14;fontColor=#FFFFFF;spacing=5;fontStyle=1;fillColor=#b0e3e6;entryX=0;entryY=1;entryDx=0;entryDy=0;exitX=0.75;exitY=0;exitDx=0;exitDy=0;" edge="1" parent="1" source="12" target="17">
                    <mxGeometry relative="1" as="geometry">
                        <mxPoint x="1518.843971631206" y="736" as="targetPoint"/>
                    </mxGeometry>
                </mxCell>
                <mxCell id="17" value="Types of charges" style="swimlane;gradientColor=none;strokeColor=#61C6CE;startSize=23;fillColor=#00BFBF;fontColor=#000000;" vertex="1" parent="1">
                    <mxGeometry x="1610" y="480" width="390" height="130" as="geometry"/>
                </mxCell>
                <mxCell id="18" value="Positive: Cellulose acetate rubbed with cotton" style="rounded=1;whiteSpace=wrap;html=1;shadow=0;labelBackgroundColor=none;strokeColor=none;strokeWidth=3;fillColor=#61c6ce;fontFamily=Helvetica;fontSize=14;align=center;spacing=5;fontStyle=0;arcSize=7;perimeterSpacing=2;fontColor=#000000;" vertex="1" parent="17">
                    <mxGeometry x="9" y="30" width="371" height="40" as="geometry"/>
                </mxCell>
                <mxCell id="19" value="Negative: polythene rubbed with dry woolen material" style="rounded=1;whiteSpace=wrap;html=1;shadow=0;labelBackgroundColor=none;strokeColor=none;strokeWidth=3;fillColor=#61c6ce;fontFamily=Helvetica;fontSize=14;align=center;spacing=5;fontStyle=0;arcSize=7;perimeterSpacing=2;fontColor=#000000;" vertex="1" parent="17">
                    <mxGeometry x="9" y="80" width="371" height="40" as="geometry"/>
                </mxCell>
                <mxCell id="20" value="Electroscope" style="swimlane;gradientColor=none;strokeColor=#61C6CE;startSize=23;fillColor=#00BFBF;fontColor=#000000;" vertex="1" parent="1">
                    <mxGeometry x="1669.9899999999998" y="633" width="349.75" height="77" as="geometry"/>
                </mxCell>
                <mxCell id="21" value="Device to indicate charge" style="rounded=1;whiteSpace=wrap;html=1;shadow=0;labelBackgroundColor=none;strokeColor=none;strokeWidth=3;fillColor=#61c6ce;fontFamily=Helvetica;fontSize=14;align=center;spacing=5;fontStyle=0;arcSize=7;perimeterSpacing=2;fontColor=#000000;" vertex="1" parent="20">
                    <mxGeometry x="9" y="30" width="331" height="40" as="geometry"/>
                </mxCell>
                <mxCell id="22" value="Charge Distribution on a Conductor" style="swimlane;gradientColor=none;strokeColor=#61C6CE;startSize=23;fillColor=#00BFBF;fontColor=#000000;" vertex="1" parent="1">
                    <mxGeometry x="1820" y="940" width="390" height="230" as="geometry"/>
                </mxCell>
                <mxCell id="23" value="Charge Density = \(\frac{Q}{A}\)" style="rounded=1;whiteSpace=wrap;html=1;shadow=0;labelBackgroundColor=none;strokeColor=none;strokeWidth=3;fillColor=#61c6ce;fontFamily=Helvetica;fontSize=14;align=center;spacing=5;fontStyle=0;arcSize=7;perimeterSpacing=2;fontColor=#000000;" vertex="1" parent="22">
                    <mxGeometry x="9" y="30" width="371" height="40" as="geometry"/>
                </mxCell>
                <mxCell id="81" value="Charge Density \(\propto\) curvature" style="rounded=1;whiteSpace=wrap;html=1;shadow=0;labelBackgroundColor=none;strokeColor=none;strokeWidth=3;fillColor=#61c6ce;fontFamily=Helvetica;fontSize=14;align=center;spacing=5;fontStyle=0;arcSize=7;perimeterSpacing=2;fontColor=#000000;" vertex="1" parent="22">
                    <mxGeometry x="9" y="80" width="371" height="40" as="geometry"/>
                </mxCell>
                <mxCell id="82" value="Flat surfaces have low charge de&lt;span style=&quot;color: rgba(0 , 0 , 0 , 0) ; font-family: monospace ; font-size: 0px&quot;&gt;%3CmxGraphModel%3E%3Croot%3E%3CmxCell%20id%3D%220%22%2F%3E%3CmxCell%20id%3D%221%22%20parent%3D%220%22%2F%3E%3CmxCell%20id%3D%222%22%20value%3D%22Charge%20Density%20%5C(%5Cpropto%5C)%20radius%20of%20curvature%22%20style%3D%22rounded%3D1%3BwhiteSpace%3Dwrap%3Bhtml%3D1%3Bshadow%3D0%3BlabelBackgroundColor%3Dnone%3BstrokeColor%3Dnone%3BstrokeWidth%3D3%3BfillColor%3D%2361c6ce%3BfontFamily%3DHelvetica%3BfontSize%3D14%3Balign%3Dcenter%3Bspacing%3D5%3BfontStyle%3D0%3BarcSize%3D7%3BperimeterSpacing%3D2%3BfontColor%3D%23000000%3B%22%20vertex%3D%221%22%20parent%3D%221%22%3E%3CmxGeometry%20x%3D%221739%22%20y%3D%22510%22%20width%3D%22371%22%20height%3D%2240%22%20as%3D%22geometry%22%2F%3E%3C%2FmxCell%3E%3C%2Froot%3E%3C%2FmxGraphModel%3&lt;/span&gt;nsities." style="rounded=1;whiteSpace=wrap;html=1;shadow=0;labelBackgroundColor=none;strokeColor=none;strokeWidth=3;fillColor=#61c6ce;fontFamily=Helvetica;fontSize=14;align=center;spacing=5;fontStyle=0;arcSize=7;perimeterSpacing=2;fontColor=#000000;" vertex="1" parent="22">
                    <mxGeometry x="9.5" y="130" width="371" height="40" as="geometry"/>
                </mxCell>
                <mxCell id="83" value="Sharp edges have high charge densities." style="rounded=1;whiteSpace=wrap;html=1;shadow=0;labelBackgroundColor=none;strokeColor=none;strokeWidth=3;fillColor=#61c6ce;fontFamily=Helvetica;fontSize=14;align=center;spacing=5;fontStyle=0;arcSize=7;perimeterSpacing=2;fontColor=#000000;" vertex="1" parent="22">
                    <mxGeometry x="9" y="180" width="371" height="40" as="geometry"/>
                </mxCell>
                <mxCell id="25" value="Coulomb's Law" style="swimlane;gradientColor=none;startSize=23;fontColor=#000000;fillColor=#DE7A73;strokeColor=#DE7A73;" vertex="1" parent="1">
                    <mxGeometry x="209" y="710" width="460" height="270" as="geometry"/>
                </mxCell>
                <mxCell id="26" value="Force acting between two charge." style="rounded=1;whiteSpace=wrap;html=1;shadow=0;labelBackgroundColor=none;strokeColor=none;strokeWidth=3;fontFamily=Helvetica;fontSize=14;align=center;spacing=5;fontStyle=0;arcSize=7;perimeterSpacing=2;fontColor=#000000;fillColor=#f08e81;" vertex="1" parent="25">
                    <mxGeometry x="9" y="30" width="441" height="50" as="geometry"/>
                </mxCell>
                <mxCell id="27" value="\[\vec{F}_{1,2}=k\frac{q_1q_2}{r^2}\hat{r}_{1,2},\quad k=\frac{1}{4\pi\epsilon_0}\approx9\times10^9mF^{-1}\]" style="rounded=1;whiteSpace=wrap;html=1;shadow=0;labelBackgroundColor=none;strokeColor=none;strokeWidth=3;fontFamily=Helvetica;fontSize=14;align=center;spacing=5;fontStyle=0;arcSize=7;perimeterSpacing=2;fontColor=#000000;fillColor=#f08e81;" vertex="1" parent="25">
                    <mxGeometry x="9" y="90" width="441" height="50" as="geometry"/>
                </mxCell>
                <mxCell id="28" value="\(\vec{F}_{1,2}\) is force by charge 1 on charge 2" style="rounded=1;whiteSpace=wrap;html=1;shadow=0;labelBackgroundColor=none;strokeColor=none;strokeWidth=3;fontFamily=Helvetica;fontSize=14;align=center;spacing=5;fontStyle=0;arcSize=7;perimeterSpacing=2;fontColor=#000000;fillColor=#f08e81;" vertex="1" parent="25">
                    <mxGeometry x="9" y="150" width="441" height="50" as="geometry"/>
                </mxCell>
                <mxCell id="29" value="\(\hat{r}_{1,2}\) is unit vector from charge 1 to 2" style="rounded=1;whiteSpace=wrap;html=1;shadow=0;labelBackgroundColor=none;strokeColor=none;strokeWidth=3;fontFamily=Helvetica;fontSize=14;align=center;spacing=5;fontStyle=0;arcSize=7;perimeterSpacing=2;fontColor=#000000;fillColor=#f08e81;" vertex="1" parent="25">
                    <mxGeometry x="9" y="210" width="441" height="50" as="geometry"/>
                </mxCell>
                <mxCell id="30" value="Electric Field Intensity" style="swimlane;gradientColor=none;startSize=23;fontColor=#000000;fillColor=#DE7A73;strokeColor=#DE7A73;" vertex="1" parent="1">
                    <mxGeometry x="280" y="998" width="389" height="122" as="geometry"/>
                </mxCell>
                <mxCell id="31" value="\[\vec{E}=\frac{kQ}{r^2}\hat{r},\quad k=\frac{1}{4\pi\epsilon_0}\approx9\times10^9mF^{-1}\]" style="rounded=1;whiteSpace=wrap;html=1;shadow=0;labelBackgroundColor=none;strokeColor=none;strokeWidth=3;fontFamily=Helvetica;fontSize=14;align=center;spacing=5;fontStyle=0;arcSize=7;perimeterSpacing=2;fontColor=#000000;fillColor=#f08e81;" vertex="1" parent="30">
                    <mxGeometry x="9" y="30" width="371" height="80" as="geometry"/>
                </mxCell>
                <mxCell id="32" value="Electric Flux" style="swimlane;gradientColor=none;startSize=23;fontColor=#000000;fillColor=#DE7A73;strokeColor=#DE7A73;" vertex="1" parent="1">
                    <mxGeometry x="64.5" y="1150" width="820" height="460" as="geometry"/>
                </mxCell>
                <mxCell id="33" value="First of the four equations of Maxwell" style="rounded=1;whiteSpace=wrap;html=1;shadow=0;labelBackgroundColor=none;strokeColor=none;strokeWidth=3;fontFamily=Helvetica;fontSize=14;align=center;spacing=5;fontStyle=0;arcSize=7;perimeterSpacing=2;fontColor=#000000;fillColor=#f08e81;" vertex="1" parent="32">
                    <mxGeometry x="9" y="30" width="411" height="50" as="geometry"/>
                </mxCell>
                <mxCell id="34" value="\[\phi=\oint_S\vec{E}\cdot\vec{dA}=\frac{\sum Q_{enc}}{\epsilon_0}\]" style="rounded=1;whiteSpace=wrap;html=1;shadow=0;labelBackgroundColor=none;strokeColor=none;strokeWidth=3;fontFamily=Helvetica;fontSize=14;align=center;spacing=5;fontStyle=0;arcSize=7;perimeterSpacing=2;fontColor=#000000;fillColor=#f08e81;" vertex="1" parent="32">
                    <mxGeometry x="9" y="90" width="411" height="80" as="geometry"/>
                </mxCell>
                <mxCell id="112" value="Spherical Symmetry" style="swimlane;gradientColor=none;startSize=23;fontColor=#000000;fillColor=#DE7A73;strokeColor=#DE7A73;" vertex="1" parent="32">
                    <mxGeometry x="70" y="180" width="280" height="270" as="geometry"/>
                </mxCell>
                <mxCell id="111" value="" style="shape=image;verticalLabelPosition=bottom;labelBackgroundColor=#ffffff;verticalAlign=top;aspect=fixed;imageAspect=0;image=data:image/png,iVBORw0KGgoAAAANSUhEUgAAAV4AAAGMCAYAAACS3co+AAAABHNCSVQICAgIfAhkiAAAIABJREFUeJzsnXeYFFX2v9/qMD15iEMGBSRKmkFBQZEFDGCOiHl114ArYlr19zWwiGnNYsAEuuAaFl11zaIoBgQRFVFXRGFRoqTJ0+n+/jhVnaYnz3RXz9z3efrp7lvV1ad7pk/dOveczwGNRqPRaDQajUaj0Wg0Go1Go9FoNBqNRqPRaDQajUaj0Wg0Go1Gk2iMZBug0SSAXsDp5r0BuICfgSeA7Um0S6PRaFocDuAmYCPwf0BfIBvoAzwD/AocnDTrNBqNpoWRDbwKBIHxcbYbwDpkxtstgXZpNBpNiyQNeBNQwBk17HeHuc+diTBKo9FoWjL3Iw719Vr2+4u539dIWEKj0Wg0DWAS4kz9wKha9r3W3HcTkNvMdmk0Gk2LxAl8ijjTD+uw/6PmvuuB9Ga0S6PRaFosoxFHqoCLatnXAJab+37SzHZpNFHouJamJTHJvPcBS2vZty8w3Hz8eXMZpNHEQzteTUuin3n/K5K7WxMnAh7z8QvNZpFGo9G0cP6NhA4+q2W/LCSuq5C0M40moegZr6Ylscu8L6tlvz8Cvc39rmlWizQajaaFcyEyi/2mhn16Ab+b+52dCKM0mli0SI6mIXQA8oGuQBfzeS5yCR8093EAJUAxsAPYbN62Abubya52iNPtBgyjqgNuB7wNjESc9GPNZIdGo9E0igxgBHAJ8CSwAtiCOFhVz5sfWfhaDswD/gQMRUp8m4qxiKP/0bQ7AzlJnAL81xw/ognfT6OpN3rGq4lHPiIsMxlxZL1re4HL5cLhiF4yCAQCBAKB2l4aRMRqPkIWuj4kHKttKH2QPN6LgHeQmbfHfPwctceANZpmRTtejYUTmICIyhyJON8oMjMz6dWrF7169aJ379706NGD/Px82rRpQ25uLunp6SilADAMg9LSUoqLi9mzZw/bt2/nf//7Hz///DMbNmzgf//7H5WVlfHs+BX4D7AI+LgRn+dq4FDgfGrW3B0H/ICEQDSahKAdr6YNMA1xUAWRG9xuN4MHD+bAAw/kgAMOoH///nTu3Jns7GwcDgeGYRAMBgkEAgSDQRwOB06nE7/fj1IKwzBwOByhm1KKYDBIUVERW7du5bvvvmPlypV8/vnn/PDDDwSDwVjbPkPisC9Q91lqDvAIcgIpQtLGPkGc+XJgb8R+5wOZwN1A3LOARtMcaMfbeslFYqzTgX0jNxQUFHDUUUcxbtw4+vbtS1ZWFsFgEJ/Ph9/vj+cgcTgcFBcXU1RURH5+Pi6XKzT7jbevy+XC7XbjcDgoKipi3bp1vP/++7z11lt8++23sS/5L/AA8BRQUcNn2h/4K6LFW4KI5OwXsX0nMrsNICecl4HZ5nONJmFox9v6MIDzEGWukFPKzc3l6KOP5qSTTqKgoIDMzEy8Xi8+ny+uo40lNzeXhx9+mFtvvZV33nmH3r174/V662SQw+EgLS0Nt9tNcXExq1at4oUXXuDNN9+krCxqovsNMIfqK81GIqliG8znbmTxbhISqx6MzJw/Ah4HvqyTgRpNE+NKtgGahHIAIv4d6sjQtm1bpk2bxhlnnEGfPn3w+/1UVlZSXFxc74P7/X68Xm+1M93qCAaDVFRUUFFRgcPh4JBDDmHcuHH88MMPLFy4kOeff96yZyjwPHAOcuJYE3OoL2Ke+4BV5g0kxa32s4hG08zoyrXWgQeYhSxWjQdZKLvwwgt58803ufHGG+nevTvFxcWUl5fXaYYbD8No/AVUMBikrKyMkpIS+vTpw5w5c3jjjTc488wzcbvd1m6Tkbjt1dTvf1g7XY0t0I635TMIeBe4ETNfdtKkSbzyyiv87W9/o2vXrhQXF9c5LJBIrJn3Pvvsw1133cXixYsZO3astTkHadnzGlKNptGkDNrxtmxOQeKZhwDk5+dz3333MX/+fAYOHNgoh5uZmUl2dnbolpOTg8cjYl9ZWVlR27Kzs0lLS6t3CMKisrKSkpISRo4cyaJFi5g9ezZ5eXnW5snITP7wBh1co0kCenGt5XIjEl4AYMKECcyePZu+fftSXFyM0+kkMzOT0tJS/H5/vcIETqeTp556is2bN4del5aWxurVq/nss8847bTTaNOmTah4IhgMMn78eA477LDqcnfjopTC5XKRlZVFWVkZPp8Pp9NJdnY2a9as4frrr+fzz0NSuj7gKiT7QaOxNdrxtjxcwMNIqhgAM2fO5PLLL8fpdFJRUYHb7eann35i2bJlTJ48mY4dO9alwgyQOK7L5eKMM85g7dq1oXGHw0F5eTllZWXk5eXhdDqjiimmT5/O9OnTKSkpqfsHcbnYunUrb731FuPGjaN37974fD5AZtxlZWXceuutPPXUU5Ev+ztacUxjc7TjbVmkAQuREAM5OTnccccdnHzyyZSWloaca05ODgsXLuTKK69k8eLFjBo1ioqKmtJjqxLrqHNycnjooYeYM2cO7733Hn369IkKY1jFFPUhMzOTjz/+mFNPPZUHHniAU089Ncpxu1wu0tPTWbBgATfeeGPk+z0JXFCvN9NoEohOJ2s5uIlwup07d+bhhx9m7NixFBUVRe2olAplCDidzoa9WTjDAJBQg3Ust9uN2+2Oiukqpeod41VKhY4ZryDD7/dTWlrK+eefT9euXfnLX/7C3r17QSrSQGb9DQssazTNiF5caxk4iHC6PXv2ZNGiRYwZM6aK020qgsFglZvlGGva1tQopdi7dy9HHnkkzzzzDPn5IYmJ85HSYY3GdmjH2zJ4CDgVoFevXjz99NMMHjw4VAQRqZcQeatuW1Pk4zaEWG2H2uyMDF0UFRUxevRo5s+fH+l8LwRuSfgH0WhqQTve1OevmK3M8/PzeeKJJxg4cGBULNTn81FZWYnX6w3drEUqn88XNV5ZWYnf76+3EYZhhGKsDS3ACAQC9bLT2mZRXFzMyJEjeeSRR8jJybGG/x/S6kejsQ16cS21ORp4BXBkZWXx9NNPc8ghh0SV+2ZkZHDppZfy6aefhmayDoeDsrIy9uzZQ/v27aNybJVSTJ06leuuu65eGQjp6el88MEHvP7661x55ZV07NixXg48JyeHWbNmsXjx4pCdljPfuXMnbdq0ITMzM+TUlVKMGzeOe+65p8rCYF5eHq+88goXXXSRZUMFInn5aZ0N0miaEb24lrrsg6zeOwzD4NZbb+XQQw+tEtMNBAIMGzaMrKyskHN1u92sX7+eZcuWceCBB5Kfnx9ykoZh0K9fv3rPesvLyxk3bhxHHHEEJSUl9X69z+ejf//+TJo0KWSny+Vi27ZtvPXWWwwdOjQqncwwDAYMGBA3DW7v3r0cd9xxbNq0iVmzZgGkA88gamU762WYRtMM6BlvauJEeodNALj44ouZNWsWxcXFVRaxlFJkZWXhcoXPsTk5OSxatIgLLriA9957j1GjRlFeXh7a7vV6KS8vT2isVylFRkYGaWnhLkBWOtmRRx7JggULqqSTWVkN8ex0OBxkZGQwY8YMXnghJGb2ImYsXKNJJnrGa09ciA7BR8C/42yfgel0R48ezdVXX01paWnczAHDMGKlFUNCNAAlJSXs3bu3yuV6ohfYDMMIKZRZ+Hw+SktLASgrK2Pv3r2h57XZGQwG8Xq9zJo1izVr1vD999+DZH2cAzwd5yVnIrKR1zXBx9FoakQvrtkTJ5IONSrOtgGYpcB5eXncfvvteDyeOleetSZ8Ph9t2rThtttuC+lIICe0LnF2H4du965JENrx2pdi4rejuQvpsMBVV13FoEGDosIEmmhKS0s5+OCDueiii6yhfOC2OLtWIF0rNJpmRzte+5JN1bbnxwJTAEaNGsXZZ59dr8yDSCIFbOyMZV9jZvSlpaVMnz6dAQMGWENnAWNidvMAWQ1+E42mHjSsXlSTCDYDy8x7ECf8LNDZ5XLxwAMP0LNnzwbJOgYCAdq1a8e4ceMYOHBgjf3RkkkwGCQ7O5sxY8YwbNgwPB5Pg+xUSpGTk0OnTp145ZVXQBaV90UyHSz2ACuo2tVCo2lydFZD6nAm8A+Ak08+mblz5zZ4tmvJLXo8HioqKmw963U4HKSnp4cKOxq66GcYBunp6Zx99tksWbLEGj4G6T6s0SQUHWpIDdIwpQ6zsrKYPn16g6rLLAzDIBAIUFZWZmunC+EMjEAg0KhMC6vd/KWXXhopDHR1kxip0dQT7XhTg6OBIQDHHnssgwYNCqVdZWVlNfgSvCWjlCI9PZ3MzMzQWHl5OaNGjWLixInW0CHAocmwT9O60Y7XnriB+cBU8/klINKL55xzTqh6SynF66+/zpdffllFprG143a7WblyJW+99VZotmudnP74xz9as2cDuNh8yZ/RamaaBKEdrz1xAMcD+yGNHMcBHHrooQwZMiTUBj0QCDB9+nQef/xxMjIykmmv7cjMzOThhx9mxowZUWGK8vJyRo8eTUFBgbXr0UAb5IrimORYq2ltaMdrX8qQvNLTMSsMTzvttCpdHDIzM3WoIQ5KKTweT1SowRpPT0/n1FNDlcPZwHHAXuQ712iaHe147YsL6IQ4BXr06MGYMWPq3aJHU5WKigomTJhA27ZtraHTgLZIiEejaXa047UnPuBcYD1QCDBx4kQ6dOhAMBjEMIzQDYh6HruttVDT548d9/v9dO/enUMPDa2rjQM+w9Q11miaG+147UkQeBPojDkLmzRpEiA90iJvEO78G29bayH2s7tcrpDzjd3mdDoxDCP0nQKZQAai+KbRNDtanczeTAbo3bs3Xq+XiRMnRrVMV0pRVFTEe++9x4QJE6LKatu0acMDDzxAmzZtWrSAjtPpZM+ePVxyySVRBSVOp5MNGzZQWlrKCSecEJXVoJTilltuYezYseTk5FjC8ccCjyflQ2haHdrx2pduwP4AI0aMoGvXrrRv3z600TAMgsFgqLIrsuODYRjk5ubWu516quJwOGjXrh0ZGRlRIupbtmyhvLyc9u3b43A4ok5aDoeDrl27sv/++/PZZ5+BhHRygebpDqrRRKAdrz1xITml2QBDhgyhsLCQf/7zn6EdHA4HXq+XoUOHMm7cOJ588smolj9KqVDFV0smEAiQnZ3NE088ERXXzc3NZdq0aSxfvpyFCxeSlpYWVaVXXl6OUooDDjjAcrxdkKahZyX6M2haH9rx2hMHMMh6MnToUCoqKqLkHy3Hq5TC5/NRXFzcYO2GVEcpFVcg3e/3o5SipKSkiuMFKUceNmxY5ND+zW+tRqMX1+xMJUC7du3o0aNHlY66msbj8/no06cP6enp1pDO1dMkBO147UlIG7Zbt26hNDJN0xIIBMjPz6dz587WkBut2KdJANrx2pM0zPjuPvvsU2NlWklJCRUVFa0ub7c2rB5usSGISILBIDk5OXTt2tUaykM6Ems0zYqO8dqTdkAOQPfu3XE6nXG7BzudTu655x46d+6s2//EUF5ezgUXXMAJJ5wQ9/uDsC5x9+7draGOSGaD/jI1zYp2vPakE2bbn44dO8bdwVLcOuWUU/D7/Qlvx253vF4vY8eOxel0VtuBGSTft1OnTtbTLOSkty1BZmpaKdrx2pM21oO2bdvWKIBjZTJopxuNFWqoDaUUbdqEvm4Xotmg0TQrOsZrT3KtB3l5eXphrRlRSpGbmxs5lFvdvhpNU6Edr81pbZoLicaSiYwgtrOzRtPkaMdrT7KtB2lpaVprt5mJ+X71l61pdrTjtSehnu2NbfKo0Wjsh3a89iRUpqbjuwlHn+U0zY52vPYkNOMtKyvTM95mxOFwRIkLIe2WNJpmRaeT2ZM9oQd79tQo72jJHeo4cFWsjhM1XTUYhhHpeBVaFrIl4AYGIEVIRcC3yTWnKtrx2pOdiBMwdu7cWeOMV4ciqqcuJySlFL///rv11AvsaG67NM1GDjADOAj4CdgFdEW6dT8A/Dt5pkWjQw32ZAdm2eq2bdviOlervfspp5zC3XffXaWbbmsnKyuL2267jWnTphEIBOJeNRiGQSAQYPPmzdZQMTrUkKqMAb4CDkWc7wxgFnAh8BzwMnBZ0qyLQTtee1Ji3ti4cSN+vz/urFcpxX//+182b97carpN1BWHw8Gvv/7KunXrapz1VlZW8uuvv1pPfweqV9XR2JWjgQ+AjcBRyGw3kseAFcB9wIjEmhYf/Wu1JxWYscZNmzZRUlJSbbjB4/HgcumIUTzcbjdpadXXQzidTnbv3s2WLVusoSK0Jm+qcRDwPPK3mwZU13LlEyRj5cIE2VUj2vHaEz+mA9iyZQvbt2/XzrUZsPqyRcR4W3afpJZHW+BppEv0bGBrDftaIaSR2CBlUP+a7YkPWAjcXl5ezo8//kj//v2jwgkOhwOHw4FhGDidTjIyMkLNLkHCEFZroJaOYRh4PJ6osYyMjFAb9/T09Cqtf7xeLy6Xi7Vr10Z+R08lzmpNE/D/kIWzTdT+t+tg3qcDTmRykzS047UvS6wHX331FePHj2ft2rWhjQ6HA5/Ph9/vZ+fOnaxcuZKysrLQdpfLRZ8+fXC5XC3a+Vq91X744Yeoxp5ZWVns3r0bn8/H6tWrcbvdUY63Z8+eZGdns2rVKmvIC7yfUOM1jaEb8Cfz8fPIwmhN7GfeF5Fkpwva8dqZb5HFgl5r167lo48+4rzzzou745IlS1iyZEnUWE5ODu+//35U2/eWiNPpZNeuXZx44olUVlbG3eeEE06oMjZ//nzy8/NZvXq1NfQd8HOzGappao4hrCT3ci37tgOsrqbrms2ieqAdrz0xgAzge6DXF198wcyZM1m4cGHIiVozvRkzZjB8+HAuvfTSkP6sUoq0tDSys7NbTXv3J598Ep/PF1qEzMjI4J577uHHH3/krrvuipr5K6UoLCzkm2++Yf369dahfkBa/+xNxufQ1Jsx5v2vwJpa9j0M6S4C8G5zGVQftOO1J27gdSQuFSwuLnb8+OOPXHjhhaEqK6u9e1paGt26dWPy5MlR7d2VUlRUVLToMAOETzLjx4+PyvzIycnh2WefZePGjUyaNKlKjNfj8fDss89aJyYvUAi8BExI8EfQNIxu5v0Gag8znGveb0Z+V0lHO157YiAVNx8jl1Od3njjDU4//fRQbzXL8Sql8Pv9lJWVRcV4WxNKqSo955xOJ4FAAKUUZWVl+P3+kOM1DAOfz8e774YmPxuB1YQvRzX2xzrLbq9lv5HAZPPx34HdzWZRPdDpZPbFg4QaPgJYvnw569evrzEvVVM3PB4P3377LV9//bU19C4yc3InzShNffnNvK8tNexmJIvhfeCh5jSoPmjHa08UUjb8O1LuSFlZGa+//npstwQqKirwer1awSwGwzDwer1x+6653W5efvnlyEXHfyKxXa3TkDpYIYM+NexzITAFKSU+kwi51WSjHa898SGxxn8gpZA7ABYvXszu3btD+byGYVBYWEifPn1adOZCQ/D7/fTt25eCgoKok5JVNPHqq69aQz8BKxERlaMTb6mmgbwEfAgMBaqmrcB5wKNIuG4KsCXOPklDT5NSg/sQ0Q/mzp3LySefHFpIs/JTW3r2QkOwCigiT0o5OTnMmzePG2+80Rq6AbglGfY1gjSkaqucsHZzBuE1G4Xkqlaaj320zKq8DsAzwIHIb+Rbc+xoRJNhHhLXtc1M10I73tRgIHK5lFZQUMBLL71EMBgkGAyGZnMtPXuhIcR+N06nk/LyciZPnsyGDRtAkukHEY4XpgptgT8gBQSDkN/xV0gFF0isuqe5rQIYj6RdtVSmAXOBu5HFsy1ITDdeaqALGxRQ6FCDPTGQ2FV78/n3wAsAX375JW+99VZIBlKLoFdP7HeTlZXF4sWLLacLUudvOd18YN+EGthwdgOLgfeAHkhz1POBS8zbn4CTgduQhaXaVv5Tmf7AVcCbwKvAw0hBRazTzQOuRDR7k452vPYkDVlpvyRi7A7MS6b777+f4uLiRrV+dzqdpKen215O0uFwNImdbrebbdu2MW/ePGuoGLgnYpfrgNca9SaJZ4B5/wFVnWsx4oDeJaKVVAvjJGA5ElaYBnyDpAY+DpwI9EVOpucSlobU6WSaGskgOr3pW0Q4h++//56FCxeSnZ0d94W1Hjgjg08++YQTTzzR1ilqHo+HdevWceKJJ/L5559XyeioDxkZGcybNy9Se/cRJIXMIg0RUEkV0pGKLKi+GqsSiYG2RE4GDgbOQPJ07wBWISGWC5ArgnVIVdspiHrZsqRYGgddQGFfnFQ9Mc5CzuR5Dz74IEcccQQ9evSoVqOgOlwuFzt27GDFihUUFxfbdtbrcDgoKipixYoV/P777w2e4WdkZLB69WqefPJJa+g3ZNEl6u2Q7zxV2B+ZzfmR1f1ICoEvkdY3nyTYrkSxBPhXxPM3zfuBwAHIbHcnkge/Gpthz1+cRgHrqZpXuhG4FWDXrl3Mnj07JA1Zr4MrFXJidnW6FpZ9DXW6DocDv9/PrFmzIqvbbkBypCPZRmqJ5IxDfr+rEYEfi8OAS+t4DCdyVVXXm51OTNWFDL5HZvk3AvdjQ6cL2vHaFS8wEbkcjuV+5JKKN998k2effZacHFusF9iSnJwcHnnkET799FNr6F1kUS2W2xDFq1RhonlfCZyKLBzdhRTcvI+cvGvjMkQ8vK6365rO/NaNDjXYl+p6f1Uii24fAZ5bbrmFESNGMGjQoGq1GlwuV9SsOC0tLdTRwuVykZaWFpUHnKy8YKfTGTUDj2en1xteJ7J0KuKhlCI7O5tly5Zx7733WsN7gelAvNbM9YvXJJeOSO4qSCihDVAGDEFW7d+s5nWxLKF+amxf17DNYd50ik0YA/k+qvyYtONNTVYgNei37d27lyuuuILnn3+erKysKMcEksu6Y8eOqDhwVlZWqN3Ntm3b2LhxY5Xtubm59U5TczqduFyuBnW+cDgc7N69O+rkkZ6ezrZt2wD4/fff2bhxY5Xtbdu2jfte6enpbN68mSuuuCLys12JTfRYG8mBiMbsHqT4w5Klew+YQ9UwSnV8Y96agn8Co4h/UmutGEge9cB4GzT2w4GUQu6g+uR+B/AKZpnrMcccw8MPP4zf74+arWZmZjJ16lQ++uijOr/5eeedx+233x6SoKyTwQ4He/fuZdeuXXTr1g23210v55ubm8vMmTNZtGhRnV8zadIkFixYUEWZzNLePffcc/nww9C609OE5QHj0QvJ9WwqR9Sc3APMBN4GjowYH4D8yGsTBm8OLkRyz7XjDWMgKaD/F2+Dxn54gF+QfMSbativI1KL3g/goosuYtasWZSWloYkEF0uFx9++CFbtmwJhRvS09NZsWIFixYt4rLLLmOfffbB55OqymAwSL9+/Rg5cmRorC7k5uYyd+5c5syZw3vvvUefPn2qzL5rwu12s3LlStatWxcKN6SlpbF+/Xrmzp3LWWedRWFhYWj2qpSia9euHHLIIVEnGqfTSVpaWugqwGQlUulVQvXMBY4g3CLGrjiRK54C4BqqZmfUh3HApHrs/yE2ERJPdXSoIbXZAZyGLKa0ffTRR2nTpg0zZ84MOV+fz8eECROiuhRnZ2eTkZHBokWLmDJlCqNGjYpS8fL5fFRUVNQ7W6IxsWGv18uoUaMYO3ZsaMzKN547dy7jx4/nlFNOobQ0HPr2+/1RdltNP//2t79FOt3fgNOp2emmEr2RqyGFFE5Ux77AaCQEUB39kXzYurIT7XibBO147UsadUvf+Qqp2nkFSLv99tsxDIPLL7885HzjSSNaY+Xl5ZSUlFTZpyEyk42RpjQMg8rKyqhYcyAQCIURKioqKCkpiXK8kVhOd86cOTz88MPWcBFS3bQ+7ouicSHfud0Zi9j6X6pveZMHzEeyHGriMfOmSTA6ncyeKCQBvq7CJm8heqMBgNtuu42777471OK8peNyuXC73dx88808+OCD1nApUrH0eR0PswE5idmdqeb9LqIzMRxIdsPRwKdAJ+CNxJrWKumEnOBeQIqb6oSe8doTL3AU9UvNeRHIQqTw0u6880527drFDTfcgNPprBJvtWLADRXYycrKikr9ys3NDZX0Zmdnk5ubGzV7tWazDSn2iLQ3dltGRgaVlZVcffXVvPjii9amEuQS+p16vNWd2HvNoyuyOLg/klPbAykh32Nu74gsEPZBftdXoRe6mps2hHPCuyFlyqdjNi+oCe147UtDgqULkJne00DGE088wa+//sodd9xBp06dQhq+wWCQrKwsunfvjsfjaVDq14svvsjOnTtDr83IyGDZMimF/8c//kGHDh2iOiKPGDGCgoKCei24KaXweDx0796drKysKnbm5uayYcMGrrjiCj75JFQZuxuZFdbH6YL9ndQeJHzwIHJCNoBMwuGoALKC7jO3t5SYtp0Zh4it/9t8vgQ4mzo4Xjuf4TUNZyIyG+oE0L9/f/7+979z0EEHUVxcHNLyDQQCVYorasMwDFwuF8cffzzffPNN1Gut41oC5BZKKa688kquvPLKeqWoWa/1+/1RdjqdTrKysliyZAnXXHMNmzZZMrRsRMILK+v1JhpNw2iHhHwsbgG6IBKdNaIdrz1xAIciMd6fGniMwcAizM65GRkZXHXVVZx//vm43e5Q1kK8S/i6sGfPHnw+X8gZ5uTk8OSTT3LPPffw0ksv0atXr1A6mlKKrKysuLPW2jAMA8MwQtq6WVlZlJWV8eCDDzJ37tzIyrWPgbOIVhyrDwMR/eOPG/h6Te08iWTiXJtsQ6phANLBwlppzkBU4ALISb2mRVoDueK8h5or/AC9uGZX3EjM9txGHGMt0nngWZDshdmzZ3PmmWeyZs0acnJyGrXw1qFDB7p27UqXLl3o0qULXbt2JTc3F4COHTtW2Zadnd2geLJSimAwiNvtJicnh+XLl3Paaadx3333RTrdh4HDabjTBWmttLARr9fUzLnAHxHZRrsSQPQ6Vpq32YjW72lIscpy4PhqXns2IsReq9MF7XjtjJeK7pWhAAAgAElEQVTGtyjZjeiVXoxZk//xxx9zwgknMGvWLHbv3t1gB+z3+/H5fFE3K4c33raGzqxdLhe5ubls3bqVv/71r5xyyil88cUX1uZtSDbHdKT/WGPw03IFw5NNf8LVW3bWxFhHOD6rkJPxnUhV3unASKQqcELM6w5DnPZi83mtkQTteO1LrBB6Y3gUGIOZXlReXs5DDz3ElClTePTRRykrKyM3Nxe3u6nervGkpaWRm5vL3r17ueuuu5gyZQoLFiyInOX+C9EGqHuNcc24SS0h9FQhDdGPuM98bvfw5sHm/Xrgh4jxlYB1xj8zYnw4cBBSWNIBKVoZXNub6KwGexJEVkibUtBlLdLm+hykDHnf3377jZtuuon58+dz+umnc8IJJ9CzZ89Q0UV9ZqmGYYQyFho6u7XaEQGsX7+exYsX8/zzz7N58+bI3b437X8xziEaw1okSyDZDECuUG4inCqWytyIOKyXkYyM2uiDFInUdBlmIJMIq2X7MCQcMBT5G34LPEXD8rKt2ewyqs7OrViZNWHth7SL6oSIVhlIuOtAasHuZx9N89Ae0WK9GMn/BKBdu3YcfvjhHH/88RQUFJCXl0cgEMDr9RIIBGqM0aanp7Ns2TLefvttLr30Utq3b19r+bBhGDidTjweDw6Hg127drFixQpeffVV3n33XYqKiiJ3/w354T6M9BNrieQhxQ/tEWeyLbnmNJo/IPnExyBO6jtqFiu6BHiojsfeF9iM6Cj/GbnyeQNZlL4SCT2NRQqR6kou8CPiSKcCz0ds62ban4vkiC82beiHhBksX7oFcfw1oh1v66Yr8s9+PtA5csN+++3H+PHjGTduHIMHD6Zjx4643W4CgQB+vx+/3x/KNLBuHo+H9PR0SkpKoma9VmaClYrmcrlwOBz4fD62b9/OmjVr+OCDD1i6dGlkB2ALq3nhY1TtyNGScCCLMxOR1jXVlQOnCm2QzzMd+Sz7m/fVOd6TEKH1d5EQ0hgkQ8CHOPARSBOAAKIZcT+S13wOEot9IOJYPyJiR1OoX/XeBERacw+yCGid4PsDTyCO/F7EsTdKd1g7Xg1IbOp05AdRELuxc+fO7L///gwfPpxBgwbRs2dPOnfuTFZWFm63G7fbHUr5isQa8/l8eL1eiouL2b59O7/88gtr1qxhzZo1rF27lh074vrTT5D0nBepn1h3qnIf4kAmU3chczvzKDLzm2s+r8nxtkVO/o8gBUDvIL7JUk57H0nxmhzxmv0QB7sNcZKRC6MDkBnqB9SvMOY2JNVtB5IN5EdmtT2RCcBj1L8wJy7a8doTJ3J5tp7EznycyFn9RETntV+8nTweD+3bt6dTp07k5+fTtm1b8vLySEtLCzlfS/TG0ujdunUrO3bsYNeuXTVVr61FnM5LwGdN/eFqYSSS/J6MFu9/QWZsl1L3S207MxVJu5oaMVaT401DnFwQcXTrgT8heb/7IL3w/ozMOi26IItffmQxa2sT2L0cmW3fgfwvPo34yGOA/zTB8TU2x4Okgt2aRBsygEOQRYMlwHbk8qopb1uQGcR1yGpwMtXBHgM21bpX0zMF+S7urW3HFKE3kvPaJmZ8X+RzPl7L669EwgldzeeXmK/rG2ffg5H/oc3I4t0SZJbboQF274O0TwoiJ2EQx6+IdvhNgs5qsC+lJDevtBxZ2V1mPm8PDELiXcMQQZYeyD95JuKoDcLO04v8E1cgn2UbUom3EUky/x6Zsdhl5b4S+eElkiHIIs1riMNpCVyAfK6niU6HtDqyHoXEXfcg4YXY/OuzkX6CVirLSUh2T2wH6AOA65EY8JNINkFPc9+G/E+NRf6HNyCzXczP8EfkCvB6ZPKhacHYYcZbFxyI0+2ExNz6I90R3jUf9wXyCTtlO/MYdZfhbAo6Af9DWg3lJvB9m5urkM+1Pea2C5k9lpvPvwOyY147wNznj+bzdsjJMHaW3BfpK6eovpKsvjxtHi+yetGFTBIUEurQtHDcyD/back2pAEsI6zWlEpcQHghqLnxIJoQO5FL3JaEA3FYsbdhiAN72nweL0/3OeTqyAoVjCLaEachv4nbzfHq0racyOKaxXDzdSci0qmxpCMzagWcF7PtanN8WeyLNBo78SK1x/FaO/9AfswH17ZjC2IQ8pnnx9nmRk56Cil8sJhqjt2PXFldhYQe7jXH1yEnsVhuRXLUQRaJX0XCYsci2QqxrzmAcFgsNpa8D3IyCGAKTmk0diSb+LMKjXAT4jSmJduQBGP1iYunVWvNKhXRVV9/iBjfiThQB+IAd5jjnyNO9khEl+RFJGyUZu77FdGz2M/N/SzSgGfMY1npY7G8Ym5/CXtUN2o0mnpwBvIDviHZhiSBXojjvDzOtquRxdcbY8Y9yOLjLiT22jZi2wAkz3sH4jC3IS2wzorYZz8kRjw8YuxpxIGCLPhdiDjWV83bDVTVWjjM3PYfJNc6NmND00JwInGtUck2pBUxjugfbVMzFnG6C5rxPVKZttWMG8giW3VkI2XvsQt1IN95GdHhg/uRBeCaqG0h2O4LxZoG4kGqtW5LtiGtiMcRPYjmoDcya/uY1Ohk3FIYi8RnYx1vXRugNhtaFtK+FGNv7dKWRgXN06csF8nTtVrNa83fxLEFWTSLXHPIo+FdXZoM7XjtSw7xV2ztzjzg78k2ogGkE/9ytTEYyCr6vkjZaaqrjaUavyDFEIURY/siVW5JRVeu2ZMA4sASrVfQFAxDVqBTjfdpesd4L1ISPJnUVxtLRYJICtpMpBpuH6Rw49Uk2qTRNAsfYoMZhQ34C7KYdkmyDdGwH3ACIrmpY+yaFsnHSHpOa6alCd9oNBqbM4w69JxqwQxFFkVfQ6+haDQphQtRqxqfbENaEZOR8EBjaKnCNxpNq8CDpB/dnmxDWhFPEJYibAgepGtGSxS+0TQxOqvBvhQhuaWaxFBO45poPoGI3oxFNF01mmrRMSj7kqp5vKlKY/J4bwLORLQYPmkyizQaTUJxIe1wJibbkAZwCdW377Yzx9KwLhCtWfhGo9HYhJWISlRrQAvfaDQaW7CUsOxeS8YSvlmGTsrX1BMd49Vo6k8uUnZajBa+0TQA7XjtiQuYg1RAaRLDqcgiWW1Ywjd9kL+P7jyr0bQQLD3eVMzjXUpqhhrqmsd7PxLXPap5zdG0ZHQer30pRufxJpK65PH+BbgMuBR4s9kt0tQHFyL/2Bs5MX6PtGa3JTrUYF+y0Xm8iSReHu/1wMnm48nAA8B9wEMJtEtTOxcjsp5nEW4FNAc5Oe6XRLs0KYYTacKXiu2/l5KaoYYJSJ87Cw+iu+ADbkFKgf+N7rdlJzoBbyOdJsbGbHMjxSy/IbNgjaZFs5TUdLyxHEq4tbhCutlq4Rv70AURIyoHBlWzzyTkb6eFzzUtnqW0DMc7j2jH6weeA7ol0ygNAJnAp8jf5fwa9tsHkej0A/2a3yyNJnksJfUdbzskTUzF3ALAOUm0SyPcg/w9ViBhuerojjQwVcDxCbCrzujFNXviBh4BTkm2Ia2I8wh3jDgVWaCxCAJPIwLvTyfYLk00hUhmCchCZ6CGfdshi6agF6o1dcAD7AFuS7YhDWApqTnjfRxZTHMjaUjWLPdD4JAk2qWJ5hnk7/Ibtcfcjyf8d7RVUwGdx2tfSpD4lCYxVCJdho9D2vcUAbOQgomaZlWaxNEOONJ8/C7yN6qJP5j3pcD65jKqIWjHa1+y0OIricSBpCfdCnyOpPPZNgG/lTKAcAjo41r29SC51wBfAJuay6iGoB2vPfEiP/wfk21IK+JJoBewEZiJvtqwI5Fx93W17HsUoqcB8BgSbtBoWiwfk0J5k0oph/rxx24APWD/ZNujqZGjCcdsa+pkbRBON1uODa8cdVaDzVAU3Kko/IdKG9M/2bY0kB1IlVdq8MUX+5Hm+HfR2de1/4G+XRUHLFUUjkq2WZq4/C/icU1X66cDByHaG39Gy3ZqakIxrJ+ioFxRqBQjixSF9yn6plq1VC7SLy4lUN9+NUYtekmpPlPWKUYo+e4LUmbG3spwIR1OFDCtmn36ALuBMsIxXtuhZ7y2wnEjONJ9KKayPud5dh0HeammDVBE47r1JhaHI8Cvu5i7fkXf80ITKuMYRcEfanydJhn4gasQ1b4bqJpOdhCS/leGZKe8kVDr6oFeXLMJihEjwZgKkq3/AcXsJLBgKr/sTbJpLZtyHxw1mm9eHsR7yz9EqkwB+JuCpYb8OexGJrIQGCS8CJhN+PdslThXmPdbaTmLhR8ijUnvRVLK3kBmuAeYt5cRZbKtyTKwLmjHaxuMW8BwAhgoOuDkPYq0Hm8iSE8jbdA+ZCz/MGLQGAMFp8CXzyfNrupxIuWw1yBiPgCvEc6C8QB9EcUuJ7IQ9VuCbWxO3gUKzPvuyILuN8AMpA9eLG2QgiTboB2vDVCMOAqMI8IjhjU90X+fRKAUfq/PXIEJEhGBu0nR/VWDX8uTZVo1FCNOZzAwEXGqpyMSlpEcg0ha2nr21wAykfS/AUgGzW7gK+JfnUxHTkjvJsy6OqBjvElGUegGY054pALXmCHMe/KhyhMnTVqaNMMazlykCCF1KC9n+okn8dSNsyHdQ/j3awyE/AuTaVotWNkXH1DV6QKsMre1pMq74cA7wFQgH7gL+ZwbkHzd04HDgHOR0nUn8F7izdTYGsWI82UlvVApRijlKlRq4UtKrf+xSK1Z0yPZ9jWA5cDryTairqhVq0arlSuV+uYbpX75Salp1yjFQBX+mxRsUwzvWPuREk428CsSz61OMS0HGJgwi5qfnkhD0iORYPwkpC/haqoqyX2OzPhtib6UTSKKYW0kk8GiEqZMhML+sKfYIDOzJsk7u1JBqi3kGAb4fFBSCuceBW8shz17kZ+HkQ+O64ArkmxlLCMQbeAKYFnEuIFUbb2JhCS+T7xpzcZmRD/DYgMSQrgeSSMbihRLfAusSbRx9UE73qTivBI5iwMByG4Dfzoa/H4wDOO1//wn1VLJQBZ2Uk+CTymo9EGvTnDOUXD/P4j4eVykGPG4wWo7OTFLbetz4OeI8alI3LcuqVS5QF493rMI6X6dLPzVjAeREuLayog1rR1FYR9FQVH4knagUn++Wakfv1e+5cvVyRMmBBG9hlRjBDAk2UbUFbVq1Wj13Xfqjhkz1Il/+INSX32l1PLPleo1WSmGRIYc7CZ1+SHhS+qrEBW1V5BWOMfW8RjXIvHfut5uaTrzWzd6xps01GwwzAovH3TpAWcdDpVegkrx5fffG0CHpJrYMFYn24B643KxftMmvvjuOwgEoG0OXHQsXDc3YifjBMXwSQZf2WF1vDuSTgWwEFm1XwOciMiJLq3jcf4BfFSP9/21hm3p1NwNojUQRE58taIdbxJQDDsMOM16BgG48BjIz4NSCY960tLAnsn7LQ+lcLtcpKWZWiplFTB5NPzrI1j1NeEmBo7bFIVLDVbFyyBIJKORxbVtwBOEf+w/IzHO2nRqLX6j6fJ7X0Iqx1oz65BMk1qV0LTjTTAKXOC8Awwzlc8LQwfDcWOgtAKre7hSWsUu4VjfeVCBxwmXngDnfy/PMQCjENSfgIeTaCXIaj7AZ0TPsPzAgoRbIyzAZrmySWA3dZSfTMXFm5RGUfBnMOZZz3AEYd5fYcz+UFZpjfLlDz9UzHvppUMff+mllcmztuWjVq0ajcPx2fqNG9lTXEzhwIjsq6x0uPYxeOU9IMN6xXbwDjX4dlsy7EVmtF8haWLTqfkk4KTmHN6TgLPq8d7/QkIbmkaiCygSiOSDGjeHRyrgyDEwZgiUhzOwDKBw2DDfY3femYoVR1cBFyfbiHrh99Nn330pHD48etwXkFhvbjvCC+pGPnhuSrSJEfRHKrb8yAJbdYyk5tbnYE7j63HTNBE61JBQHDcCXeRxAHLawsXHyYJO7AWKz2fgcqXiYsVpiB7vI8k2pM4YhvwNAjGTQ68PeneF86bEpJepPysKnjH4cnmiTQXGIU7wW+C7avbpi1z6X1TLsf5l3jQJRs94E4Ri+AFgRKSHVUq+aL/ukj8aQ6XXayx87rlUPDGWIrJ8KYXP66WyIo4mUVkFTJsAffoS1tM2nMDdKvG/nwykDT1IGKEt4bzpTkga31XAl8jfoba+ZJr60Qcp1riIRmpOp+IPO+VQ4ATHvUjrcMAL+/aBMyeF4rohHA58Xi/HXX555tvLlx+JaB9ompOsLG67/34+Xr2adx42Q6bWQlsgCLmZMOMkuOxu5NLEAIyDoeAC+PKxBFnZE3G6QUQMHOR/w9I+bgt0BtojHXVTSy/D/hwAPI2c8PohZdqTkPS9eqMdb0IY8SeRGYRQTGHGSdAmC0qqzrKUUqz/9VeD+lUVaRqKw8GWHTv4cVM1jWjLKmFCAUw6CN5dRnihjdmKwtcMVm1JgJWbgduILpl1EJ51B9ANHZsLF9Lv7QwkT/1w4G3gEKQ0u97oUEMzoxjWDYy/hUcqYOJBMKkwlLMbD5fTCTqPN2E4nE7czmpC6kpBMAh/OVHKukOJAkY+qDnxX9Tk+KnaOyxojvtJDafrRCQdUw0Hki9tFQe9gxStNFiTRDveZsd5OximupVfFtRmnCy5oTXk6qa53dCy5PxsjdvptL7z+FT6oH8POP9oYvzfuYrhE5vYHCeS5pWKlYvV4UQc1n3JNqQBeIHIy6G+yOLmpw09oHa8zYiicAoYZ4ZHvHDBMdUuqAEQDOJ2u3nxrrsqrj/nnHcSY2krp7SUa845h5fvuktOhtWdEMsqpKx7QH/Ckx3DAMf9iqFZTWTNEERt7BlE96KlcC3wB8JlgKmKEzgTuBlRhmsQ2vE2E4rCPFARZ/cKGDwIzpwoP+AaMIB+vXv75tx4Y7w2JpqmJhika+fO9Ovbt+b9AkHITIerTgOHmwjB9EHguqGe79ofODXiuQP4K/A10BGYQMsR8B4DnG0+TvWruHOR/OlGyU5qx9tsqFvAMH/JQXB54JqpkOGRH3BtBAIGlZU6aT1RBINV83jjUVYBY4fAKROInvAYV0jKYJ15AFkl745UoX2CiHrfj3RZeJ/UiNvWRlskBev/zOfN+T/d3IUexwA7kK4eIEUq2Q05kM5qaAZMEZyI6q0KOP0EGD0YiuuW4rqnqMjx9EsvpfplWWpgGJSWluLz+2mTU4f0zEovTD8ePv4GftuKmSXoBscjir5jDH6qbdHlcmRlHOAtRNB8B3Ip/kF1L0pR7gBepO7x0MOAI6hZ6cwAHkKE0AFOQFr+9EIc/c9IAc8r9ba2ek4GngW2EC4OepEGCuRrx9vEmCGGeVbHYPBC7z5w8TFRZcHVYubxHjtjRuayr746Cvhvsxqsgaws5sydy9JVq/h0/nwZq0mkyBeA/LZw5Wlwxf1E5PYWQs71SHua6hiNpIVZDEZCCsfQiJihTTkdKTRYgHzO2rgLuLKOx74bWXx8HMmnvRGJu44F5iHO+zBqLqsGcdRDkBzoIcCDSEfiyxFdjL8ji2uGaZvTfKyQzs4NyjzSjrfpuQ2MfvIwCA4XXDtNNF5L6/a7UkqxdedOSM3Um9TDMNhTXGx953WjtByOOBCmHAqvLyH8p3Jcpxj2jsHXn8R5VWdEZCb2SmYgMutdX3/jbUtPRMTHlD+tNQRwIRL3PhvRFZ4I/AVp4nkmcsK6HEmdKwJ+R7psTEJmo4vN43yHFJoMo26hmg6Iw51rHvdu4CkkZxeki/E3yOy2ydAx3iZEMeIYYkMMU4+AQ4fV2elaOAxDDqlJCIZhYBj1CA8qwB+AK0+Fzt2IaPLrBuc8Rf/YmEU6sAgpO42lGzKbakkx/buBe6mb3m97ZFZ5DCLO3hWRmFyAfGcdkVS0p83nrwH7IU73V0QLOJIpiOOti8j7OvO4lYiTPR+5Ajkfme3+VIdj1Bs9420ipFDCMS88Uin1/ZceDxWxee+1YBjkSqyxni/UNAilyMzIqFt8NxKfH7q2h2vPgMvvJSLkMBiy/k60SM1TSAwXxEuvReKenyIr5BtoOSfay4GthGehEP5s8T7jbsCM8TAYOJDwTHkgUIg48ki2I1cIHZEZ6zfIRDIb2GXe6sowRO/Cad4W1OO1DULPeJsABQY4HyVSecztgf87G9pky8yorgSDuF0uXr7nnvJ7Zs58q1kM1kRTVsb1557La/feW3MebzxKyuGIA+CUw4nWJDcuVIy0nMcCJN65FJiJZC0UIJfiixCnUdeuEXanEJlxXhczXtOXGhknPQ2ZfVqpdMea25fFvGYnoidcAqxAes99b+7XsZ42H2bed0Eq1JqdlnRpkzQUBdeDEVE6Wg6XnC56DHXMYqiCy1VMbu4Qo3fvjU1jZcJYisw2TkyyHXVCrVo1GqU+w+kEh0PavNcXlxPKvXD2HFj3M1aTZS9q6xH8d/5SSj2I87V1y/Em4h5kpr+J6CvqNCR1rhjJ4NiJdEoujdjHiZTifgsch/in5UiYZljM+5wI/M18zSxgo3n8DcAX1O/q4QPE+V5CguRMdaihkSgKjkD+AUzKYXQh/PnoWgslasEgnkyh/bEu11oP/gDkZcLN58H5t0KFD3DhJ9h5Pvseuy/f7p9sExPIWmQGGlt/nYk4xnIkDBGvTU4h0Bu4xnyej1wZRDpDF3LF8Jz5HgchzrmhdEGUx7Yj6WIJQTveRqAY1g94Jpw65oOOneCmc8DplHzPBrJ561bHQy+80CjNzySxl1S7bHY42LVrF+VeL9061vcq1aSsEkb2hxlT4Y6nAAeZONiH9MGKAxYarDyz1mO0DJ40b7H0RRayXgMuiLM9HbgTmQm/bY71R3zUF+bzbCRkMxhxul8R3+lmIw78G/P5FCT8kIZkQkR2Sx4NZCGLentr+3BNhY7xNhDFkLbgfEEUqgAC4HTATefBvl0a7nQdDrw+H8defnnmrU89dWTTWZwwpiGXbKlDZiZz5s/n6MsvF+mF+mQ3RFJSDmcfDseMJxzvVUDwDMWIm5vG2JTFSqGLN9nLQ9K1xiEZBpbGbXfz/igkG2Q28Avh8ERHQusqIdxILq6lc3EO4uhfRBzxE0BuxP5WIUtCO3Fox9sAFN0zwP1PMIZZI+CF6afCxEL5ATaSkvJyqHq5lgoUERbnTg0Mg4rKSopLS2vftyaUkrDD9WfBoIFE10M4bpJGp60WK/wULzf9GkTv1ocURFj8bN5PRdK6cpBFt8eQkEY3RKrxQaSCbDaShvYL4sDdwA3IAmYpMjvOJNzgMwPJAS5COjYnDO1464k43fznwDgiPFoOx04w47oNluiMIhgMgl78TBhBpQjWJ5uhOrx+yM2AOy6EDh2JyQh8RDGitgaULZVtSGXa4jjb1iHtii4AfogYX4Es1q1BHKiVnrcRESH/f8D/kJLhc5BiiOsJr7n0Q3KCI6s/1yGhB5BZ+NPADBLcrkrHeOuBolc6tH8OjGPDo2VwYAHccI7MdoKN1y43DIOu+fms27SpkVMwTZ1QivZ5eXTLz2/8sQygzAv7dYc7LoZL74byCmTyZTiAxxUjvAar/9H4N0sptgJXV7NtAfFzZ4NUX0K8G2lvVFOLo3bmfeQlaAnhdLPdSI+6hKNnvHXEdLrPRzvdchg0AP5+MaS765evWx1mHu8r995btnD27FTM4029VuClpVx/3nn8pyF5vPEwkHDTmP3hlgtloTXctcIAY75ixB8babWmduK1QzKQsuOkoh1vHajW6fbeB+69DDrkVi9s3kDycnKCZ5x0Uirmkz2OXFKmDkqRmZlJXl4Tt7grKYejD4Ibzzd/aSHn6wTjiVYcdkgU/0OcbOQfth2SJ5xUdKihFhTD2oDrecKrn0CFON2HroDuHSSu29RzPKdToapMvTojCwKlyJnchSwWWO8eQBYoKs1bU6d15SNxuG7m+y9HRF8iGYykBKUWDofc6qLJWx9KymDqH2QW/bcnIRjAFLgygMcUhVkGqx5o2jfVmPyKLJodCqwyx/ZFVMySina8NaAY0h1c/wJGhUfLofe+4nR75UvDyiZ2ugr48aefXPctWtQeOWtbdAQmI3GvNCTp+03CU6l8xPH1R3Iib25Cs0YAryM5lnOQWcSjSBeFUwj3wvESoRiTEjgc/LZlCyVlZfTv1atpj62Qme/pE+Tx354E5Ud+eoYDuF8xor3B6pqkJDUNZwYi03kQkp72Ljbo7JFasbgEIt0EHIvA2C88WgaDB8J9l4k4Sl30deuLw4G3spLCM87g259/vhYRko4kHSnH7IAsDMSKh7RDxLUfo+nqznOQZHUfMCBifF8k5ecewosgHyMlw8eSAqhVq0aTnf3ZZTfdxLvLl/P9YnPRvSkyHCIxDMjKgJc+gpsfB6+P6GxBNR+2Tzf4tfG5iJpY2iAlx3uR/+Oko2O8cVAMPx2c71ZxuiOHwUMzoWu75nG6Efjlkjfe32cg4lz9iIONZRdSnfN9E5pzNlIJ9GDM+C/me12OOGGAP1F3MWvbEAwGre+8eVAKSsvg5EPhzkvFCUelmhnnQf6biqH7VncITYPZgwii28Lpgna8USj6ehQFd4LzWUIBeQWUwcQxMHcmdMiTdKFmxle94/2DOf5fRFAkHq/QdIIsBmFR6BVxti817bGUuL5HciVTCn8gYH3nzYcCisrgqFHw4JXQoR0xfdvGgetD6U6taclox2uiKBwCee+BEZFrGAC8cOaxcNd0aVRZ4W32AI1hGAzYZx+QPMNYLE3XpUTHUgci9fAg1TxNtbDWBRiKeIhNcbb/EmNX6hEM0j0/n4HynTc/xWVw8GB44lro34fo3H2jB/AfxYhbpVhH0xJp9TFe0dItmAHGzUSlnXjB44GrzoAzJkm6WHPPiCKo9PtL31+xYtjkyy6LbAfTDpnltie6MaITqTWfjVQAxSOP+qmG7UXOPAchYt2/Ic49thx4PNIR92dze0qJt1uykP5AgGAwSJo7gVXaGR7YWQSz5qNZ+ucAACAASURBVMOSTxE5yai50OcQnGmwOqHlrJrmp1VnNSgKCoE7wJgQOQrl0LMnzLpAZiYl5U2/2FILnrQ0ddSkSbGe/kDE6SrEIY5EeluNQqp8qnO6DmQ1d2gd395yuN8QrvIpJX62grUY1BYRH/m9ju9hK1wulyyANUHlYZ0pr4Q2WXDvpTCvJzzyMgS9SMIKAKPA+EBRcDcYdxqsSph6lqZ5aZWOV1HYAdRVwGVgRFzO+eU2+TC4ehp0bttwIfPG4nYr/FVK4Saa9yuQmnYHksZ1BlWzGyJRiIhIbg37xO6/wXzsqWVfy1MZiMO+xLQpnjSgPVEK3G7J461s3kXTKnj98r6XnQT794Zbn4FNm5B0bQMwPMD1oE5QFN5ksKpJmy5qkkOrcryKQWngOQ/UtWDsE7kFKqBte7j8VDj5MAkr1LNBZZNgGKhgkFVffeW+c+HCLoTjqgZyWQ8iNBLZ4G8QNTf2U0iaV0OoLVZshS/KkPDEWeZ96jhel4uffv6Z3cXFHDBoUOLfPxiE4nI4bDgM7AX3vgCvLDU3WrNfYyDwgqLwdWC2warPE2+opqloNYtrihEnQfon4Hg02uma+f6TxsA/bpQqowqvzESSgWHg8/s54/rr0198++2JEVv6IsURIAtrkSwBvm4mi7aY99nEl6m0ZP42IbPfchKs9NRoMjO559lnmXr99Y3T420spRXQNgdu+zPcfTn07IJ8lVHhjynAMkXBU4oRA5Nip6bRtPgZr2LEsWBcCcah0VsCQCX06gWXngxHHSiXnMX2yF93Op0Q/Ysbg1z2/0zVWvPYy09HzGsNpHqnRx3fXiF9rDYhEnw7kIKNXKourlkxYCtHMiVP5g7DwOmwgek+v4gtTRkNBwyAJ16D594Dbzny5zcA3JL3y6mKwmfAe7/Bmv/WeFyNrWiRjleBE0YcB8blYBwSvTUIVEJOHkw7Ds46QnJzSysSvoBWE5VeL0RnIVhaER8TLXMXy2WII94SMWYAvQinm9VGgHBsdy+yMDcN6QLwW8y+VpHJa3U8ti3x+f3Wd558lJIF3dxMEVU/cjQ8+jJ89CVyTrT+NEYWcDG4zxYH7H/I4Ou1yTNcU1dalONV9M+BzFPBuBiMwtitUAGuDDhmIpw3Bfr1gIrKJukY0ZQ4HA5GDh6sNmzdut0URE8HDjY3v1HDS69FMh/mxowHgfMaYdIDiOM9mqqx5COQWfGSRhw/uQQC9OvZk91FNmsV5w/I/+bQ3jD3Cnj/S3j8VVj7I3JhEYr/mg7Y+UfFiH+Betjgq0+TZ7imNlpEHq9iSG9IOwPU2WDEzOrMGa7hgQmF8MejYURf8AXMenmb4naXvvX++/sfNXPmBkRh31pMOynisRvJ7e2LZBNMA44k3CywKbkTyYwYhrRdAZhkvtdkwuXLS0nF9u52xzAg0yOiTG98Bs+8CT9tINoBR/EOBOfBjje1/oP9SNkZr6LQDYwHdRYYxwB50ecR0+E6M+Cwg+HsI6BwAKCSk61QXzye4J49e0Aa/V2ClAgrRBfBCjukI5VlPREhm7eQYobm4BpEvX8BMut2AGORnlWpKNgejbWgZqNwUxTK/L91OODU8XD4geKAn30XfvoF+d9PI+I3cDg4Dof8HxWdFkLgOYOvUq6Uu6WScjNexbDB4DgejFPBiFMQ4Ae8kJ4LE0fCtIkwtK980orKqnr0dqVNm+JvV64cPOT00/ci5brW9NxNeIqjCCUfEyQxn64zsD+Sq/sFVePNS0m1GW8w+Bkej3SKKE+RyaHTIZVve0phyRfw/BL45kfk3yC0CBeBKgXeA/UcqCUGX+1IuM2aECkx45W0GcckUMcBY8FIi91D/FIAOuTD5NFwwqEwoCcEgpIUnyoO18zjXfLOO2l3LVy4D7AsZg8vyS3L3WreWg5uN1+vXcv2XbuYNGpU7fvbgUBQ4r8eF5w0ToR3Pl4DL34An6yBYDlyfrbWZ40s4DgwjgO1XTHiXVD/Bv8yg2+3Je+DtE5sOeNVDGgPGcPBGI/EEYdXdbYQErHBBQN6w7Fj4IgDoVsHSctp4nY8CcHU4x1w0kn8snnzDcAtyTapniwl1Wa8OTmfXXjttbz56af87/XXzQ2pcqY2cRiQ7pHCn29+hleWwXtfwK7fEefrJv7PXe1EtDjeBvUxVH5v8J1N0jtaLkmf8Sr6eiCrCxiDwDka1IHACDCqafkaRGa3QchrD4cMgSkHwQEDITtDih9slqXQEDI8HrBBU75WgVKkud3Wd56aBBWUVUiselgfKOgHfzpGMiFeXw5r1oMqQxywi7ATNtoDx5g3P2T8pChYCSyHwNdQ+YPBD6nXysnmJMTxigLYkDZAW0jrBaoX0slgILAfGL0IVUDFOysHCIUxPTkwfBBMOgAOGQo98uUdWojDtSirqAAbnBhbBYZBpc9nfeepjTJ/CwAd28A5R8pi3HcbZAa89Cv4ZTOhK8VoJ+wCBoAxADjL3P67ouAn4CdQa8DxC6ifQW2BwF6Db0oT/RFbAk32w5aiheH9xYka3YEuoi2qupuz1y6g2gGe2iMcQcLO1gG5eSIgcshQOGgw9O4KaW4JJZS1gB9LJErhcDg4fPTo4DP/+c+mCl8KhktSDZ+PEf36oRKpTJYIrDxgw4BhfeH/t3fe8XKU5R7/7p6WetIJkRAQCJEkEGqokSJSL02KFKWbi8JVUYp0FEQpihAEKQL36kUBpYmoV4ETCFIDGAGpCYEghCSQHNJPcvb+8Zth9+zO1rM7M+/u8/185rNnZ2Znn7Mz88z7PnWbcfCfB8E/Z8OMWfDky/Dme549OIHUQRNZ9+dwSAwHdshQ0ACfQMuHKbb+APgQUu9AYh7wPqTeha7XzHacn6rZeFOMHwB9ZkGizNYlKaRk1yKFm4SWfjBmpKZMO2ymi2bUcGhtVg2FrjXu2eDKpbV16Stz506YcMAB7xTfOVY8imy8h0YtSCmkXn95Mp+sfJqmJimoen/QJZPQ1qKoiE+WS/HOfA2ee02j4g8/RgErCaSEk95Srqro/lGCF86trvD1QxWnsq8sgy3nQ1OW4k1lvPrKNeW9NgFtMGIYjB6hykybbwTj1tf7gf21r69s45zwUG2SMH5FW1OqvOLlkXI3cALJJJC8je6mw6MWqBSeebWFiRvBmjXRFccJk+7udL/ApqRmkluNheP3hUVL4K1/wytz4ZU58MZ78O9FsGwZ6UCaBGll7CvkoN8tGdStxPComuJNQCo1YMBiln6kd58q3GYFJPRrg6HtMLwdRg2DDdeFMevAmHVh1FAYOhBaW/W5rrW6EZbVj822bNrbu3jsvgGw6cMwYL2oxSmFw0myIyvXg0T3aNpezaqqFUO64MTL+zBqEJx3kuK+P1octVDh0Z2CVavTA9z2ATB5M9hpohT0spWwcAnMWwBvz4d35+t1wcewsBOWLPUGQ6tIn+skiiNOmeItQHWdNwfulGDOPBg5AtYdCusMhmGDYMQgKd0BfWFgP2hpVvhLKiU71NpuWNMNXQ2saH0SCbq7u/nvu37btvbBB8afTL+NPZu5A6QYTR//701iGq2YQSusXg1z5/Pk9BnMW/UBh++4S9RCRUMKhaJltrdqSsJnhsuBPWUL3a/dKY2Yl66AzmWwYInaFy1cDAsWw+vz5vDErNmQfDOy/8UBqnpnpF599U90r9mH5ub00btTUqzd/pKqf/tsb0gm6V61isEH7s9xH6y4ehrj94Xuz0UtVv3SDS19mdr/PR4a0s28ex/QartG85NMyFbsvzYl02aapuZrEhtt8u1oBYw/pYx4+yM7Y8ErccSIEalX/vWvljHrrkuq3h0UtcRLoGhv68NsliVXsmZVEyw3NVAbEgmamvu2trW0tdG3dS1LP1G54ZQp3rJJNjWxoLNzwBYjR/afNX9+PuNv3Emh/oI1vQBK+WGeQjVXiwmS6tvWNrx/37520VaBjzo7SaVS3ZvS2t1MU7M7Oc/ukAKSTUla+/Zl7upldKbWsP6IdT7dZpRHMplkSWcnizo7F+Km0k0Ai4DtUB3qmn5RMY4n3dm2EKmvHXzwyM3Gju2X6uqy67ZSkkm6Vq9O3Hr//aNef/fdtwHXwslcww+x2QgYDLwQrTjO04S7iT8J1GvpVuQxNAzDMAzDMAzDMGLBDcDlUQthGHEmBm1VjQCaUNcJF4NKt0SF0l3ji8DXohbCMIzoaENe1R9HLUgFTAfujVqICrgF+HfUQhiNgY1448snqOWPa/iVVVxjBfrNDaPmuBr20QgMRCNf1ziVdH84l+gDDIhaCKMxcKbyVYORQIrgCcC1nPf5gIuNFNuAt4HHIpbDqC6TgCnABNR+IxY1gl3MLjEMwyjG0cBUNHB5EZm/dkclEE4HXo5ONMMwjPqiHbgL+BjYP2tbEvgLsBC1HTMMwzB6yWDgcZQGvlOefXbwtndgplYji2bgAmCvqAWpgK8Dx0UtRAUcDJwVtRBGxTQDDyGlenaB/dYBFnv7bR2CXIZDtAGduBnH+xzw56iFqACL43Wb85AyfQ0+rcYfxBDgA2/f42svVjAuxls2Cp24Gce7FFV4cg2L43WXsUjxAkyj8H0zmHTYYCEFXVNM8cYXV+N4XcXieN3lVKAvMiH8rsi+G6DIBogwtMwSKOLJGuAirDZsmPwehR0ZbtEXOMD7+zFkRijEbt7rWuCNGslkGKHTAdwTtRBGwzARDVRSwJlF9k0AM719/4ESKiLBTA2GYbjMcNJhYa8V2XcKsJX39y+JMLXdFK9hGC7TnfH3wiL7no1Gva+h9j6RYYo3njQDP0WxpUY4fAX4UdRCGGUzD1jt/V0oIWJvYD80yp2Kom8iwxRvPGkCTgK2j1qQBmJX4NiohTDK5m1ghvd3vgL86wI3o9HxCcSgEJIp3vjyCdbpNExWEvEoyKiIbuAcdO7ORjbfTCYAj6DwzC8D/xuqdHmwcLL4MgBojVqIBqKNdHynizShEKlMWsh1IDWjKACfJD3tpC7yDPAfwHUoa/IBYBFqQ7WLt/1iYE5E8uVgZSHjSROyOb4CPBuxLOXSAXwEfCliOcplCrA+cEfUglTI5sC3gQ29928jBfRHeira/YHDUSLBXOAS4K2whKwxCVSv4RMUtQAwC3g/YN9BqL2WYdQFHVgcb1Tsi2JUUxR2zF7i7eNiM9V8NAHXo8iGM1HYWL6B5XGY49qoMzowxRsVA1ChnxTwhQL7PQtcE4pE4TAWmRhSWcs7wE3AkcDOwBHAb1BdBzOzGnVFB6Z4o2QGUjpfz7P9S8jEMCg0iWrLSJRefwiwCSqlejlKt89WxP9EJjzDCKQFuA04KmpBKqADNxXvVOCGqIWoAr9ESubqgG19gNdRW5x6Id/INQmMQ/bs44DtsMLnRhHaUOuSy6IWpAJmIKeOa9yEgvFd57tI8T4YsO1C4OFwxTGCMDtHfFlOOiPHJRagh4ZrrMLNOsLZ+PUKNqBn6NgY4GRgnxKPM4Hy0mpfQkk/RgmY4o0vfYiwelIvOA6NuFyjlQgLY1eR2Sgud33UbWGBt/4KlDzwSonHWYYqeZVKbGJkXcDieONJEgWEz0YjCaP2bI1SSx+KWpBeMhh4FTmdtgGeR23Np6EU9GURyPRFVAfD9USNUkmispN5ZwA24o0n3bhpJ3WZ56MWoEosRg/skWjU+zxwKQqhikLpghIaXqOxFO87hXYwxWsY9ccbwI7AKOAY1OLm/jKPMYR0t4ZS+AiYnmfbU95ieJjiNYz6w3ew7YfidU+u4BibUF5BmWcoT1EbRuxoAe4FToxakAqYhpthcKfjbp2GbA4hnTTwzQqP0QS0l7G4XGAodGzEG0+SqD5sqR7oOLEdqgzlGp+jfmoX+E0cn0X1CyphLdBZHXGMbKweb3xZQc+qUq6wCjfjj7tQTd64cgbpymPF+AA9/M7EzWuo7jHFG1+acfP8NOFmamaS+M4ApwFXApuVuH8nKgiTz9llGEYASVQfdqOoBamAbYBJUQtRAZ8DdopaiACuQbbaE6IWJAT60SC5BQ3xTxqGo1wCnI8KnNdTGccgzkWteXZAZra40Y5KSw5CZqkkaYfiauBF3PTJGIaRwcVopHt6xHKEwfYouWIeGvXGkVY0k3uKdMTImahB6m2oPsl01G7IcJgm3LTxukqS+Nim/QpjF0UtSAgMAv6KmlXOJr6K1+cGdG7+krX+bG/9myht23CQVlS+7xtRC9JAnEtwKcWw+Ra6gb8ftSAhcQNwCqptEOcRL+jBPAudn7Oztk0mPRLeo9iB4urFbXQSaFrzZNSCVMB3UU2AX0QtSJmMASZGLMPJwM+QPbcRRrtHIdvpL9B1U4wNkB24WPeMR0jXHZ6EitVMBNZBdSN+633nqjLlHYecsCly6xpn6tI4hyUaBWhDvbNcHPU8i/pfucZ1pBMPosAvp3lthDKEyRjgcVRPAtTpuNCI90Ck0LLb+QQtX/U+cyFSrreiiJU9gQ+pfEZxCmlzQlvWtku9bS8CfSs4thED2oB3kYPFNTpws/XPtaicYhQcgW7a2yP6/ij4HXBYxvtCincr4FFkhvk++q0uBY5H/dVS6F453lvakVMyBdySdawfoqiEH1Qg8++9Y2a2iBpM2r77ErB5Bcc1YkIC2AL4TNSCVEAHbireqEwNB6Gb9n9oHGfqt4CfZ63Lp3iTaDbgj4zPQqUvfUfoeaSLvWfyKvpdt81a34a6a5TbZGAQ6Q7OM4D7UMW3F4A/AV8DBpZ5TMOoGh24qXijYG90I99P4yjdLZF9tD1rva94s6fpmbkGTSjywS9mlPQ+d2fA9/wa/baZldl6U8hnN+94H6P/4RLvvXXeMGJBB6Z4S2F3NOX9A4piaQQGosiRoAzBN5HiLfRbbI+U3YHe+0ne+2MC9u2HRqIp5Hd4DngbdcOoBF/RPppxfH8EvF+FxzRiyAByDfgu0IGbircP4ZU23AVlOz2Cm+e4UvZAimoWMgVkLqvRg+h17/2OAZ+/FlhCerR8rne8z2btNxYp3QXIFDEFOBQp7ErP8d+97zo/S54UcFeFxzRiRisqLO1i1lIHbireHyDZa802SHk8Ru50u97ZCkUyPBuwrEQRCDO999tlfbYJVV37Vca6DjRS9u29CfSbvkDa4VYNNkAhkil6lg6djDLuPgFGV+m7jAhpQ2Evl0QtSAV04KbivYHa2+smIaU7k8ZTusV4E0Xy5LN1n48U3+7e+/6o3VDmtXY8ah6QQqPnjfMcayvSynozZAc+gVxl73O0d8x30UzUJ4EGSCnkMCyZRjHou8ha3GyT7ird6DevFeNQmukcYF+syHg2CW8JMr2ciQYhL6MRM8AwpAQnAJsCX0GRD3O97UmU7JDNVBSP240U8y/RYOFB7zu2D/jMXt7rEyi12cePRgHVbDAcpw2NAM6LWpAK6MDNEe9PUdpqLRiLHDGvouwpI5cF6GGUbYOdQjox4pSM9f2Rs8zf9jIwHI1k7yQ96r0dOBX4jrf+bmCod4xb6NlX7gJ6dvduQtXS1pCuzzCInpEWo5CJxG+zVFLyRFyKghg96Ube7hnEs0ReIY5HMgeF+MSZ51FQ/5IqH3c9FD7VjTzq71X5+PVCXzRt76DnzGMQioK4FyU/+C3iu5A5biJSiCcB7yMFeA9qr96OnHQ7IOfp/Ui5rkAj4iuBPyLHGSgZ4jQUY9yFRsz/gR6YT3nfNxApfD/deCmwEM1k2r31s3v3UxhG+XTg5oi3FqyHvPTvIQeNUX2KmUvzbe+LFPXUjHV7IiffqMBPVBErkmMYtWEYCmkajILv5xbc26iU7gq3p/Jsq7WtHzDnWlxJIFvggGI7GlWjHRhRpWMNQ4WC1kOxq9aZIH6sROFpmed8CEriqHmXbFO88aQVZcicFrUgDcR5wENVOE4/5KCZAOyDCqcY8eS39IzL3Q7ZfGs+4jVTQ3wZRryLQtcbA0l7uytlAFK6W6F402d7K5RRU6ahML9DkSmoPyHFztuIN774cY2u0UxjPtBbUFTErsgT/nS04hglsBJVFfsART2c4f1dcxrxBnGBFDAfpSK6xiJUwck1lhBcXrAUWtC0dU+UHPFItYQyak4KJUYYBglk9HfRuTYEN5v9DUQB+JVwF7qBD6qeOIZhGEY+bkFK9/CoBTEMw2gEbqRnjy/DMBwmgQp4DItakAZiHXLruhbiSqR0v1YbcQzDCJs2lO99QdSCVICr0RhXU3rMrd9g8dTaiWPUMxZOFl/6Un5DvjhwE3BV1EJUQCsKKSrGuajh4lnkNmw0jJKwcLL40oSbD8aJhJByWQOS5Fbr28R7fdN7PQdVyDofmRoMoyJcvLEbgRTqnlppXGmU+L2zXGM+ueX8zgT+hiqLnQxcBvwIKV/DMOqQ/rjZfXY6qp3qGm30TNEeirKYUqiI+Wrg0gjkMgzDKMoElP/uOqeR7m6QQgWvx0cqkWEYRh3TBvyLnoo3hWzXu0UnllEvmHMtniSBLZCN11rFhMMGqM3MLODL5DZKXItVG3OFbYGtURr4UmT+ejVSiQwnaEN2xe9HLUgDcR0a5fZBhcv9Ue4q4Ffkb/1txIcpyBn6e9TmfV8Uaz0LnV8XfSZGiJjiDZ/rgOeA/yKtdO9Doycj/pyN2vYEdeaehM7nb3AzuccIiTbUudRFL/o3UeiVa1yDbLidwD+BA6MVxyiDy5BiLRTm94C3z8GhSGQ4y93A0VELUQFPAw9GLUQFnIJieS9AWYOGG5yCFOpMCvusfuTt9/swhCqGOdfiyTiULTWBkFqRVIkUsC5yUn0fdxJ0Uqil9z9Q8sdAYEWkEhmlMBH4iff3BcCaAvumvNdNUIZizfuqGe7xc3JDmWwJb9mm+CkyYoBvPphJ8Yf8bd6+s8hNDQ8dV0YkjcRg4JCohWhgurHRrgtMAvbz/v41Om+F2Mx7XUgMRrumeOPHz9C014iGJG7a1huNA9HItQv4c5F9NwQ29/6eVUOZSsZsvPHiu8BxWevuAx6LQJZKORVYjqZ2rnAkMDnj/XnI3nt3NOIYJbCl9zoHFZQqxP6k63C46Pg1asg+6OmdaWt8Bvc87H8D7oxaiDJZH1Umy/ztl6DsQSOeTEfn6W9F9msGXvD2fZaY1Lg2U0M82Bi4ndwZyP24Z29sJiYXdxm8i37rTNpRwP3Q8MUxSmCV9/pRkf0OIT06Pp+YlCw1xRs9/dENPjJj3RrgcXLrwxq142U0w8hkPHArlu0UR173XvsV2Kc/6ezPK4G/1FQiwyluJzec6awoBeolHcA9UQtRIQngBnLPx0VRCmUEsgs6N++gTM8gbvX2uQkbZBoZfJfcm/yOSCXqPR24q3hBRXIeI/e8fClKoYxA/E7Pl2etH4XuoxRKu7cZi/Epe5PrTHseZU1VwuAqydVbOnBb8QKMAebR89x8jDKl4kp/dO00e8tAZJ/OVjqDgQEZ+5TS4DPOnIHMRB1IEd8APImuwR2jE8uIIxuTbivjLwtI14BtQsU8Ng/8dJqhwFHAX1EuehzowE3Fuy1wQMb7XZEDJ/MczSI+D7hsxqNR3mwUXnUHipTJdtjuBfwOeBtFn2wYmoS14whUWW5nYFNgWJ79RlLYJmzUMX2Bp+h5Q6+h503fhkZYQdWWhnn73oK88f4xsqdbUdGBm4r3JvR7ZpLd/ieFlFZc2Za0nLsV2O9ilL21ce1FqjknoZnjdDT6nUxwfsJOwA/QaD9yLIEifK4Dts9adwHwh6x1S9HId0OU7rgVuni2QYVostkJOeXCPKcrkMJaFuJ31opVKPEjk+tQampmmctDkbMtjrWSX0bOpjHkj/9OolnSeRRPPIgzQ4HvAcejUp6f9xbQqP9hVMMBVCAdpJiXhieiERe+TWnONL8e783AsWiU9WHAZzOX5chcEebyOjAiS/YO3B3xzgtY3wf4Oz1/627goPBEK4tHkIzfyrP968BLuBdrnc2hqEXTYKSE9wB+jJRtpu9kNhqQWPeJBmVPcp1pL6JA/WxakNI9PGNdH9RH6tsoN70z61hXk3ashLlk8wSqGuUaJ6MRbhAboI4gmb/3QuLZdfh6JN/PA7YNRQ+XPUOVKHw+i2aAE4hBJTIjOsaQe+Muonc37gaoTY0/Gru+lzJWi7vRQ6Pe2ANYTc9z+ALBD84o8e3SQckC1wO/LeNYyTIXo0Qsvq329EH55DtnrEuhqdK9VfqOPdEo+U8l7DsAOee28T6TRM691SgkaRaKkphToSwD0P9XD3bfbL6JWgRlcgdwTASy5GMvpHRfRfbp1d76SSgteic0CCjG1pR2PfnMJF2m0SiCKd7aczO5PcguILp+agkUvzkN2Y9B9so5qJPuRchu9j0UE2n05FbghKx151O431eYjEVdkld5f7/vrf8rqsyV/eDIx0jKSxqZT2Hbfj3rmlS5H6jnHyMOnEvuDXkPcBiFT1YTKg/5MuphVguuQSO4h+lp8/si8H8o3GgLdBM3Arsik9CviuzXDzmwsiNTTgZ+WQO5ymUAalM/GtgBXT9HAKejNNsoioDvj+pMFytW7iJJdM38oJwPWThZ7TiZXKX7kre+2BOyGTnLrqc2ijdJOsTm0axtbyMnYAuanjaK4v0KmioXU7zLkWlhBj3D+m4EFhNOM8V+6KF5O0rEyWQpChMb7S0z0QDg60TXeeHfyGzRTQWjw5jTjAZIZX/IqD6HoxsxkwVo5PFxicf4hHTpu2ozFqW/BtUz7U/aE1yKLbBeWEnpMZ5voeLpf0S/F+g3uwPZ7mtZbHs0cmBuj2pKZCteUKPUXYHPIAX9NEqjLYf1yDWpFOI98he/f8FbDKNmHIISCzK938sonEmUTRsqxF2rNGB/1P0WufGc13nbHqWy2McbUc68a9yMlEc5HEZ6FOcvndQuXGsykvEDejprs/GLL81AGV3rVPBdW6Lro9QlFm3TjcbkEDRyyrwR16JRUDk0A1eg+/CaOAAADBdJREFUvlK14E4k210ow6kPinL4XyTvPQRnx5XCU2gk6BpHUZnD80Ryk1mW0Hvl+3lgUMb7I5EJ6DkUSliI/TNkObKXchhGrAka6a5FueRxYiAaNaWQk+h5lGb6AVI8k/N/tCSmU70wOVc4nWDlu2+FxxuEEjRuRTOSc0lnOZZSa2Cct/9DFX6/YTjBoeQq3RRq/Bg3piDZlqIp6G7e+8VUp/LWDHLb6DQCQcp3BZXV8b044xjPeK/l1IYYiuy8xarbGYaznEBuKnAK2dniyEVIvukZ657w1p1ZheNPQqmajch3yL0OVlJegsXGaLScnQ5eDs2kS4waRt1xJrk3WjdK5e0NzUhx797L4wTxOLkjqP/01v2Dxo102Y/enzcIVr7dKJyrFO4J+PwHKOPMMBqaBPBTgm+wath025B3/MdVOFYmo5GJIYXCjXzWQd1aU6TjexuNW6he+NypBFeQu6DI547M87nl5C/gUy98BTllXe+IYdSIISh0JmhK+eUqfUcbqiJ1cZWO53M4kvU9cou7/Le3rR4L3JTCNOC1Kh7vBHKL6qRQGnZQScb1UHqvv99qFGM9leJRDK6zMYpb/xDrEGEEMAmVcsy+mRahHmrVolZxvLcjeYOcX7uT/l8GBWyvdyqJ4y3GIUihZF8vfwLWz9gvgQrb+A/Fq1AcbSPQgqJgulA8sCleowfHkZ6OZy5voBjYatKMitRUKxB/IMqa82V+HXW0yGyL3YIqWvnxvZtU+F3fQF0BXONAauMQ3ZXc/nopYC7pdk8/RGaOM6gs2cFlLkZ1DmahWV6tFG87Ktrfv9iOYWBFcorTjjKxpgZsmw58ldxeXXFjNEoxTaLY4hZkQ34ShZH5bAlshJIq5njbU2V+17No1LxP70SuKyYCvyG4S/EfUD2Fq6jPUpqF2B097A5BdUz6o2aV2S2YfHZGCSvFwh5/Q7o33kHo3h2OHmqtwH3Aheg6NWLIjijHPMjhcSP5+1o1Mh242fqn1oxASjboWnqCxmtFPghdK37o4VsUHvH+F8G/XdByMFKwvt/ie8iGvjGa7aWAa0uUcwia/e1Gut7wIDSr26zEYxglkgTOJjgpYikKvyqFLWi8qWMHpnjz0YRq9wbFfa8GLqFxHuY30jN8r5Di/QK6pvZBpqwUqjeyM+m6FMd673dGJrQrvPXZaeDfQXb000qQsQmNxv0H5k3ofv6X935GCccwSmQS6YaB2ctMittzR6CA+T+iSIdKRjJNyO7nYkX/DtxUvEeg5JIwmIJipoOusefpGepXjxyB6oVkkk/xJpHy8x9Il9OzIttPCDb1vYl+zy0Ctg0pU96TvGMdg0xCJ6OIkzPKPI4RQB/gHIK90CnUPHBgns+OQSflDlSJP/NzlaZtLkYjINfowE3FW8043lJoR8Xog661tahw+LAQ5QmLMaic5fpZ64uZGkD36HzgF977FhSCF1SA/go0s7gI2YQHIpNBJc67n6OZ7tXIjNFrGjVLKZu9kZLbLmDbeygP/+6MdeNQdf8dUVGZceQ/obcgJVpOM8AkusiO9mSKc6fUBHAeteuUERYr0EM3LDpRC/a/oVHb2IxtSW/bAUhx/DpEuWpJK5rJXUbuKLXbW/I51kAdNNZBUTege2NdZArI5lLkzLwYJaa0IuV7DGqDVCoJ73sTyBx0XxmfzUujK96JqPLTUXm2341sQvOy1q/xlrXeayG6StgnmySyUzV73xFV54BSqYeWLn0orfJXtfkDih65lFzfwUaoI8axKOTKdZviZFRQqg1FGmRGVY1C1/0D6Hq/CIWYZfJVlGTxd+/9Ad6+z2TttwuKyx6Okpr+jgoHrUX22XLYBDnR1tC4yUVV43No+rCc4KneOyiFsVRGI7vV7aRLLvpLpS3cp1L9+OAw6MBNU8MXUKhSlOwL/JP85odf4XbFsZ3Q/fFxwOIPMBZ777Pt3P1RUtG0jHVPoTA0X4H3RV035qLf7BtVkPkE71j1MuuIhB1QexK/XkHQxX0jlRcBB9nljka1UCt1rrlMB24q3rgwEBUwyneNLkd1entbNzkK/Jlc0DIbKeUh3vts09yN6P/f1nvfjkxDmZ0vvgWc4u3XhezJQexP2nw3DJXuPJRcuzMoJjhF7bqK1C0jUdbZw+S2aclcOlDV/3IoZrfdHEU5NBIdmOKtBhMJrgniL12ot9sRlO+ljyO+c60ta30LavqaQiYZf3S7PupJ+B7qjH0RCk+bTPo3OjnrWH600FXecYYDf0Yj8fEolT4zY7M/cubNo3HC/ComiZxdJyIb7QIKB1u/gEaopWTx9UGZMD9Etjk/DvFC7ziHVeufcJgOTPFWk72RbbfQNTwPJQscBXw2GjF7zQfIxJDtpP4i6f8z8/5qQ919/W2P0TPkzF//NCpMdDO6Nq8lXaToCno6yy4H/ifjvV+/JLtxbcPThMwCU5A953ZkkM/uexa0PIecFuU0dGxFmTYPesfYHwVi+zal63v5//i0oIvl8CodL0w6cFPxnkD5BcfDIomUjl+wvtDyCUrbvhHFn+6AZl1xLw9wO+r5lz3i/Swa+QfV0dgNFRy6gFzH6K7ofpyBrsmr6NkgNIEU9zkZ6w5F4Wl+acrDUPGiQo1F65Y+yA4zHtgLjWSvQCdjFsGFa/Itq5HSPJDehWjd5n3vN9CJa0cnqTe24UzakJOhVl2Ga0kHbireWlQnqzZJNOP6P+SPKPW6X4iSf+5Es7WvImfiOOTtz1Z2jUAfFLedGUmyJxq0Ves+zkucwslaSdceHYbsL0PR09qvKlRJu/EUUtD3ImX9Ui/lbEI2oYXowj0HOTx+V+hDFbAU2bCMcFiJfvM4043skPejiJcjkSIeW+hD6H4aBmydtX4VGiEvRGFaH3l/LwJeoee0u17JDoVMhfGlcVK8bSiJoRoNFz9EdXMfQQHqL1K9WNhNUXzlSjSCKBTw3RsqfdAYldGGW7VgZ3rLhcjT/wVkk5xA6RlvfkTBcHJ7tL1EfSveVehBk+mYHED6AVRT4qR4lyFHWLmKdwHKgnkJObhmoiDphVWVLs0U9Ls9TjqQu9p0oSnQ6zU6vpHLrcjD7Ror0LX4OMrSGoUiIrZBZT7HozjzciMfwkyfjoIUMjtmhuVNAh5FJsmaEifF203wqHQ16SnQh6hO7BxUBOMNZJebH5KMIDszVM+RFkQ36bRI12gmXtdVqTwVtQBV4n1v8dNiEyipYDQySWyEyiNuiEx4w5FSzj5nXSHIGjVXIn/NFDR424TcamY1IW6ezhNRAPnHSNEuQPamJcjZFHXq7EAUb7gGXcSNVri6FO5F5+qEqAUxitKCZpiDkXnCV8SDUaSOi07SchkM7IEeNDOp/5G+k3wei+srRjv5q7gZhkF5FbMMhaFBlSoUFaAFpSoeW+PvqQWdhFvlq1qchqadhmHEjG1RIZM+xXbsJW3I3HJZjb/HSHMT8e+dZ9QJLjpBouS5EL9rOY3h4IgLq1GEgGHUHDM1xJdW4l0Avd5oxuKmDaOhSaLiIOOiFqQCrsNNE8nmyLttGIbhHE+hRp+GYeTBTA1GtVmJ1ZgwjIKY4jWqjZ//bxiG4RStqHXQ1KgFqYCtcLMv2Fn0bCNjGDXDwsniSQLYHhX9cQ0XZQbVL9i26F6GUQXM1BBfVlF+W3ijcroIoSqVYYAp3riyChUGWhK1IA2E/d5GaJRSnWwasF6tBTF6kEDT3vnAOxHLUi7LkfyudWXdCJVHnBm1IEakdAKnUuPKg6XYeIegcnGhtMQwPuUVdH6GRy1IGXQDB6Bp+zO4NaNaiB50Lv3eRvVpIX7lcg2jKI8Ad0cthGHEGZdGJIYbJLEaE4ZREFO8hmEYIWOK1zAMI2RM8RqGYYSMKV7DMIyQMcVrGIYRMqZ4DcMwQsYUr2EYRsiY4jUMwwgZU7yGYRghY4rXMAwjZEzxGoZhhIwpXsMwjJAxxWsYhhEypngNwzBCxhSvUW2asLKQhlEQU7xGtVmC2qcYhmEYIdEODIxaCMMwDMMwDMMwDMMwDMMwDKMiElh7bMMwjFC5BfhJ1EIYRpxpjloAo+6YACyKWgjDiDMWx2tUm9VAV9RCGEacMcVrVBvLXDMMwzAMwzAMwzAMwzAMwzAMo275f6OT4DxtNfkVAAAAAElFTkSuQmCC;" vertex="1" parent="112">
                    <mxGeometry x="33.94" y="30" width="212.12" height="240" as="geometry"/>
                </mxCell>
                <mxCell id="116" value="Flat Sheet" style="swimlane;gradientColor=none;startSize=23;fontColor=#000000;fillColor=#DE7A73;strokeColor=#DE7A73;" vertex="1" parent="32">
                    <mxGeometry x="370" y="240" width="430.00000000000006" height="180" as="geometry"/>
                </mxCell>
                <mxCell id="115" value="" style="shape=image;verticalLabelPosition=bottom;labelBackgroundColor=#ffffff;verticalAlign=top;aspect=fixed;imageAspect=0;image=data:image/png,iVBORw0KGgoAAAANSUhEUgAAAgAAAAC1CAYAAAAp4EcVAAAABHNCSVQICAgIfAhkiAAAIABJREFUeJzsnXd8VfX9/1+fs+7OvBkQIBCWLJENIiBSGSoUEXGVKrQqre3XUf1Wa4f92v7a2mq1rS0Wrba1agWRVRUEyhIEJCh7hpEQIOvmZt17z/r8/nifk1xCwsxgnOfjcR/knvE5n3MSzvv9eU8A8MPBwcHBwcHhqkIAwFp7Eg4ODg4ODg4ti9DaE3BwcHBwcHBoeRwFwMHBwcHB4SrEUQAcHBwcHByuQhwFwMHBwcHB4SrEUQAcHBwcHByuQhwFwMHBwcHB4SrEUQAcHBwcHByuQqRWuu7PAFwHIBEAt7bZ9Qj2A3i4ia83EsCaJh7zYrjU5uPg4ODgcBUSaMFr/QXACQAxkOBv6LO8ia/ZC0BhE495MXhAz8DBwcHBwaHVaCkLQH8AfwPQF8BnAP4OIBnAtwAcATAbgBukAOxv4mtHAaQ38Zg2MwHkAvjyPM6JAMhonuk4ODg4ODicO81tARgIYDNIuL9Qb9+vABwG8FwTXm8AgLtAZnYA6AhAs36+HsBkACkNnNffOm9IA/sGAbjbOh8AZABTABQDeNUaszH6A7gTwIS46xrWv6MATKx3vAJgmHXOuHr7+oGUmX715jnQml9v6/uIeucNs/Y3dG8ODg4ODlchLWEBmA4SUJ8C+N96+54BcBuABwGsxMX7xWcBuBlkZs8DcBJANQATFHeQDaAHgHtA7ohV1nnfAykMbgAigKUA/mDte9Kavx+Abs3xfZCADgC4wRp3QQPzeQFAV2vcKmte80HBlz8G0M3afxeAZ0HWkAkAJgFIs86bAOAxkMXkf6x7SQKwG8BGAE8A+BpIKckDxVJkAVhrzeE5AF0ApFrPYjOA35z1STo4ODg4XNE0dxZAMmi1GgMJrIaIAmgL4JoG9n0DwFsA/gFyG9iftwH8tIHjfwggDOBHANaBBLYJsj70BZnr14BWyHdY50wEBR2eBPAogGMgoQ8A3wUw1dr3fWvf9wGUA3gHQBkoZuGXDczlKWv+tpVgqTWOzbUAPgewASTwp1rbGYB9IOVoLYCHrO0hkCAfCXIjrAMpMg9a318ExRZMBtDeOucRALcAKADwOIAakOVibAPzdXBwcHC4imhuC0A6aDVaCuCrRo6xlRCzgX0VAIpwesdCASR861MJoI+17z1rW7Z1/K9Aq18AuAnkGgBoBZ8E4P9Z5z4EUhgGgsz3XtCqvTOAfwG4F6QgPAfgT9a9bWhgLv8D4GPUCfB4OIDnAWy3vk+yrgXUWRIeAlkjPADuByk+Ishl8g3rmD9Z87OVmU8ADAXQwfo+BfQM14LiDr607msygGUNzMvBwcHB4SqhuRWAGpAAcqPODx/PFJBf/CQaDv5bZH3OlccBfAfAJpCwnwgStgx1wh8gy4Bs/ZwDEqJ/BfnfHwfwBUgh8YEE5w9BwhcgIXoC9OxY3Pb6pIMUhobgqBP+AJnmvdbPjwB4AGQFyLX2JVn7GMj6YJMBci3Ek2/dE0Bui3SQ1YKBFKFjIFeBg4ODg8NVTHMrAPkgYfxt0Er7n/X2TwetxF8CsLqB858AmcbjXRUcNO+vrHHjWWF97gcJ7X8BuK+Rudn1B8pBZvqJAFzW2NXWPmbdwy0ghcGFOoHbydqvNzK+BmAMKLbhbDBQYGA26Jnkx837hzj19xRvDQmBlKt4UlBnTWEgZeZOkHIDAOo5zMfBwcHB4QqnJYIAVwEYD2A0SKAvAAn9qaCo+rcA/KCRc2eD/P+2H99GQF0kfTyPgMz/SSBBzeOOj0dE3b2vBHArgN+BVtz28W8D2AmKHfgzKHaAgRSBfwA4BIpt6G3dy7x613gB5MevBFk4JABbrGvUn49s7feCBLUMCv4LWh9byRDqnfuVddzroFgEDRQEacdbLAYpFC+B3BQuUMxF/bk6ODg4OFxltIQC8C7Ij/0IyHfdFySoOoEi7RsKoLOpsT7nyh0gAecDmem/AQqcO1DvuOMgBSHdml9n0Cr5WtAKuQakADwPivQfYx0Ts/b/wxpnJSiVz43Ther/Wec8CArCs4V4bgPzKQKt5neDXB5fB9UYqACt4G2hn49TAwlfBfn7bwEFUlYAWA8g09r/PEgZuhlA97h7X2I9JwcHBweHq5iWrAT4FCj97u5mvMZk1NUAsBle73sv1AnEeG5D4xHyk0CWjPoMwOl59/EErXOvjdt2Q71jeoOUBZseqKsBkAhSlgAKUuzawDUEUCogQAF/DcVNTLWOqR9Q6eDg4OBwldKSCoBD09IX5GaYDlJo3gSlQd7YinNycHBwcLgMaK1mQA5NQznIxD8Z5IY4AlIIVrXinBwcHBwcLhMcC4CDg4ODg8NVRnNXAnRwcHBwcHC4BHEUAAcHBwcHh6uQ1lIAuoIa8GSe7UCH0xgCSi10NcPY3wTVRHBwcHBwuApojRiAOwEcBOWnNwc/B3UfvBiGggrpvHYRY7wCYBuorO8eUL+Bi+UnoLLJDTVPuljWAPhbM4zr4ODg4HCJ0VpZAG5QfnxzEQY16bGZDWoVfD7UgIrulJ7twEY4Airw8441VgqAvRc4VjwKqNBRc+Tzp4D6Bzg4ODg4XOG0pALQE1TQphxUCdDEqR0Ae4Oq2lWBVqI2o0B9AoaCBNQenNrMRgIV1vGArAr7QPnwS6z93wB11lsAEsQHQR0K96GusU42qJJefFe/baAqhXbt/+tAnfhkUEe9SlBL3obYY41/JguHBCqPrAA4irrmQIkgF0mJdT2ASie3BVX5M0FlkONLI/cBtQA2QG2Hba4FVUTUAQwDVRtcb13zBpAb4eO44znod+O25qaBnn18I6choN9DGagUsVNR0MHBweEypSVcAN8G8F+QUPwMVGa3CNSWF6B4gMUggbIZwO8BJFj7ikCtdz8B1d//L6j0LUAV/WZb52xHXVnhlwBsBQnAjSDBdgDkFpgJqsn/TNz85oBK7sZzI0j42Sbx+QDmAngZVLJ3H6h/QH1f/MOgkr0zzvA8+gF437rfvSBFwu6HcB9IEXkx7vjfgJQKgNwb+QC6Wd//F/RM9oB6F7yPumqBHwBYCHoe+639vwTwC9BzKQA9P5ut1j3/DsAO65x3QMoDADwG+v1ts55F/YqGDg4ODg6XCS1hAZgE6gNwAnVCay3IhB0DrV6/C1qxTwS1830IJNh+DCAZVIv/l6A6/G+CKt99BFIEbgUJz/dR5xd3gczk26yxvgD1BLB53LouQKv53qhbbduI1hge63vMupcXQaV63wVwF0iovhl33ghQy92jZ3gmvwUFQH4D1F74HQBPW2OLoKZA8V3+FNS1C7apAgXtfRukMIy2xtwA4I+gssUMJLzzQErBBwAeBSkFj4CsMq+DlKsFIEtBT1Bjod6g5/QoaJW/AcBPQQrRkyCryfms/q8BWTcaagvt4ODQMjDQ/8FkAG0AvNe603FoTVpCARgGevH/b9y2V0E9ASIAHkBdO9yfgjITPKAyt7C+/wUkpAASmLYwLwQJwpkgc/4ya3u8ebywgTltBDAI1I0wB2Q+f6LeMSZIINpdB2VQI52fWt9/YV2vQ73zXNa5ZxJ0N4Kq931pfb8XZJ7/CcgiEH9d+37i7wkghWQo6Hd4v7XtBICfgboXAqRE7AU9PwD4HGQVyQUpRV9Y1xwLUgBcIGvK89bxv7f25Vjf91rfH7f2nSu3AxifmZkpiKIYg9OPwMGhxREEAQkJCby8vDxy7NixG0BuPEcBuIppCQXADRKG8VH5ovVvBBQXIAFIBQk+BjJFb4k7/kjcz5XW8RkA/gUqhTsOZMZ/B2TajxeWDQW1/Rhkfu8IWpmW4lT/f0NIqIsZgHWOgdOF2T6QiT/rDGMx1MUo2BSDFJvd1v74+AgTp6OAtPj6q/AC0P3brYMrUKeMcNDzq4w7vhJ11gUGUkTiiYIUuMEga8ozIPfGLSClaTvOzL0ej2fCxIkTg3369Il6vd7L3gLAed2fF2ON6zKccxZ/bGMIgnD2gxwcLhDrb5ApimIeOnRImzt3br/MzMzBJSUl/9F1/WynO1zBtIQCoIFM6TeB2ufa2wBSBMpBwvR1kI/fBYrijxdSStzPDCTI7Dfvq9bnedDK9BmcKjAbypc/ARK040EKwJxzvJf4t73cyDHPgiwSo0BugoYQQAGC8UpRJ5CvX7X2x5v8698DBwnmYpzqKgCAdqhTIJj1ses91P9ub4sXQL564wVAwZNfWGPeC3JdPAtSAM4U6/DdNm3ajHnggQcMr9erBgIBze/3a5zzy94CIIoiN00TZ7oXQRBMr9erud1uHQB0XRcMw2CMMS5JEgeAqqoql6qqYmNjODhcLJxzJCQkmLt27VLffvvtPsOGDetTU1MjrFmz5nxarTtcgbSEAvAuqD3vC6C8+EqQDzkKWsXPBAW1PQrg3yBhHwWt0PNBwir+JStaHwNkzh4K8rmnoG71KsadswdkLv8RyPS/wtp+I8jikA/gTw3MWwA9H/vlLOLU52WvsBsSAN8D8HfQCv0/IKGeALJkLAXFDLxrHVcFCq4rBPCGdf7/gKwIM0FC9xugrID4eQVAAXvjrWvMBikKr4KUKXvO9jnx58YrAGLccTUgxeQnIDfBWJCV5H1rHg+DgjLTQM8u0sC9A+RS+c6wYcP63HfffRU+n0/Iy8sD5xyGYQCnuzMuKzjnrLq6Wna5XHpjq3dRFHlZWZl71apVXQoLC5MAwOv1xmRZNnRdF6qqqhRBEDBkyJAjOTk5pbquX/ZKkcOlhyAI8Hg85rx586Tly5ePvPHGGzt37NgRe/bsgaqqTiXYq5yWUAC2giLXfwoK5CsHRZnfhbrVZndQB7vfgYRlHkiQ5YOC8+LtVGUgIVQMCsp7HHWpcXacQQikFNjMAQnZDahTAGCd89dG5h21rlNmfS/B6SvxApzqFrD5wLqfj617joKE7AcgBWAmKJjueevejgMYEHf+70G+/J+CIvF/BmCqtS9sHe+yxpMAfB+kYCkgZcbOcCix7tG2uFSCahvYqY2wvtv3WATKGBgE+v0AlLHxnPXzt0G/Mw4K5PxuA/c+ljE2adKkSW1vu+22SkmSEI1GOQAhFospkiQJptmQR+PyQBRFHo1GpT179qR16tQplJSUFNF1vcEXqc/nMzMzM2v++c9/DmjXrl3krrvu2pKSklKt67pw9OjRlBUrVnTu3LlzqH379uFYLOZ05nRoMgRBgCRJvKamxnzvvfc8hYWFA8ePH98mNTUVuq5DlmV4vV7U1DhGgKsZBlpJVp7twCuQV0EKRPvWnsgVxDc7duw4auzYsYlDhgxROefcMAxUV1cHwuFwqiiK4uXu7xZFkVdUVCgrVqxoe/3115dkZmZWNqYASJJk5ufnJ7z66qs9J0yYcHLkyJF5jDEmy7Kp6zrbtWtXalpaWiQYDDaqRDg4nC+MMUiSxIuLi/nKlSsTRVFs36tXrwSv1wvDMCBJEkpLS8vXrVv3+4KCgv9r7fk6tB5X66rj3yDXwR9beyJXEE9ed911102YMMGVk5Ojcs65aZq8vLw8NRKJpCQmJkoul+uyFv5ArQXAu3Xr1qThw4dHkpKSYoZhNGi+lyTJ3Lp1azIAoWPHjrGkpCSXIAgoLi6WExIS9L59+0YkSeKiKDZHXweHqxRFUXheXh5ftWpVelJSUptOnTopiqLAMAwIgoCqqqqCEydOvO0If4erUQFIBvnit4HM5g4Xz/8bNGhQ16lTp5rBYFDjnJucc1ZUVNTGMIyElJQU5nK5Ll+7fxySJJmRSETWNM0TCoUUWZZNxliDq3dFUfiOHTv83bp1i+Tk5ITT0tJihw8f9q5fvz7jzjvvPKrrummapuP7d2gSBEGA2+02t2zZwlasWNGuQ4cOGVlZWYIgCDBNE6IoorS0dNe+ffv+uHXr1tlnH9HhSudqVABCOLUmgcOFkwHgZ6NGjcq47777VFEUuWEYpmma0vHjx9tIkuTPyMgwre2tPdcmwTRNlp+f7wWAvLw8z9ChQwXGGOqn+wmCwCsrK+WdO3f627Vrp69cuTKtpqamzZYtW1KnTJlyVJZl0/H7OzQVkiRBURTj448/ZqtXr+4ydOjQ5PT0dFiZKpBlGfv27VuzbNmyH+D0qqcOlwc9QW77nU01oPMCcrhQpnq93q9PmzbNe/PNN8cikQg3DINXV1f7Q6FQptvtltPS0kzTNHGlCH/GGFRVFbdu3RoAgDVr1gQmTZqkJCQkxOqnA7rdbvOrr74KABCHDBlSNGLEiBOVlZVSXl6ev1+/fqFYLOak/jk0CbIsIxKJGG+//bbn+PHj3W+++WaXz+eDpmkQBAGMMeOf//znG+Fw+OHWnqvDRfE6KLB7UlMN6CgADudLAoD7r7322qHjx49XevXqFauqquKcc1ZVVZVUVVUVDAQCUkJCgmmvPq4UBEHgZWVlrj179tg1GpT8/Hxvv379otFo9BQFQJIkc9u2bYmBQMDo1KlTRTAYVAOBgD5mzJiTfr/fMAwDDVkOHBzOFTvY7+TJk/jPf/6Tqut6hxEjRiiKokDXdQiCAE3Tyj7//PM54XD46daer8NF8Qyo981GkOX1ZFMM6igADudDCoDHRo8e3f2mm25iWVlZmqZppmmaYigUCmqalpSUlMQ8Ho95OQk2zjlM02SiKJ5x0i6Xy9i3b18AdXUTkJubmzRw4MASxNVWYIwhEokIn332WWLPnj21zMzMmlgsJqiqKgwcOLAMAFRVFUzTFFwul3E5PSuHSwNRFMEYM/fs2SOuXLkyIzU1NbNjx46S7e8HwCsrKw/s3bt3zs6dO3/b2vN1AECLp/Gg4m3x/+lFUPO1xlwzPVDX8TbN+u4oAA4tyrUAZk6ePLndjTfeqCckJOimaXJVVZWSkpJ0URT9qampkGWZX04CjTGGqqoqKRQKKe3btz9jUjTnnK1ZsyYlftvatWuT7rrrLsnlcnE7G8Dlcpn5+flu0zSVNm3alKampqqqqoqiKHKv12vEYjHhs88+S+/Vq1d5mzZtdE3TnEBAh3NGkiQAMDZu3Chv2LChfZcuXVIzMjLiA1F5aWnphg0bNsw+duzYP1tpmg51TAf1vGmPusqt8S5ABcD/oXEFYCKoJs5XoCZs7ZpqYo4CcHnyIaia4KIWut6tAG6///77E0eMGKExxrhhGGYkEvGWlJRker1ed1JSknk5mrQFQeAVFRWuvLw8f7t27WoEQWjwHtxut5mfn+85cuRI/d4S0s6dOxOHDx9eWlVVJQGAoijGV199lQoAiYmJUbfbbRiGwVRVFYqKitwfffRRtizL5ujRo084FQAdzgfLvK8vXbrUtW3bti4DBw70JyYmMs45BIF0gIMHD85btmzZywDWt+5sHUBVVG8DFWM7aG3rCmrMZqCuEuuhM4wxDdS1djnIApDRVJNrCQVAATX6OW59H4BTG/3EMwRUpz+++U9XUDU8gDrvNdRmtw/oAe+pt727tT0P1PoyAqrc1wFANagHAUDV7dJwakvgniBtLTdumx/UfKgAQFtQox27qt611r/bGrm39iAtDqAyv1vj9vUAZSecaOC8YaA/nCLruwxq/ZsHYJc1Zsza1xHUEvjzuPOTrfs4DtIcQ6B7P1e+BWDMD37wA6lPnz6apmncNE1eUVGRVF5enp6UlCQmJiaahmFcdsIfABhjPBQKuQsKChJ0XS+2hXX94xRFMVatWtXgf7zVq1dnXH/99aUAKRRffPFFyvbt2xNSU1Mju3bt8ldVVXUyTZOFw2H5+PHjrurqanHmzJlHXC6XGYlEnGBAh3PC5XLxUChkfPjhh4GioqJuo0aNkmVZhmEYkGUZNTU1/Isvvvj19u3bf9Tac3UAAKwBme5Xgnz4B0Dv390gGXInyC3gRt37vT7zQEoEUCdrUho59rxpCQVgCqj3fAGoQ14nUPXBNwD8wDrm+6A68xzk59gEqodfAmqYsxzUja4E1FTIZgKoxn8bkBb1R1Ap26+DHngOSNitsObxc1A/gmWgYAq7je4L1jmPgsrrrgYpLR7QQ/89gLdALXx/DyqD2x3UEviIdX4KSNk5Ym3/b73nMA+kfMggBSBmjTUQJOTbAngZdW2JnwVwt/VzgvUcvg1gMag733TrWXwbVD75Z6DGRrYp8FcA/mntf8Ca8yQAD4J6B5yNbAD3DRw4cOCUKVO0tm3b6rFYjJumKYTD4dRIJJKSlpYGt9t9Waf4iaKII0eOeA4fPuwKh8Oy1+vV6ysAsizzkydPutavXx+UJMkUBAGqqgqSJHHGGN+zZ49/7969/s6dO9fEYjGha9euVU8//fRuSZK4ruvMrvInCAK36gZAVVXBEf4O54Id7Hfo0CHMmzcvMyUlJfumm25iVuwKRFFEKBQqXLBgwXM1NTXn2tjMoXn5C4ARoJLwX6u37yegYnRvg/q8VDQyxlTQYtUuA38AVFb+TJ1mz4uWUABKQQIrAdROdiOoLv+PQCvudQCeAgnnN0BBEv8HEoCPW+ffCsrdr+/PGgsSVB3itqWAmg0BQLr170uglbCtZamoq48PkDCuidt2L+p6CawFcA9IASi3xqkERWQCpM39F3V18b+w7rO+AqCDrATfAbAAwHxQrf9XQJrgnaA/iidAvQKmgfoU/BHU7vhF65mMB2mRT4EaDgHAQlD3wN7W99nWsf+07iMbZJloi3NjEIA7J06c2G306NGR5ORkU1VVruu6XFZWlg4gIS0tjV9u/v6GUFVV2Llzpy8/P18pLy/3ZGVl1ciyzAFw26QqCAIXRVGYMWPGYVEUzaKiIu97773XZvz48aWdOnUqN02T+f1+Q5Kk+GJHTFVVu/siTNNkpmkyTdOckr8O54wkSTBN09y2bZv86aefZnbq1Cmjffv2zDRNMMbAGDNCodC2999//yXTNN9u7fk61HIf6J3/7Qb2HQY1fxsGYAxO7U8Tz89BC8fvg/rd+ECyq2NTTbKlXAC2eX6jte3foNX010Gm8WpQx8Ch1v40kOkfoJvehtOFP0B+kxqQAHzHGrcfyCUQ/+CfAK3uG2vhy3FqVOZxAK+BXt5BUOOhdqDVtYo6y8EgkPIhg3I07a5/GTjVdQFQ8561IOFvz/04yJ8PAHNBfv1JoI58IoD+oEZGsvV9JKi5kIC6RkpdQc8wChL8gjUnD0jz5Na172nk3utzO4CvzZgxI2vgwIE1Xq+Xa5rGI5GIt7y8PE2WZW9ycrLZmK/8csAS6HC5XMbx48c9Bw8e9AEQjh075mvfvn1YVVWxpqZGVFVVVFVV0DRNME2TKYrCRVGEKIoMAERRZKIoCpIk8YKCAn9BQYFPURRDURTT5XIZbrfb8Hg8uqIopqIopqVYwDRNpus6a6yEsIMDQP7+WCymr1+/3pubm9u+V69eSampqcw0TUiSBE3T9PLy8v/OnTv396DGYw6XBneA3telqPP710cDvaO7omEF4A/Wv71AsQIcJItEkBU9CQ03ojsvWkIBEEA3q8ZtOw6afDpIsNr97XWQ0P0MdXECAk7t7BfPHJBf/npQx7oMANtBD+mTesdy1JnHGRpuSWuAVvjrQW6HsDVPHSRwhXrn9bDuTQdpaByk5BzE6Q2WGE7taihY14vFbVNBwj4BdW2RTeu8zaBUkfjxAHJziNY4MdDv9Kg1h0LQqv9cbfQPARj2+OOPB/r06VNtmiY0TeOVlZWJFRUVQZ/PpyQmJlKO0WUk/EVR5IqimKIock3TWCQSEcrKyuSKigrP9u3bg7D+LjZs2JC6a9cuX0FBgVhaWioAYH6/n7Vt25YFAgEkJiYyRVFgle8VQqFQsiiKiRUVFdA0jYdCIZSVlaGgoIAD4G632+zQoYMRDAb15ORkNSkpKZaamhrJzMyMpKamaj6fT+ecM03TBCcTwCEet9uN8vJy/dNPP004evRox/79+3v9fj8Mw4CiKKiuro6Vlpa+u2jRol+CTMMOlw62rGgopgugBW4H0Dt6RwP7p4BczP8AxYq5QHKAgdzEOSC5eVkoADooyCE+evoaAJ1BQq0MZLp+EcC+RsZozGwaAfD/rJ+XglrYbrCu+V2cWutfwKkCOL4BiwgSvCWgNr0GyOwCkAaWAvoFAHWCF9b8XSCz/rlQ/yXPcGo6CAP9TqpA7oo/oeGyjwxk+QDIOsJBQYGPNnDsoHOc21OdOnUaMGPGDNauXTvVMAyYpolQKBSMRCIpycnJgsfjuSyEvyiKUBTFkGXZNAyDhUIhadeuXQmHDh3yFRYW+goKCtyFhYUyACG+jv/hw4eVF198Ed27dzfdbjeXJIkrimJKksSBWl8sjhw5Ii5btkyaPn26PnjwYE3TNMY5r60noGka0zQNkUiElZSUKCdOnHAdOHDA/8UXX7CtW7cyAEbHjh3Vzp07V3Xv3r2ie/fulcFgUDVNk0UiEdHpD3D1whiDy+Xix48fN+bPnx8UBKHD0KFDFUmSYBgGXC4XysrKygsKCv6wevXqn7X2fB0a5B+gGIDGfPW2hXc7yAVen7tBcQG/aWDfT0Cysz0aVh7Oi5ZQAGy/+g0gv/9ckN87CPJ1AyS8Xgf57v2gIMH9oCh3+QzznAha9a8HPZBdIKG8GCQMQyBT+89Awt+WXDtAqRlPglbqt4KUCT9ICbnZ+vkuAH1BFgsT9EuLfznvBikeJwDMQF2GwRGcGokP67x4RUZAXQqIjQJSNr4DUmReBPBbkEKSam0rtD6zrPvYDAo0mQpyD8wHBUUKoDRByRq3MToA+M6NN954zeTJk6MJCQmmruumYRhiaWlphq7riWlpadzKcz/DMK2H5QvlsixzSZLMqqoqad++fYEvv/wyYevWrQklJSXepKQkqWfPnnzAgAHGN7/5TaNnz566KIp81KhRvnrD8W7duml2Zb94ZYdzDkmSYCkE3HYl0C4OxugUj8dTO6+OHTsajDHYRYZisRg7duyYsGPHDmX9+vXpCxcuzDx27JjesWPHyttvv/28Ft4HAAAgAElEQVREz549qzwejxGLxQRHEbi6YIxBURRz9+7deO+999p369atTZcuXQTTNGGaJmRZRnFx8f7//Oc/v6ysrPz72Ud0aEU2gPz7T4He4fE8DpIPU+ufBODHIFnWWLOmQuvfAWgCt09LKAAekI9/JSjo4bugggZt4o7JAfnwPwCZwbeAlAQA2Iu69Ln6dAYJQjfIv/4/1vZvWuc/DaqY9H1QSoa96r8HwJ9BWQjbQBkDY0BC/4cgBWQHKBvhXyC3QALqUjjimQwKWvwTSOgeBVkR6isAefXuoxCkbMSn5O0EWUTKQCag+aC4ABWUjmiPeQ3oGb4BCix8zPr+CCg7oAjARyAFoBSkaTbE9aIozrzzzjuDY8aMqRZFkem6bmqaphQXF2dJkuTJzMw0GGOXZD1/URS5IAhc13VWUVGhHDp0yLd8+fKkoqKiQL9+/Vzt27fHDTfcoPfs2VPr0qVLNDExkVsR+PB6vXjrrbdOU4xefvllaezYsVpj98s5r30WVmCfXXmtQctI3DgMoJd8hw4dzG7dusWmTp0aq6ioYLt37xY///zzxNzc3OQ///nPNVOmTCkeNGhQKCEhQeWcO7ECVwGWImmuXbtWWb58eftBgwalZmRk1Jb05ZwbRUVFG+fOnfsDnP5uqc9A1BWLiYHea5Wgd9eRxk5qRjygBdaF0BsU9FYEeh9fLnwNFPf2DCgI+wAoGP4x0KJxfAPnjAJltnlxeqU/CbSIzQA9y8mgbLOLgoGEXX1/dVMyEWS22AVKR2stTFBO+5utOIdLiek+n+/mmTNn+vr16xcFAE3TUF1dHQiHw2k+n09JSEi4JIv7yLJscs4RCoWUgoIC/5YtWxIPHDjgHzlypKtHjx48JydHz8nJ0VNTU7miKFzTNKaqam1nNFEUYZomnnzySe+KFStOcy/Nmzcv0rt3bz0SiZwmeCVJQl5envj1r3/dPWfOHHXo0KGaruv1DzsrtsXAcldwSZJ4YWGhuHXrVnnTpk3S2rVrI+PGjSu+7rrrSt1ut+FkD1yZ2G6laDRqfPzxx/6jR4926NWrVyApKQmGYUCSJKiqWlVcXLxi4cKFD6HxfHEbAfSevREUDO0HWSjXgNKfVzff3TQ6n3YgK+sAkDJwDLSYYqDFWxuQHPo76la17UCZTH1BtU1KQIugf4EWe+fK8wC+BC0uW4O/AhgOiueqAS3MftXIsRNB9WfCoGe0GnUpgikgK3o7kCxzgxaQH13M5FoqCFBsoWudidqUrKucLAB39+3bd8CECROknj17RmOxGAzDYOFwODkSiaQkJiZKgUDgkivuY+XQ88LCQs/u3btTVq5cmdS3b1/XLbfcwjp16mRkZWVF0tLSTMYYdF1nqqoiGo0yyzQPoLZnOl+7dq3ckPAHgH/961/y7373Oz0SudBFy9mx52QYBiKRCOOcs5SUFD5u3LjYoEGDtJEjR8pvvvlm+7179yZMmjTpSDAY1KLRqKMEXEEwxiDLMi8tLTWXLFmSrOt6h/79+7s9Hk9tcZ/q6urSvLy899asWfO9cxzWBFkgC0FW0C4gF+mzzXQb5zKfo6CA72kgQf8qyDLBQAFzKaAV8dK4814BxV+VgbKwuoMsGynWeOdiyUgC5dknofUUgIfO49jF1qchytAMlV9bQijvB+UyFp7twGbmNTRhH+XLlO4AvnnzzTd3GTNmDNLT0/VoNMoNwxDLysrSTNNMTE5OZm6327yUTP6iKMLtduuFhYXujRs3ps+fPz/51ltvlX/7298aqampWjAYNAOBANc0jdXvyldf+HPOoes6IpEIpk+friuKwr/44guxoKCAfe1rXzO8Xi80TTMrKipYXGOVC8blckHX9bO6UBhj0DQNmqaxQCDAhw8frnbv3l2cPXt24muvvdZlxowZh9q0aRONxWKOEnAFYBf3ycvL44sXL24TDAYzu3XrptjWKVmWEQ6HD3/11VdvbN++/VxNvQNBZuEMUOyT7fLMAgnXNFB9kh80eHbzEgMpA/sANKTMvIO6Wvg/BcV+vQBSZgRQfNMMkCXhv6Agu7MxG+Q+6Hjh076yaQkFYJf1aW1mtfYEWplOAB6/4447gqNHj9Y8Hg83COXEiRNtZVn2pqSkcEmSLqniPi6XywCApUuXZr799tuZw4cPl9977z29R48eUUmS8Pbbb8v9+/dnvXr10s9kihcEATU1NWzhwoXSLbfcot14443aiBEjdLfbzf/0pz+5t2zZIj700EOxNm3amLFYzC7ec1Fzd7vdfOnSpXLv3r2NzMxM81xT/XRdB2MMwWDQ+PGPfxz50Y9+5H3//fc7PvDAAwcCgYDuuAMub+xgv9zcXGHJkiUd+vTpk9a2bVvB/n8nCAJKS0u/WrFixUvFxcX/OMdhXwLFPpmgzKhDoGCybJDvfDuoxsgskK/5aVCqc0txA8gH/m4j+/8FWqBlgIKeF4GEP0D39Ayoxss4kEvgbHwDZHWIoa6mjEM9nBfJ1cEoQRBeeOihh4ITJ05UrYh+MxqNegsKCnK8Xq83LS3NvNSEv8fjMYqLi10zZszotWvXro5z5sxhc+bMifTp00cTBAFFRUXCr371K9fu3bulWCx2iqm/Poqi4JNPPpEXLVokRyIRZgVdwQ7is+MD4qL5Lwq3242DBw+Kjz32mPvkyZOC1cHtnOGcQ9M0mKaJX/ziFxGXy+X/7LPP2pimecb7dLi0kSQJgiCYixYtUj7++OOuQ4YMycjKyhLsyn6ccy0/P3/pe++9N/E8hP+fQKXUEwBcB8oVX4i6DKwSkOC9x9o+wDpmYFPe21mwg743x23rCwoMB6g8uQkKiv4bKCusPnb8w9k0847W2J+AStB3Of/pXh20tl/eoXnJBDAlJydnzN1336336tXLqKmp4aZporKyMjkcDmcEg0H4/X7TFoCXAlZ0PzZt2pT66quvdnzqqaeEqVOnVgWDQV5ZWclM04Tf7+cffPCBBAALFiwQbrjhBpaWlsYbsgIoioJjx46xn//853JiYiKqq6sFzrlpC/x6H3axz8FOS3z00UddAFBRUXHBEtsu/PL0009rt99+e2Lfvn1L2rRpE3UKB11e2P7+SCRivvnmm4mmaWYPHz7c4/P5oOs6JEmCruvlmzZtmv/ll19+6zyGvhZUCM0LKowW72q1/0biF3qvg1bSvUAR5w21oJ0BSg8+m6DVQEFojTVAs5kFehfZDcwAKlD2bVCQ24a4Y6tQ1/SmPkGQQK/f9K0+dwHoBkrB+wYoBs2HMzdBGwXqN+NBw0Xi4jmKujLslzWOAnDl0h/ApNGjR/e6+eabtfbt25vV1dWmpmlyRUVFiqqqScFgEF6v95LK7xcEgZumyVavXp2+YcOGrFdeecWYMGFCRNM0hMNhZr1IcfLkSWHjxo3CY489pr388svywYMHxbS0tNOkv52DP3v2bNesWbOM2bNnS5WVlYxzzuKPaUq8Xi//5JNP5GuvvRYHDx5EeXm5cDFtfw3DQHp6unHrrbcqRUVF3szMzAicgNbLBrtWxLFjxzB37txgSkpKdpcuXSS7k58oitA07eScOXP+CPJ1nw/DQb59gATs2ViJuqyv/o0cc5u170wvBgZKRzuKsysA/UEWgB0AbgEJ6H6gGIU/nsOcASoTnwjy///7DMdlg5rwLLS+HwFlQ9wBKtDTGINBPWAS0LgCYFeQzYWjADhcwtwI4PZp06a1vf76642EhAQzEomYqqq6QqFQuiAIvtTUVMiyfEkJf1sQb9y4MW3btm1tn3vuOW3w4MFaJBJhcSZSeL1evPHGG/KUKVOMoUOHGi+//LK0ZMkSaeDAgXp82iLnHD6fj69evVry+/2YOnWqOnv2bKmkpEQwDKPJBT9A1oaCggJh/vz50k9/+tPohx9+6C0tLRVUVa1NPzxfOOdQFIX36NED+/fv9/bu3busySfu0CzY+f179uwRly1b1qZdu3YZHTp0EOP/TquqqvYuXrz4D6DaJOeLG3Xv8fM1XXka2f4bUOT82cYz0XiNkXjagYTnEdQVRLMb27xzTjOlvPcaUAe9M/EgyKpgd0X8AqR0DMaZFYC51rHnIhNDjWy/FlS3QMb5/y4uhsOgNM/zxlEArjxuE0Vx6syZM339+/fXXS6XaZqmUVNTEygrK8vwer2uxMTES7KZjyRJ5uHDhwPz589v89JLLxkDBgzQrBS52mNkWcaJEyfw6aefim+99VZEFEU8/PDDxmuvvSZ961vfEnNycgxN02qPLSkpEd58803517/+dcztdgMALywsZLbZtSlhjME0TaxcuVK+5ZZb9I4dO5oA+MmTJ1lNTQ1LTEzkFxpYaFcdPHHihGLHAVxqvz+HU7E6+Rnr1693bdmypX23bt1S0tLSav+eTdM0ysrKNqxevfr35eXl8y/wMrtAKWKZqLMEnIlrQUoDQIKjIZqy4M5toADkIlBgny2Y7wcJ5XNhMihe4S1QLYMz8QhI0P8SpKD0tLb3Oct5h9H48zhXBoGaqXnRMgqAbZH4DI4C4AD6T3Xbk08+afbo0UPTdZ2bpmlUVFQklZWVZSYnJwt+v7/V6vkzxiAIAm+ssp1pmuyNN97IfPTRR8WBAwdG7Br7Ntbqn8+bN08ZPXq0kZqayiORCAYOHKi/9tpr0qJFi6RnnnlGV1WV2TXVlyxZogwdOtTIzs42T548yUaNGmXu37+faZrW5AqAy+Xie/fuFQ8dOsR+8YtfaH6/n991113GwYMHxerqaiQlJV3QuHaKYH5+PpNluVksFw5Ni6IoMAxD/+CDD7zHjh3r1Ldv30BCQkJtcR/TNPX9+/cv+O9///scLi49eSnIBN8TZMJ+Mm4fr/cvQJkC3UGr71UXcd1zpad1vY0gQWWzBedelfBxUF2AsylJdjxCKiibwASVQTdBMQHNzVqQotPScrXgQk90FIArg2QAj3bq1Knv97///WhqaiqPRqOcc85CoVCbSCSSkpmZabZmPX+7OE95ebmSnp4eq68EyLJs7t+/P6Fr165J119/fUSWZV4/p1+WZRQUFAjr1q0Tf/3rX0crKyuZIAjo2rWrPnXqVOP111+XZs2axRRFgSRJfO/eveInn3wiapqG1atXS6Io4vDhw4IoijwWizGv19tkWpAgCKiurmarV69WcnNzhVmzZrkZY9izZ4944sQJVlVVxRhjdkev8x67rKxMeOedd8QxY8Y01ZQdmglFUVBRUaG/8sorKWlpaTlDhw6t9fdbbXyr58yZ8yucv7+/Me4BBbjdB+ow9z2QcLWD/9wg0/R0UOBdAah8+XuNjPclKIr+TOYqu7vpk6hrXdsQOdaxx3FqOnh8I5v+1nxLGzj/I1Bfly/rbfeiriEaQIGGGaAMh/oUgwIIz8RLoEqxAZw5BgCgGICGMij2ofGGdpckjgJw+TOSMXb7+PHjsydOnBh1u908FouZuq4rZWVl6QACmZmZpv0Cai0EQeA1NTXS559/nnLnnXceq6mpiW+CBI/HY6xduzZh8ODBvF27doadix+PJEl88+bN8oABA4xAIMBramqYaZrIyMjg/fv3N+bNmycuXbpUuvfee7WysjK2du1aaerUqdrQoUN1+96XLl2q/OxnP5Orq6uFlJSUi34gtoVCFEVs27ZNLCkp4c8++2zUume2e/du/vzzzyuVlZUC5/y87f+2W2HZsmVy/DUdK8ClhyiKEASBHzhwgP373/9uk5OTk921K6Wgm6ZpK4kn/v73vz8IYEkTX/7b1ucDUKnZItT1A7gFFBfkBTWmOZvicV0TzSkVJChDqGvvXp87QW6CV3GqAtADwBOgeIT6wv9hkDJhlwTOAPWYeaORaxy05jEGwIpGjnnC+lxVOArA5c20Nm3ajBk/fnxw8ODBMZfLZeq6zqurq/0VFRVBl8vlsf39rR3sJ0kSr6iokDdt2pQ8derUYw35sHfu3OkZN24cl2UZqqrWPx8lJSVCXl4e++Y3v6kJggCPx8MByrkfPny4dsMNN0gLFixQ7rjjDu3gwYNiYWEhu+OOOwyv11u7+rL88qy4uJhlZ2c3yb2Joojq6mosXLhQuvfee/W+ffsamqZBlmWkpKRwAEp84OH5uF+8Xi9ft26dvHbtWnHGjBnmgQNO6/dLESuNz8zNzVXWrVvXpkePHhkdOnRAXLCpVlpaumPu3Lk/RdML/3jusP79GkioAuTbvq8Zr9kYo0HR/idRFziXAkox7AwqDjQFVAMgPu5gMKiD6zUgJebpuH0yKK1vRty2V0DWgMYKzlVa50xD4wrAVYmjAFy+fKdTp07D7rjjDm/37t1jjDFuGIZZUVGRXFlZGfT7/XIgEGg1f399JEkyi4qKPCdPnvSWlZXJCQkJRnwuu2maKC8vFxhjjU5237594o4dO4Tt27eLAMT4ymnWSplt3ryZLVmyRN68ebM0bNgw0+PxcFVVa/3odjrel19+KV533XW6LMsX9XzsZi5z585VsrKyWE5OjlFVVcXs/H2rNTA/dOiQYKd8nev1AoEA37Fjhzhz5kzX7NmzVUmShNzcXGfpf4khyzIikYixbt063759+9r16NEjMSUlpTa/X9O0aFFR0cqFCxe+CErDa05EUD/5kSDBtw8kRJ8C9QT4rPFTm5RuIKvDIVBe/0jUVeTzgtyWnUGKwcZ6594ECmo0cXoVPwlUWv6w9f0BUE2BkDVuPCmgwDwO6irbDlQzYf0F3tMVh6MAXJ78JDs7u9eDDz4oZGRkqKZpcsMwUFZWlh6NRlNSUlKY2+02m0Pwy7JsyrLMBUHgwKnKhdU2mEWjUbH+dl3X2YkTJ/wA2OHDh30DBgwo1zRNjD8mOTnZrKioEOpbK+wWvqWlpSwWi+Gvf/3raX+3giDA5/MZ48ePx/Lly8WqqiqUlZXxcDjMAoEAZ4whPz+f7dixg9100016Xl4edu3aJQwYMOCiTCOKomDt2rXi888/L02fPt0sKSlhwWCQS5KEsrIytmrVKhEAX7hwIbvuuuvEQYMGnfV6jDH4/X7+5Zdfik888YTnJz/5iTZq1Ch17dq17ostT+zQdNgpqaWlpfrixYuTqqurs3v37u3xer219fxjsVjN0aNH3162bNnLOL2VeHNggvzta0E583Y74Cga9rE3FxGQsrESJGe8qItJEKzPEpCCUL+73xeg+gINdeMSUacwMOv82aD7PFrv2Cios94c0HNhOHMxoJZmJqg+wn4A77fGBBwF4PIiGcCzffv2zX7ooYcMt9utG4ZhGoYhFhcXZ3LOAxkZGRBFsVlK+oqiiEOHDvlKS0tdoiiaqqqKuq4zW/CLosiDwWCsQ4cONfFlhQVB4NXV1VJxcbEXAHbv3p04ePDgMtB/ZgAk9FJTU/mBAwdYcXExCwaD3I4D4JxDEASMGzdOmzBhgtbQ3BqifonfrKws/sADD6h2Pr5hGLBTBs/neVlFhJhpmtA0DT169DA2bdoUsXq3c845TNOE2+3mo0eP1idMmKBb1+N2PYMzPWOv18tXr14tfetb33I/9thj2vTp02O6ruNC2g47NB9+v58XFBSob731VmZKSkqnvn37CvbfltvtRklJScW2bdt+smPHjjMFyTU1HM1vZTgX8tF43f+zca49CjjO3N64BsDn1udS4hUAXwfFa+igYkizQRaLFsVRAC4fbhVF8fZp06aljhs3LqLrOjcMg0ejUU9JSUkbl8vlSk1NNZszP9w0TQSDwVhubm76Rx99lDZy5MiywYMHFwmCwMPhsLJ169agKIrsnnvuOaAoimlH+kuSxA8dOuTNz8+XAeDAgQNJlZWVkl31D6hbTX344Yds2LBh8m233abW78ZnC/SLvYf6YzDGuCRJ5/TQTNOEz+czH3zwQTU1NdUwDAN+vx8AuMvlOqWssCzLcLlcvP75DSEIAiRJQlVVFWbPnu3+85//LP3lL3+JjRs3TguHw0ySJCfw7xLBCvYzN2/ezN59993OAwcOzOzcuTM0Tav9vR89enTfggULurf2XB0uOVaBYh9yUGex6AUK1Pw1To13aHYcBeDy4Ntdu3YdNWHCBO91111XY71oeGVlZWJVVVWa3++XExMTm93fzzlHIBDQfT6fAcAcOXJkcY8ePUK6rgsul8vMycmp2bdvn1+SpFrBDpDQO378uN9WAEpKSpTDhw/7evToURmJRGqtAJqmsREjRmDevHlSRkYGHzx4sKaqKmtOs7eu6+yWW27RR4wYoScmJjbYSyAeK+vA/OEPfxiLRqPMtiCc6fgzYQkTqKqKrVu3Ss8++6w8bNgwLF68ONKtWzcjHA4zoOnLFTtcGJIkIRaLmRs3bnRv3ry53ciRI1MyMzOhaZrdblrLz89ft2jRokdae64Olxw3gcoUL8ep7orvg9wgv2npCTkKwKWNF8AjQ4YMGTR+/HiWnZ0dMwwDhmGwcDicGo1GUxMSEgSv19siwX6MMUQiESk3N9d/zTXXRAOBQCwSiYi6rgtVVVWS2+3Wr7nmmgrbDA5QY59IJCIWFBT4YfkAKyoqhP379yf37NmzIn78cDiMO++808jJydF+97vfKU888QQGDx6sc865XdynqTFNE506dTJFUeTRaPSsjYAsdwcqKysvajKyLEMURV5RUcGOHDkiLlq0SNq4caP4v//7v/qQIUPUxMRERCIRR+pfQiiKwsvLy/mqVasSCgoKsvr37x9ISEiAXVRKVdWqkpKSjxYtWvQsACddw6E+BqgmQf0SzIfQCsIfcBSAS5l+AKaNHj26y2233WYEg0FD0zSuqqocCoWCpmkmWvX8myXYryEEQeChUMh18OBB75QpU0rT0tIigUBAX7NmTZrb7TZ79uwZ1jRNiF/9C4LAS0pKPDt37jwlQjc/Pz8QCoVkr9db6yqorKyE1+vFDTfcoIXDYfad73xH+fGPfyyMHTtWTUpK4pFIhDVHDX8rS4Axxrg9dvw1rNK7dtBjg4pIXPZC/LH1x4DL5eKiKKKoqEjYtWuXvGHDBvGtt95izz33nPHAAw9EMjMzOecc0Wi0Se/R4cKxf2/Hjh0zlixZki6KYta1117rcrvdtd0ay8vLT5aUlLzzySefXHW55A7nzGoAvwPVYvgKVI1RAgUpXkgfiIvGUQAuTW4GMPnuu+9OHzlypO5yuXgsFuOxWMxdUlKS7nK5vCkpKc0W7NcYiqKYR44c8QIQysvLxfXr16dVVla6N23alDRr1qz9pmmyeOEPkBDMz88PFBYWuuK35+XluY4ePRro3bt3SNd1EYC9igJjDDfddJP6zjvvmFOmTFFyc3O9kyZNig0aNEj3eDy4WEVAEAQefy7nHIZhMF3XBV3XmfUzMwxDsIL3mO3Xt+6v/oW5PaYgCHY7Yy5JEpdlmXs8HtPn83HTNPmhQ4eEdevWSVu2bJHXrFmDJ598Uv/000/1tLQ0UxRF6Lp+SaRtOhCiKEKSJL5//35j7ty5WZ06dWqbnZ0t2vEpbrcbhYWFB/bt2/fitm3bZrf2fB0uaZ4AVWlcBwpMtN8le1trQo4CcOlxB4DJjzzyiLt///6aFbRmVFdXB0KhUIbl7z9thdkSiKLIt27dmpiUlKS3b9++Ij09Pbpv376AJElGVlZWpKqq6pS/J0EQeDQalTZv3pxYf6ySkhL50KFDyd27dw8LgnDKPtvN0b17d2Pbtm2R119/XX7ggQfcY8eONadNm6YOGzbMSEhI4DU1NcwOvGoMu/+A/V3XdRaLxYRIJCKqqipEo1FB13VmmqZgZxtwzpklyGtrDNjfG1M6LCUCuq7DMAx7HMRiMRw8eJBv374dubm55vLlywUA7IUXXlB/+ctfqj6fj1vnnTWewKFlkSQJgiAYmzZtEt59992c0aNHp7Vt25bZcSIulwtHjhz5YuHChY+DXuoODo3xDQA/AJVlHtHKc6nFUQAuLR7t1avX6KlTp6o5OTmaqqqcc87Ly8uDVVVV6cnJyfD7/WZrVPVjjKGyslLasmVL0ogRI2qGDBlSEgwGVVmWeUFBQYNtRQVB4EeOHPFv27bNn5mZaVRWVjK7BK9VJtfbr18/j9Xf/hQ457XWgMcee0ydNm2avmDBAuWFF15w79u3j8+aNUufNGmS3rZtW9Nu6lOvcRA3DIOpqirEYjGhpqZGjEajolV8iImiCFmWIUkSPB5PrbCvr4yc6XnYH7s0r31uLBbDyZMnsW7dOvzhD38AADZ8+HD069dPvP/++5GVlQVVVeX8/HxJURTD5/MZPp/PkCTJBHDWOASH5scO9lu6dKl3x44dObfddpsvMTERmqbBstRohw8fXvDJJ59Ma+25OlwWPAwqWPRSI/sHgMoltwf1YRBA8nkBztyT4aJwFIBLg34AbhszZszgsWPHVmVkZNj1/KXy8vKgpmkpqampptvtbrVmPm6329i9e3cCACEtLa3a7XYb5eXlcmpqaiwtLS0Wi8VE0zRZ/GrbNE2WkZFR88wzz+zxer36pk2bgosXL257zz33HExLS1N1XWeBQEBrrDsgQEI9HA6zpKQkPmvWrOjtt98u5Obmitu3b5efeOIJuby83Jw6daoxcOBAIzMzk1sratGqUSBwzgXGGJMkCYmJiaes6u3xG8MW8PFzsXP87ZW+ruuIRCIoLS1FXl4eNm3ahOXLl2PQoEHo27cvfv7zn6Nz587Izs6Gz+eDpmmIxWIQBIFJksRisZhQVlYml5aWcq/Xq/v9ft3tdpt2WqKjDLQsjDHIsszLysr44sWLk6PRaLuRI0d6PB5PrfCPRCIl+fn5H6xYsWJWa8/X4bLBrm1evy1xBqgJEUAKwExQxcIHQbECw0GWg2bBUQBan1sB3Dx16tTs0aNHV/p8PqiqakajUU84HA4yxvxpaWmmLMutJvwBqgC4Y8eORAA8KyurQhRFqKrK3G634Xa7zePHj7sLCgp8vXr1KrdXxaZpssTERC01NaiIH9YAACAASURBVDXm9/v1Q4cOJQBAx44dq7OysqKxWEzUNO20uIGG0DQNmqaxhIQEPm7cOG3kyJH65MmT2dGjR6V9+/ZJf/vb3+Q1a9bwLl26oEePHkJ2djbatm2L1NRU+P1+uFyu2hW/5detXbXHC/b4AkF28R3r2lBVFZFIBJWVlSgpKcHhw4eRm5uL/Px8DB48GN27d0f//v1x8803IyMjA23btoXP56t1D1RUVNQqFYIgwOVyweVy2QoFi0ajcmlpqSRJkuH3+3W/329IkmSey/NxuHjs/P78/Hy8++67me3atWvTtWtXWZbl2sp+lZWVB7Zs2fKvnTt3Ptfa83W4rJgPIAlk/l8FoATUsKkcQCKoONAoAENRVxnxKVAfBUcBuEL5hiRJNz788MOJffv2jVhC1ayurg6Ew+Gg1+t1JSQkmHbqWWtht8/dsWNHcnZ2ttGuXbtqWZZNy3eOI0eO+JYtW9bummuuCblcLjMWi9Xa0Q3DYIZhiKIocl3XBQCIxWKi9Tk3e3scuq7XVvdLTU0V3G63kJWVxa6//nr2ve99j9XU1KC4uBgFBQXYsGED9u/fjxMnTiAtLQ3p6elITk6Gz+eD1+uFKIpQFKVWQKuqClVVEY1GUVVVhXA4jNLSUm414OEZGRm8V69evHPnzjw7O9vs2bMn7rrrLng8HiiKwmwlAwDTNI3FYjFWUlLCTNNkdvaAIAiQZfkUZUQQBCiKAqtjI1NVVQqHw2JVVZWRkpKi+nw+w6o+6NBMSJIEzrm5Y8cO4cMPP2zXt2/f9IyMDMFWEEVRRFlZWe677777ewBvt/Z8HS47XgX1ZbgdZObXQOWLi6x9x0DCvwtOTQkMgKwG25tjUo4C0Ho80qFDhxvuu+8+sUuXLprls+bl5eXJ1dXVwYSEBNHn8/HmrOx3LgiCwGOxmLBu3bq0w4cPKwDMVatWtQkGg7GamhoxFAopO3bsCCQkJBhTpkwJ2c12GoHbY17IXERR5IZhsFAoJJeXl8ucc8HtdjO/34/k5ORaH3zXrl1rzfTRaBTV1dWorKxERUUFotEorN4JpiRJpqqq3J6XLMvweDzc7XbD6/VyRVHg9Xq51+uFoihclmVuBYad4kqIs3icUgnQtoKYpsl0XWe6rguxWEyIRqNCNBoVTNNkkiTB5XLB7XZDkqRapcDlcrFIJCIVFhaKGRkZ0ZSUFKcOcDNhdfIzPvvsM9dnn32WPWTIkKSUlBRmt/DVNA0lJSUr5s2b9wvQ6s3B4UL41Po0hgxAAVkFbHRQ90RHAbiCeK5fv37X3X333dGMjAxd0zTOGDOKi4vbqqqanJKSwt1uN7eFyPlidagzDcM4J/O6IAhcFEWuadppK3J75dq7d+/wyy+/XA4AqqrarW25KIqYOHEil2XZdLlc5pn8+ReKtQrj5eXlUmlpqcs0TSEQCMDtdtceY5vvTdOsXcXHlWY127dvr3u9XtPlcpmKopiW8D7l4XLOmR3QF//s6/8e7J/PZJWJM/VzWGWCAej22IZhCNFoVKipqRErKyuliooKQVGUWneFKIrw+XxQFIWdPHnSLYpi9EIVJ4fGURQFkUhEnz9/fqCoqKjjiBEjfHb7aFEUEYvFIkePHp336aeffg9AxVkHdHC4cDRQrEAgbpuEZhL+9uAOLcdAAA/ceuut2ZMnT66QZZmpqmpqmiaXlpa2Z4wFMjMzdUmSLtjkb6febdy4MfXaa68t93q9+pmUAEEQeCQSkQoKCrzZ2dlVsizz+sJOkiSelJSk2tt9Pt8pY1gCkjWHm8Kan1hUVOTSNE0MBAJ2i91awWyb7yORCHRd56Iomj6fz0hJSTE8Ho8py3JtFK21Gre/tphZ3Xp2tRH+giDwQCCgBwIBPT09PWYHA4bDYYkxJgQCAbhcLiiKgpSUFBYKhVzhcBjn2rPA4czYwX4nT57kc+bMSc/KyuowZMgQyfb3S5KESCRyfO7cuX+pqqp6vrXn63BVcADANlCcgB0HUITTuxw2GY4C0HJMS05OHj9x4sTEMWPGVFj56LympsYfDofTFEVxp6am6sCZV5ZnQ5Ik88iRI4G//e1vbX/0ox/FOnfuXHEmBUAURb59+/bUzZs3J0+fPv2gy+U6LSrfLpRzwZO6QDjnKCkpUcLhsOLxeFhiYmJt0J4dqBeLxaBpGhdF0QwEAobX6zW8Xq9hlyO2FJNL0n8ePy+Xy2W2bds2pqqqFg6H5YqKCqmmpkYIBAJQFAUej0eIRCJOT4AmwKrnYB44cIDNmTOn3YABA9p06NCB2X9bjDFUV1fv/fvf//4bAG+29nwdrhrWgzLCegLIBnUMbNYKgY4C0Px4Aczs06fP4LFjx3r69OkTU1UVhmGgqqoqqbq6OtXn88kJCQlNUs+fMcZWr14dBOA6evRoQseOHSsbiyOQZZmHw2Fl3rx5GcFg0FRVVRQEQW1tgSkIAtd1XSgtLVWi0aiclJQEWZbBOYeu64jFYohEIhAEwfB4PEZycrLh8Xjs1Dl+KQv9xrCVNEmSeFpaWiwQCOihUEgOhUJSYmIi83q98Pl8rRoMeiVg+/u3bNniWrlyZdbIkSPT/n97bx4eR3klev+qqqu71ZJarV22JK94BexADDYYE8AQliHsDEv2hKwk32SSTJJJJnPvJHOTyTdkJjNfkpswJJMF4pAJYAwEDF4ggA3GLDbYwUbeZNmStbZa3a1eq74/TpXUliVvSGot7+95+ulWraeqW3XOe96zVFZW9in+TCZjRaPRratWrbob6UuvUIwmPwEuBeYDe4AnRvJkygAYeb5+8cUXz73iiiuMqVOnpjOZjJXNZvXOzs7KdDpdUlJSohcUFAyL8i8oKMju2rWruLGx0VNXV5fctm1b8JxzzmkLBoODKvWCgoL0ww8/XFdZWZnZv3+/NxqNequrq48pyjNauJX40um03tbW5rUsywyFQrhTIvF4nN7eXgzDyIZCoUxRUVHG4/HYzmjf7Ro4rhT/QFxvi9frtaqqqpJ+vz/b2trq03Vd83q9+RZvXGOaJvF4PLthw4bi/fv3155//vkloVAIy7Lc+f54W1vbM04znx35llcxadk4WidSBsDI8uP3v//91ddcc022uLg4k81mLUA/cuRILVBUXl5uD5xzfzeYpmmtX7+++uabb24Oh8NFq1atmnL48OHCUCiUHGgAFBQUZHfu3Bk8dOiQ77rrrmv54Q9/ODsajfrymXHg8XhIp9N0dnZ6bds2i4uL3Qcz3d3daJpmlZaWpoPBYMYwjL5CORMxT979HkKhUAagq6vLH4/HMQzjuPspBsfv99Pe3p5ZvXp1WTabrX/Pe95T4PP5yGazmKZJIpEIv/POOw/8+c9//g4y76pQTHiUATAyXAR8+o477ghcddVVKcflb6VSKX9LS8vUQCDgLy8vz8LwVXrz+XzWrl27isPhsPeiiy5q37FjhwVUvfzyy2Xz58/vyt1W13U7m83yyCOP1N9xxx2NHo9HB6yOjg6fG/U/2oaApmkYhkFPT4+RSqX0oqIidF0nEonQ3d1NRUVFqqKiImUYhu3k1Y+qfPnCsixCoVDasiw9Go0qF8BpUFhYaL/zzjvWL3/5yylz5sypX7hwoe428zFNk2g02vLb3/72u5Zl5aUjm0KRL5QBMLwUAXdMmzbtshtuuMGzbNmyVE9Pjw3Q09MT6u7uriopKTFCoVDWzRkfLnRdt9evXz/l6quvbgaoqamJrly5MrJ+/frSq6++uqCmpibupvn5fD5rw4YNU0pLSxPz58+P7Nmzp7iioiLV3t7uTafTusfjsUao8Mxxj5nNZm2nNr+WTCbp7OwknU5bM2bMSBYWFmYsyxp3c/vDgW3bWjAYTPv9fq/P5xuxuuATDTfY76WXXtJ+//vfz1q+fHllXV1dXxyFYRh2c3Pz9ocffvga4HB+pVUoRh9lAAwfs4A7li9ffvYVV1yhzZgxI93T02NblqV3d3eXpVKp0vLycr2wsHDYm/n4fD5rz549xfF4XFu8eHG4p6fHLCoqysyZM6d7/fr1oZdeeqn89ttv70mlUrrX67VaW1v9r732WlltbW30oYceqo/H44ZlWVpzc7PpGgDvRh7DMOyB6Wper9c6meP6/X50XaezsxPDMDLTp09PjlR9gfGCpmkkEgkjFosxbdq0pK7r9kSc9hhOTNO04/G4/eKLL/q3bdtWf/nll5dWVFT01fO3bbu3sbHx5SeeeOLSfMuqUOQLZQAMD2cDH7v++uunXXTRRVZ5eXk2lUpZmUzG7OrqqrJtuzgUCuHz+Ya9nr9bJvitt94qXbp0aVdOkxt95syZ3YsXL0489thjFR/4wAcOer1eO5vNalu3bq2YP39+z7Rp02JOed5MR0dHcuvWrb5EIuEpKCg47apzhmHYhw8fDrS2tgYymUyfq9Xn81mNjY3FQ+3nRPhrTnYEpmlmampqkqZpTnrlb9s2Bw8eNPft24emaTpSuXDS3pMT4fP57I6ODnv9+vWhzs7OqUuWLCkqLi4mk8ng8XhIpVLhAwcOPPbMM898JN+yKhT5RBkA755LgDs//OEPl11wwQVpv99vOfP9BW1tbTU+n68gFArZhmEMW7BfLh6Pxzp8+HAgHA5rl112WXc6ndbcOf4pU6b0zps3L7xt27Yp27dvL7344ovb3nrrrbLDhw/7brjhhkOVlZW92WxW0zTNDofD/hdeeKE4FouZ5eXlvac7wvR4PPa2bdsqHn744eDixYt7XYNH13Wam5sHbRvsEg6H9VgshmVZVmVlZco0zUnfCMcwDLulpcW3fft2o6enh5KSEqX8j4Pf77f3799vr127tsrv908588wzfT6fr0/5x2Kx5sbGxt9s3Ljx7/Mtq0KRb5QB8O74EHDll770Jd+iRYtS2WzWzmazVjQaDXZ0dFSXlJSYwWDQOt2SvieDZVnavn37gnPmzIl7vd6jYgsymYy2cOHCtsrKyqpNmzbVLFmypGPTpk1lZ599dqysrCwZj8c9IBkBZWVlSUDr7u42fT6f5TbuOQ3sZDLpueSSS3o+9rGP7Y/FYh6QdsJr1qyZ9uijjw5qBDjli22AUCiUMk0zO9mVv2madiQS8W7atMnb0tICYBUWFqZOtN9kRNM0CgsL7VdffdVas2bNtDlz5lRPnz5ddz1kfr+fQ4cOvdPQ0PD9bdu2qeI+CgXKAHg3fK2uru68z3zmM9a0adMyiUTCBgiHw5WxWKy8oqJCG4n5/lwMw7DD4bB3+/btoTfffLNw1apV9blK01Wq0WhUTyQShffee+8ZmzZtCtXU1LTE43HDMAzbMAyampoKduzYUQSwbt26iurq6lhlZeUxqYO5nChTQNd12+v1ZhOJhO6UXbXc1L2hKC0ttQoKCuzCwsJMIpGYtMpf0zTbiYPwbty40bd3714MwyASiaQXLFiQcnoYTNr7MxCPxwNgrV27Vn/66afnrlixorS6uppMJoNt2/h8PrZt27bxueeeuyzfsioUYwllAJw67wVuWbly5fxrr702WVpaaiUSCTuTyXjC4XBlJpMpqaqqskdivn8g2WxWKygoyN566637br755iEVsqt4k8mkcd111x1ymwQ5KXW21+u1V6xY0XL55ZcfSqVS+vFqExiGYWuaZmcyGd1JGRxSqbvGyMl4QHKq/GnJZFLXdX1SegA0TcOyLL2pqcm7efNms6mpiYKCAtrb26mtrSUYDKpqgDk4bn1r7dq1hQ0NDTOuvPLKwuLiYtLptNsdMrl169aHN2/efGe+ZVUoxhrKADg1rjZN869uvfXWugsvvLA3EAjYqVTKSqVS/s7OzmqPxxOorKy0DMMYtYe0aZpWRUVFxm2FezycSnkAOAoc27a1UCiU0nXddgP2BqbbuVH9lmXZ3d3d3ubm5qJdu3YFFy1a1Dl9+vTocATpZbNZ6uvr9a6uLhobG83p06db+W6FPJo4nf60np4ez549e8zt27cbnZ2dBAIBenp60DSNxYsXk81m+8rWTmZc71ZLSwtr164tT6fTdRdddJHP7/f3Kf9kMtm2d+/e323evPlL+ZZXoRiLKAPg5PkYsOJzn/tc6VlnnRX3eDx2JpOxY7FYcTgcriwsLPQFg8FRV1q2bTNYG99TIZvNHpNfb5qm7fF4LMuy6Onp8bS2tgYOHjwY3L17d/HmzZsDgDF37twe0zT7KvI57W9xWu3iGBW2+/l4SkvXdcrLy7ORSIQ33njD4/f77ZqamtRw10sYazj3RUulUsbBgwfN3bt3e/bt26elUin8fj+JRIKmpiZuvPFGCgsLaWwcscZg4wbDMDBN09q5c6e+bt26moqKiuq5c+eabslowzDo7u7evX///l9v2rTpe/mWV6EYqygD4OT4akVFxTl33323d/r06QnLsux0Ok04HC6Px+NloVDICAQCw1LPP1/oum77fD7L4/FY6XRa6+zs9B48eDDY1NQUbGlpKTxw4ICvsbHRS//cc1bTNMsJfOw7jmVZdi6u1yGbzWJZ1vFujlZZWRnv7OwsP3TokLZ582bv+eefr9XW1iad40yoIa9T+dBOpVJGa2uruWfPHmP37t16NBpF13UKCgqIRqNs27aND3/4w9TX13PkyJF8i513PB4PhmFkX375Zf3pp5+ecfbZZ5dVV1frIP97pmnS1NS06eWXX/5pc3PzA/mWV6EYyygD4PgEga8uWbJkwR133JEtLS1NW5ZlOZ3qqtLpdEl5ebnm8/lGJMVvtNA0jWg06tm+fXvR3r17i1taWoo6Ozv94XBYC4fDOoMHnBl//OMfZwYCgWmuknc9AE1NTd7e3l7a2tpCmUymb/nhw4dNYNDWwul0Wp81a1b84MGDaJrGgQMHiEQi5nnnnafPmzcvaZpm1jEixq0h4HpCDMMgkUgYTU1NZkNDg2f//v1aJBJB13U8Hg+madLe3s4rr7zCF77wBWbMmNEX0DaZ8Xq9ZDKZzDPPPGM+++yzcy+//PLiYDDY18xH13Xefvvth9atW/dt4C/5llehGOsoA2BoLgQ+eNNNN9W+//3vjzsPHyudTnvb29un6LpeWFVVZZmmOeLBfiONbdt4PB67uLg4XVpamgyHw2Y6nfYkk8ncEf8xu1mWlclms5lcxZTNZpk6dWoK0FKp1FHLy8vLM+eff36kqqoqNTDNMJPJUFVVZQcCAdra2qiurqarq4u1a9caBw4cCCxevDhdWVmZdtMDx4sydJW+061Qi0Qi5r59+8yGhgb98OHDpNNpPB4PHo+nL7Ni79692LbNt771LUpLS0kmk5xMjMdExckisTs7O61HH3001NHRMeu6667zmqbZl9/f29vbu2PHjv+7ZcuWr+RbXsW7ogIoG7BMAzLAAeddMUxoQDHQk29Bxhg3VFdX33L99dcXLlu2LA6QyWTseDwe6OrqmhoIBMySkpIJFaSm67ptmqZtmqal67odi8WM5ubmgoaGhmBjY2Owubk5sGvXLhNwNVH2m9/85jtnnnlm18kGAbojtd7eXmPgSN4wDKunpyfY2dk5f9u2bRQXF1NSUuJmBhAMBpk9e7Y9e/bsTEVFRaagoCCbG1MwFr4HVx5N09A0zbYsS0ulUnosFtPb29s9TU1NxsGDB7WOjg43iM2tV49bAbGtrY1FixaxZMkSvF4v6XQakBiJjo6OZEtLy/4pU6Z0OxUBJzxusN/Bgwe11atXV5SUlNTNmzfPo+t6X/voWCx2cMuWLT95++23f5BveRWnzReBc4G5iBGg0f+s0YEm4CvAK3mRboKiPABHEwI+eMYZZ6y49dZbjblz58az2SyZTEaLRCKhaDRaWVJSYhQVFY1ocZ98YFmW5qbggRgE9fX1vTNnzowlEokjra2t/n379pXs3bs3tGPHjoIjR44YyWTSk0wmPel0+qTd8se7Z5ZlUV5ezsqVK1m/fj3ZbJaysjJ0Xae3t5dt27ZpDQ0N5pQpU8xp06Zlq6qqssXFxVm/32+5RYQ0TbPd7IaR/H6cqH131K6BTG1kMhmtt7dXj0ajemdnp9Ha2qq3trZqXV1dpFIpNE3D6/X2BUum02lisRitra3MmjWLZcuW4TascZX/ZMXj8WDbtvXmm296nnzyyalz5sypnDp1qpFr+EUikdf/+Mc//iyZTN6bR1EVp89twO3A5UAM6AWqgSzgBr24HgCl/IcZ5QHo5yzg5osvvnjhlVdeSV1dXTaZTFpOfn95Op0OhUIhLRAIjHuX/6niKC0LsGOxmKepqalo//79xfPmzQvX1dXFhiMN0DAMKxwOBzVNmz99+nSOHDnCunXrSKfT1NXVYRgGmUzGDSbEMAxCoRDl5eV2eXm5VVpaageDQauwsNDy+/2WU+TIzvHS9GUr5JLb9XCwmgY5ysateaA5dRTIZDJaMpnU4vG4Ho1G9UgkokciEa2rq0vv7u4mGo2SGwPhvpwYALq6uuju7qa2tpazzjqLuro6/H4/qVTqGDknmwfANE1SqVR2y5Ytvueff37GueeeGyorK8O2bQzDIJ1OE4lEnn7wwQd/BDyZb3kVp8VdwJcRhb8FeABoBD4LLAb+A3gDCAAR4LX8iDlxUQaAsBS446abbpq6YsUKq6SkxMpkMlYqlfJ1dnZWGoZRGAqFNI/HM66D/YYDwzBsXdftTCajWZalDVc+umEYVnd3d9C27fn19fXuVAGbN2/mlVdeYdasWVRUVGDbdp8R4HphdF3H5/MRCAQIBoN2cXGxXVhYSFFRkR0IBGy/328VFBRYHo/HdgLt7Jy0xNwLcI0EV8lrmUxGy2QyWiqVIpVKafF4XIvH41osFtPi8TixWEyLRqNab28vqVTqqDx9V/E7Ef9omkY8HqelpYVoNMrcuXNZtGgRZWVl+P1+twbDoPdnMhkAXq+Xnp6ezPr164sbGhpmnnfeeYFAIEA2m8Xr9RKLxdKdnZ2/f/TRR78EdOZbXsVpsQz4IbAE+DXw6Zx1pcBzgA+4mH5PgGKYUVMAsBz49Mc//vHAsmXLMk7AVjqVShW2tbVN9fl8vrKyMst1LU923JoBroIbCVwl7/P5WLlyJQsWLOCxxx5j9+7dnHHGGVRXVwP0Rcbbtk0ymSSZTNLR0aEBmjvadqPqfT4fpmnaXq8Xr9eLx+PpU84Dz21ZFul0mmQyqWUyGdLpNKlUinQ6TSaTOUZR5879G4bR99kN7IvH4xw6dIjDhw8TiURYuXIly5YtIxQK9V1rJqNimzRNw+fz2a2trdk//OEP5bquT1u+fLnPLazl9Xrp7u4O79u37+cvvPDCN/Itr+JdcQMSaL0ZuGfAui5ktP9hJDbgH0ZXtMnDZDcAbq+rq/vgnXfe2XvmmWemU6mUbdu2HQ6Hy7q6umpdt/JEL0ZzOozG/XAV7dSpU7n77rvZv38/r7zyCtu3bycQCFBdXU1BQcFRStxVwK58zsidnp4eAM01GNz1A68j91hu5L1r7OS+3BH9QNyAvng8TkdHB7FYjGAwSF1dHeeffz7FxcUkk0n27duHx+PpC3b0+/1un/pJ+VtzI/3ffvttfvWrX9UvXrx46qxZszT3f88wDMLh8O7777//O4irWDG+qXfeDwC7B1nfBqSRAZpihJisBsAC4IZzzjln6W233Ratra214/G4bVmWHg6Hy3p7eyuqqqqsgoKCSTffPxZJp9Ok02nq6+uZMWMGbW1tNDQ0cPjwYQ4dOgRAUVFRnxLNdb87jWL6OFXlOpiHwH257n43UyEej5PJZAgEApSUlLB48WJqa2upqqqioKCgL7Avk8mQSqWIxWJEo1Hc2gehUIhgMNgXJHg68o5HnO/MevHFF81169bVX3DBBRU1NTVYloWu62Sz2WxnZ+erDz744NeBZ/Mtr+JdoyHz+mlE0Q/GfGQKYM9oCTUZmYwGwKXANTfccMPMiy++uLesrMzu7e210um0LxwOV9i2XTxazXwUp4ZbVyAUCnHBBReQSqXo6OigubmZxsZGmpub+1zFhmH05de77n63WIxrHABH5dfnKnd3KsB9d4L+jlLijsua0tJSKisrCQaDFBcXEwwG+xR5JpMhk8kQjUb7jAm30l8gEKCioqLPGIhEInR3d+P3+yktLaWwsBC3P8NExev12vF43Hr22WcDf/nLX2ZceOGFxaFQCMuy8Hg8JBKJ3ra2tqfXrFnzISCab3kVw4INtAMmUDTI+rnAHCQj4KFRlGvSMdkMgBu9Xu9VH/rQh8qWLFmS9vl8diqVsuLxeGF3d3elz+fzB4NBezSb+ShOHdu2SSQSxONxstksJSUlLFiwgEWLFuH1erEsi97e3j6lGo1G6enpIRqNkk6n+4IIj4dhGH1GhBtgWFZWRnFxMUVFRRQUFODz+fB6vfh8Pnw+X5+3wT1+b29v3/EG1izIHdmbpklpaSklJSUkEgm6u7s5fPhw3zSH1+sd5juYf1yXf3t7u7V27drSaDRad9555wUKCgqwLAvTNInFYh0HDhx4ZMOGDZ/Kt7yKYedNJLJ/ETAP2JWz7ptAJfA7VIbHiDKZDICPVVRUvP8jH/mIZ+HChRnAsm07G4vFSsPhcFVRUZFRXFycmzamGGO4c+SRSIS2tjYSiQRFRUWUlJQQCAT6CusAR43cc0fzuRkEINML7mfXSzAwbW9gRL+73MU9Xm7lw1PBNQg0TSMQCFBQUEAoFKKlpYWGhgZmzJhBcXHxu7x7YwcnrdTev3+/vWbNmpry8vIpixYt8hqG0af8I5HIwZ07d963devW7+RbXsWI8N/Ae4CbgfsA18j7P0hw4KPA1/Mj2uRhshgAXw6FQiu+/OUvJ2tqajKWDP+sjo6OykgkUlVZWWkXFBTYkzUAa6zjBt1Fo1EOHTpEb28v5eXl1NXV4fV6jwroGxhN7yrqgbEAucc+me88d5vjpeu9G3J/f36/n5kzZ9LS0sLu3buZP3/+kNcwnnCMHOvVXrrYNgAAHF1JREFUV1/loYcemrZ48eLq2tpaDegL9uvo6PjLmjVrvhuLxVblW95xxhxgIRBG5tfrgBJnnYUU2mkHDgM78yFgDj3A54DXgQ8isR1hYAfwbcQoUIww4/+JcnzOAj6xdOnSWZ/85CfjPp8Pt7hPe3t7TTabLamrq8u4bUQVYwdXEWqaRjqddpsDUVlZyezZs3HrwJ9IEQ8V7T/WcY2B2tpaDMNg//79FBcXj2sjwPHQWKtWrfLu2LFj1vLly4Pl5eV98RRA6p133tn4zDPPXJVvWccp7yDBc886f78OPEV/0N35SP79U8DVeZBvIEng/3Neijwwfp8mJ+a6UCh0zVVXXVW5cuXKuGEYdiKRIJFIBMLhcKXH4wlUVVVl3LQtxdjCrfXe3d3NoUOHKCwsZO7cubhzxJOlTG46naayspJUKsWRI0fw+/0jVn9hpHDr+UejUfvRRx8t6urqmvW+973PX1RURCaTcQMdo88///wfdu7c+cl8yzvOeQcJlmxDaudvHLD+u0DBaAulGJtMVAPg03Pnzr3gyiuvDC5atCipaZqdyWTsnp6ekmg0WhEIBLzBYHBCNfOZSDipX7S2ttLV1cXUqVMJhUJMVmPNtm3Kyspobm7Wk8mkoUlVqnyLdVK4yv/w4cM88cQTlaZpTj333HN9Xq+XbDaLruskk8mWl1566bc7d+78Wr7lnQCcj0TWv8Oxyh9gE/1NdhSTnIloAHxz8eLFZ91www3mtGnTkpZl2ZZl2R0dHZWJRKI0FArpgUBgwjXzmSi4Sr65uZl4PM6MGTMoLCwcsXn38YLX6yUQCJg9PT0+pyrlmHcDuPn9O3fuNDZs2DClpqamqr6+3pOb2hiJRN5+6623fr5z584f5VncicKVSJrdwOI61yOBdSqqXtHHRDMAfrB06dJZd955p1VUVJS2bdvKZrN6W1tbjWVZJZWVlZimqUr6jmFs26a1tZXe3l6mT5+Oz+eblKP+XNx+B36/n97eXmM8KH9nvj+7ceNGc+vWrdPmzZtXXl1dreXEdtgtLS2bX3/99XsOHDjwSJ7FnUisBLqBVQOWXYwYAApFHxPFAFgC3HXNNddU/PVf/3XKsiw7m81a6XTa19raOsUwjEB1dbVy+Y9xdF23Ozs78Xq9TJs2DZ/PN6lH/S7u79bn81FWVpbRdd0ejg6MI4VTiyHzwAMP+BsbG+ecd955hcFgEMuy3JRK+9VXX/3Dli1bPofUfVcMH9XIPa0G/gbJBPgscDKBlQ8ANwJ+nMZYx+FJ4NrTF1MxFhjXBoCTO/3x0tLSS2+77baCCy+8MOF0ZNPi8XgwHA5XFxUVeUKhUDa3c5xi7OHEadDd3c2ZZ55JUVFR3xzxZEfTNLd8cMbj8SRBjKV8yzUYhmHQ3t5u3X///aWmaZ5xySWXGG6WjRPbkbz33nu/DfxrvmWdgPyb834AmA0EgcuRlMAXT2L/Dw6DDOcg6YgeTmxEDCeuQfy7UTznuGc8twOurq6u/omu6++pra01p02bls5kMq6LUUsmk4W6rhuBQMBSo8ixj67rxONxMxaLherq6nCLwij64yK6u7uzpmlGdF0fk60DNU3TLMuyGhoa7Kqqqsp58+bp0Geo2/F4vGn16tU/iEQiP8m3rBOUHUgdgA/R3zCpCon8/8woyfBV4K84OS/CcKI557sBaB3F845rxrMHYGFhYeHN55xzzqBpYT6fD+C0q7MpRhdN07AsC8MwiEQiaqpmAE4xJMOyrNKxahgZhkFzczOdnZ2sWLGib7mmaZmurq43nnvuuf+MRCK/zaOIE5kAUAskOLpb4nTg8ZM8hokUDrIZWnlrzisCDPZwXY208tWPc4yRwJVLKf9TYDwbAKlAIEBVVRUw/gq9KI5G0zTi8TiJRILS0tJ8i6M4DVyvzZEjR/qq+mWz2cyRI0eeWr169U+QAjSKkeEryKj7rQHLX0WqALrMBPYNcYx/QUbvPo5vAFjABvrL9+bS4LwU44DxbABYuTXeFeMb1wMw2dP9xjNusKJlWXi9XuLxeHbfvn0/27Bhw78xtNJRDA+XIYp7YEZF7j/Tt5FpgqG+ixeRIkIn0gs28JfTkFExxhjPBoDm8Xj6OqUpI2B84xb/cWv5T2YjQNd1TNMcdxX/3NbLhYWFtLe39zz//PN/29TU9It8yzVJqHfefzPE+v8GliOtdofiYeelmCSMZwPAbGho6ESqXenaeHtaKo5C1/VsPB4PBYPB9y1dutQTDAZJpVLjTgmeLrZt4/F43Da47Nq1yz506FDUtu3ndV1PWJY15tMhPB5P5siRI3N7enqKVq1a9RVkPlgx8vwcqf4XB34KPA94gRAwC7gImR74Yr4EVIxNxnUWALAAKXlp5FkWxbsni6Qt/ftHP/rRK2+55RZ8Pl9uo5gJidsG2O/3E4/H2bFjB48//njyz3/+8zakI9r9SG/08UAWqAH2ovL7R4tFyHMwgwQA1iIBgSCu+jTSZS8M/CkfAirGLuPZAFBMTG6ZMmXK97/3ve+dceWVV2JZ1oQ0AlzF7/P50DSNQ4cO8dJLL3Hfffcdeu2119YB/4SaN1coFCOIMgAUY5HPA39/zz331N1yyy2Ypkk8Hp8QRkDuiN8wDBobG3nttddYu3ZtavXq1Y8Da4F78y2nQjFM3IjUBqhBPERvA9flVSJFH8oAUIxVbgG+c9dddy34zGc+w6xZs+jp6SGdTo9LQ8BNiwsEAui6zu7du9mwYQObN2/OPvnkkxuBNai+6IqJxQeAPwAHgSRwlrN8FzA/X0Ip+lEGgGKs8/Pi4uJPf+Mb3+DGG2+krKyMRCIx5tMFXSNF0zRM0+wL7nv11Vf5xS9+wdq1a2PAM8CPgfX5lFWhGCF2Av8v8Cvn7znAs8AU4CeooMS8owwAxXjgAuAe4Ozvfve7RVdccYVWWVnptpvtyz3Pp0GgaRq6rvf1LnDlicfj7N27l40bN6Z/9KMfxZBgrAeAf8ibsArFyHMnovD/acDyS5DMrS3A0iH2vRIxEkygDHgDmRpTDDPKAFCMJz6B1Dmf/qlPfarmsssuC9TX1xMMBgkEAvh8vr56ApZlkc1mcZtAuZzq9MHAfd2XYRjout5ngKRSKRKJBL29vUQiEZqamtiyZUvvj3/843YkIn4X8EfEJapQTHSuZegSxDbiCbh0wPIK4J+BGUCHs+xipOzw/cD3h1vIyY4yABTjkfcBtwML6+vrq66++ur6efPmFU6dOpWysjJKSkoIBoMUFBRgmiaGIVmirjHgVo8cqniUq+RdBe++3J4TqVSKWCxGNBqlp6eH7u5uWltbOXjwYGbnzp1HnnjiiRbkofUOMtr5/ejcFoViXGAjVQn/ecDyPyL/2w8CX3CW/RPwj0iBoptHS8DJgjIAFOOdm4H3AFOBmve+970z586dW19ZWVlUXl5OMBikqKiI4uJiCgsLKSgowO/34/V68fl8x4zwLcsilUr1jegTiQTxeJxYLEYsFiMSidDT00N7e7vd3t7e0dDQ0PLWW281Am1AJ7AHqb/+Uh7uhUIx1vkPJDNg2iDrbMRozq1WWA18C4mXeWzEpZtkKANAMZGoQiKN65C5wwpn2ZTp06fXlpWVhfx+f9Dr9RZ7vV7T6/UeMx9g2zbJZNJOp9OpdDrdk0gkIl1dXZH9+/e3Ac1It7EOoNt5P4LURVddyBSKE9MBfJjBixLZSBGp2aMq0SSnON8CKBQKhWLC8wL9rv3BuB4xqJuQzJi3gb8ZBbkmLeO5F4BCcTMyEl93EtsWO9v/aiQFUigUxzADceM/jaS9DsYngI8iBsBqpISxD3hiFOSb1Ix3D4CJpIwoJh9vICl1J8PHGLqF6ReB/wSmn+SxAsg8ZflJbq9QTFamAv8L+A5iCAzGHGR6rQdJ+VWMIuPZAJgJ/Bvw3XwLohh1PozMGb55ktu/hcw/DvaA+R0SvLfkJI/1KWAz8lBTKBRD83Hgm4MsX4gY5SClr22ki+FgXJzz+VbgKuAmYMXwiDh5GfMtRk/ASuQHNm8Ez/EhpGrV+0fwHGORm5Hc27HKrcBWJODvayfY9u+QAjwmcP4g67NIN7XMSZ67EillWjvEeh/SijWXAsb//5tCcSrcgQzOVgJPIsV81iJTdr9Aun9Cf/fC4MADIFMDNzmf70KUvoVk3Hx1RKSeRIz3GIC7kAftSHoxzgQuQ0aQY4ViJOr8TuCR0zzG48h1BYZYPxup2mUi83FjiQ8igUJrkfr5lyElRwdDB84FfoTk4y8ahvNnkNrmQ90XHfE0/BR5WK1Dopv9yNTBpcDfIvnOCsVEZDbwa+T5MZih3IRMu4F4CM5D/jcPAA8hCv5soBepAgpwA1Jf42nn708hMQXHCyxUHId8GgCzkdHY2cjckIejR0gWsIqhFdyXkAdwF4NbjsNF1jnPWFKCPciP/3SVP8A3kNHzUFiAwdi6bpe7gM8CMeA2ZDR+O4MX3HnQWd6A/FYWDpMMxysp2IuMeKYgD7LPDFj/X0jwokIxUQkD3pPcthHx4t6IdAo8A5mS+xlSSMslxNH/N52oaYB3Rb4MgH9EOkUtQhRsgbO8BzECNOThPtSc0Cxk9PtBJEo0iIxWn32Xci1DXP3FQBz4DTI3lQWKkOpVVcArzjqXryMjaR/SAMNdd6OzfRYoRQLWDgN/j7iR25Af+lREmR9Aitpc7ZwvDfzvIWR1O2stQmpqH3KW1SN95P8tZ9tLnOuygf2IAjobscyfcraZh7j9y4F25DvJLZV3EXA58k/dSf6U2BeB15B7lQC2ARcibsaBBsDfOtu9iMh8ALmvo0EQ+T38eZB1DyFyKxQTlY4Tb3IMjzD0oGYK8jzKnaazEa+a4jTJhwHwG2TUdgD5sl9H3KUrkfkiG1EyTQxeLALgX5Gykb2IEp2JuFafzdlmMeK+93K0ItMQBfeS8+5yKxJPUIEYHymkYUUCMQiWIRboTMTlrNOfUrYCUfJlznUUI3ED70NqYu9FRp//6iy/FFFInYghVOKcyzUyQs611SAj1r8e5B58HRnFzwY+iSjjNKLUr0UMj284x/qBc01JxBABabe7GHGvzUeMskWOTBGkAlfW2fYCJI3H6xyjyrkPdw8i10jzXqQqWML5+ykkKOgcZ92rzvKZiNHTA3wekT2AeDXO5uSDB0+XbyG/u1yj5H1IbvNTg+6hUCiGopl+r2QuXXmQZcIw2gbAfyHR2y8h8zav5qx7CVF0553gGH+HPMx/hCjpNiR6e2AKVz2iFPwcbQDoSH/q3RxtAHwQUXpf4+j2rO8BChGL9nZkPvmXiBHzK2SO69qc7bcho+WfIEqqChmN/xRxuX8SUd7/4Wz/ImKUuMbAYsQFhnPeziHug9v6LowYEFGkixZIyczrEANgKTLVMtBlnUKUOc51nY98Pz/IOYabXvlt532l8/49xIi5kXc3DXGqfAFo4eh4jCeATyPXvoz+39SdiNGzC7n2FPIQmY/8LkbaALgGMaBWI1NcH0FGL2+P8HkViolKO/J/7FLO4B42xUkymgbAlchIzUZG200D1n8feVg+giiWoVgKPEr/D6EVMQiqBmz3FqIAPBxrAHQPOP9KxA2/g2N7s/sR5f+68/driIu9xvk7jRgDn0WU8lRE6YBYq0lE+QN8DlHYrvIHyU1/ryPjYsSL8KRzTSnn/XrnmgfDRBTNnpxlO+if616LeEaakfnwLznLbfrvywzE4/AD+nkWMXZARtNZ+gvulCOekoWMrgFQixh8A93njyJG1yWI4XUtMqXxMJLi5/IvyO9nwUgLitQ6P4AYluciBtlqpNCJQqE4dR5ApiE/gAwEEgwd/Ks4CUbTALgBUdIvc6zyh34F957jHONnyMizGjEiQJQTHDu3m0Z+IDpHGwAGolhzm8cXOsuzHIvmbDtwBO0e8/NIV6vPIQ/8H9N/X7UB5y5FFG0uKWcbC1GsBxHPQpmz/E+I0TEUA88B/cGUrhFxB5Jz+xEkfmGgl0Xn2GvPvT8GUnRnHWJw6Mi93XIcuYab2xEvxw8HWfdLxAtwnfP3WYi7/3cDtmtD7tesEZLR5fPO+e9FHlo7nPPuGOHzKhQTmYeR6dRy5Nn2Q04v1kDhMJoGQC3ypb08xPpznHdriPXXIW7+3yMjbB+i5BciruoaJA5gt7P9VcjIuZBjPQC7kYezq1jXIMFlc5C4gYEPao2jDYDcz/8L+B/6U7oGGgq5f/8OiQi/lP7o1oX0B7K8jiivk0kP03LeB8rnkkUUdgsy+rWRCPoPOp/dfdoR4+Qu4D5n2dn037cY8t394iTkGikuRYy+j3BsPn0WCarUkQC7y4A/DHKMKcj9qEY8AUP9Ft8tNyP/W+7o5A3E+FDzlQrFu+ONfAswkRhNA6CNoyP+B/Jl533TEOtvRhT+wMCzlUgQXi3iynYNgF9wagrrEcQ9/p/IPG2S/hHkQAVr0a8cH0fcUt9Bgv8qcmQYODp/AQlg+5mzH4hXxEJGjI8hymsD4ua2EOX8/UHkdUfsgxkArkchi9yfDyD3bg5iDDyAuMndff4bUfifR+IpEohBFnPW/x1iMK1CshhAphzcqY2RRkNyhf8F8fQMZmS5nfqWI7ECZYjCb3a2qUeMg68iwY4pRo7ZyEgll0PO+0WIgamMAYVCkVdGszLZauShN1hFvYuRef83kCDBgXwImbf91SDrXkei1ms5Ng7gVPgpogA76E+RA0nrew6Z93d5jf5+759EClMsQ2ILfoFUqHP3HRhTcBXiSn8vEhT2KnJfTKS87KcR5fEexDswVKEetxhGsyNf7rz42/QHx3QhRsm5zufP51zDs87nNxHD6nXEA+JHRtrrEM/KOsQDYzrHmcPopdOBGDQdyHfwJrB9wGsb/e14X0TuyQ76lT/I1Mpm5/N2Ri4Y707E67RxkHVLkcpmSvkrFIoxwWj2AngAeZjndnj6GOLSfx0ZvQ3GPqRYxGCciSgzm6OD2MYLWxncXa0YPX6NGATzT3L7ryHBfD8bZN2fkN/iasQzdTWi9H+OFCO6b5B9FAqFYtQZ7TTAuxFX6G2IK7oLcTO/jqSgvTjIPl9EDITDyAM1tzjQDGfZm8hoz4uks41mcNqp8ntkZN+KeBmiiGtakT/cwMZ3y0JkmmcvEuhahQRQWkiA6FrGdn8FhUIxychHN8ALkJz/65HiKMdjGiJjMcc2WPEgaXdVyDzwNIZ2mY8VliIpg99Agu7OPf7mihHih4jx5db0t3I+bz/BvkN5AAYa1O7vVlUrUygUY5Lx3A5YoXg3dNNfDyH39Tcn2O94UwAKhUIxLlDtSRWTmXWDLGujP8BToVAoJizKAFBMZr4yyLLnGLn6AAqFQjFmmEwGwOVIPvvnkBiE0b72i5GMhbHK/0aCMe9D0gYnA/vpz88HqZvw1uCbKhQKxcRiMhgAbje+HyNGwEeQoj3XHm+nYeZcpHnRieaW88U/IqV2X0ei2CP5FWdUeTLn8zuoNr0KhWKSkI92wKPJ3yJtWR9A0gyTSES2wdHNc0aa15Aqg+0n2jBPzEJ6FHwi34LkgReQbAyQ38Tqk9xvYP8FhUKhGFdMZAOgHlFoj3H8kfcFSJ35EiQF7ClEKcxGUhWPIM1mQAoV3Ux/2eLr6G8XvMvZrtzZbyZS4+B3iAfifOd9p3O+5UgGRi8yCn0Zcb3fSH8DojOdY/wzUp53ILcjZW1Bqtw9Bnzckf0fnOUG0o74W0ja22cR5VXk/H3IkcVEatc/hrjCLwOCzjbPcnTbzU871+dBuhn+EunNcBvShc9AyiH/krHPO8j3Mp3Bm1S56PT3qRhM+fsZ/DtSKBSKMclENgA+ysnN6Z6HtJFtRIyBC5BmObOQssS5iuwcpJjRl53t/hFJJTuA1J3/JdIc6H2IK7kEGf1HEKX5AtLRarnzanGOcy4yCg0ANyEFjnYhhsU5SIW6WwbIfT7wfxAFnEQU9WPI1MZF9BsAOvD/APc421zvXFsSUepubX8TaajjR/oBLEeKK13r3KMjjkz/FzEODjvXXuRc998gBsBexBi4FSnfO1Qb47HCy0jZ4ADH77poIQWbMkh55BByXx5E/o/+jmPr/ysUCsWYZqLWAfgZ8kC/OWfZV5FqbBs5tqkQyOi5GxmFL0fSwXIrt91Ff4OcTyEjxi9zNJvpr7HvUokYIv81yDn/ATEErnf+fgpRSD7n708gnomB3DLE8l/T34zIJUV/EaXHkZK0V+Ws/x3Sk2Aw/gUpk+uO+jvoNy5c6pz9/z1n2cMM3dhprHEv4pmZeYLt9jJ43YDwiEqnUCgUI8BEDgLsQVzRuRHt7chIfwH9rvNpyLzv40jXPD/9npGB3fxyeRIpS/xZpHufyx+Q0fQe4J+G2HcBUjP+UeBCZKSf643pRkboIKNrC2l1nMtmZAS/C1Hgs3NkPh4eJPr9qZxlg5XCXYfcl3MRI9EErkDuzz8P2HYq0kBpKZJG9xxwBjJSHg80Id/XvhNsd88Qy/9neMVRKBSKkWciTwE8j8zR56be/cp5baNfsT+JjP7+BxnJXcrR9yVXocZyPjchrvXbkdH0XsS1/u/ICHwJ0nkvRH8MgnvOtfR7IjTEne8d4jpKnHdjwPJDSNvbmxwZfoQYMDC4YXciwyCXZsSQeQlpq1uPeCTSDG4Q+ZzlDyHeBt05X+cpnDOfvMbJjeJ/iky7DCxJPZhnR6FQKMY8E3UKAGANMlf9qQHL30TmskEU1zzn8/XIfP0diNv+WY52Y69BPAsgCttVtMuQALCrB5znPvoDy3YgHeHcc7rc7RzzDufvtfS3rQUoRZTqggHHzjVSfoIYNdcicQm5yuxbzvnc7Z/i2BbFf0RSAEFiDnLl+xbiNfkKcr1p4JsD9p+FGD0/Z3xSjMRwnAz3c7T7f+vxN1coFIqxyUT2AIB4AB4B/hX4K0QZVyAjODfXfRsyb/4E4o73IC53tyTsRxHFn0BG43FnvzuRYLsw4mV4G/Em3IOMmlsRg8B1GyeRADIQd/N6xEuxAhktJ5GRtIUEL7p4kUyBgR6Cm5Fsgz1IvMJ2ZBpjH2LwbEXiDqqcY5c615SiP5rdJUP/lMPryBTBn5Cuiiucc2ec/X6IpDS+F4kHaEcMgp8gMRb/48hUDfw3R2cPjFV66DfsTsQWJEjUZaAxpVAoFOMCA1E6qXwLMoI8iCj3BUj73Q4k6OtHzvqfIaPeEBLw1o085A8h8+BhZ79NSBXBqcgoPYrMuy9AlL8bbFiGzNdPAb4L/AYoQAyPbYj34T/pV6zfRoyLl4CDzv576Pc8pJ1zPka/8QHynZ2FpK/9CVG+IEr+OSS2oRMxYELO8aOOHPs4ut59qXO9bqvl/0CKJplIHEMXYkzsce5JAzLHX4AE/72ORNNvRTIWpiGBjY9z8op1vFCGxDqUIVNCqzh+9oBCoVCMWSbyFIBCMdyYSPCmjRiKF+RXHIVCoTg9JnIWgEIxEqTpr52wn6PjNRQKhWLcoAwAheLU2Y9MJXXnWQ6FQqE4bZQBoFCcOjuBFzlx3QCFQqEYs0yGIECFYrhxs2feRnoJKBQKxbhDGQAKxanj9l44gJoGUCgU4xiVBaBQnDqnUllRoVAoxhwqBkChOD2G6hGhUCgU4wIdZQQoFAqFQqFQKBQKhUKhUCgUCoVCoVAoFAqFQqFQKBQKhUKhUCgUCoVCoVAoFAqFQjFG+f8Bhgeh6NXzUN0AAAAASUVORK5CYII=;" vertex="1" parent="116">
                    <mxGeometry x="2.8500000000000547" y="30.5" width="424.31" height="150" as="geometry"/>
                </mxCell>
                <mxCell id="120" value="Cyllindrical Symmetry" style="swimlane;gradientColor=none;startSize=23;fontColor=#000000;fillColor=#DE7A73;strokeColor=#DE7A73;" vertex="1" parent="32">
                    <mxGeometry x="450" y="40" width="340" height="160" as="geometry"/>
                </mxCell>
                <mxCell id="119" value="" style="shape=image;verticalLabelPosition=bottom;labelBackgroundColor=#ffffff;verticalAlign=top;aspect=fixed;imageAspect=0;image=data:image/png,iVBORw0KGgoAAAANSUhEUgAAAgAAAADECAYAAADpnplxAAAABHNCSVQICAgIfAhkiAAAIABJREFUeJzsnXl4VEX2sN97e0139oSEhDXsoCAii4KAqAiiiBsqrqPoB+rgOs6gM66jP3B31HF3cFfU0REV9wXcBhEM4sI2IIQkJJB96/1+f1TXTSd0ku50Nsh9n6efpLur6p5bt7rq1KlTp8DAwMDAwMDAwMDAwMDAwMDAwMDAwMDAwMDAwMDAwMDAwMDAwMDAwMDAwOAA5yogAKwOvh8OjAFeAdZ2llAGBgYGBgYG7cuNgAs4O8x3N3SwLAYGBgYGBgYdxA9AaaPPLIADSO94cQwMDAwMDAw6Ahfwdcj7a4FjOkcUAwMDg/bF3NkCGBh0Ec4ArEAxcB1wfPD9T50plIGBgUF7YSgABgaCeYACPA7UAocA1cDPnSmUgYGBgYGBQfuyB9gZ8n46MLmTZDEwMDAwMDBoI3oDvZr47jigCni0ie8Ht4tEBgYGBp2I2tkCGBh0EJcDi5r47gzADnwa5rsFwPj2EsrAwMCgszB8AAy6C5OAJOBtYE3I505gIuK34Eds+esN5ABnAlOBCzpUUgMDA4MOwFAADLoDlwFDgVRgGvUKgIrw9s8FChGm/h4I7/9UIA6xLXANBgYGBgcZhgJg0B0YCfQM/n9YyOcasB4RAKgMGBD8XAFMwL+BzR0ko4GBgYGBgUEbMhr4DTHYawhnv2mdKpGBgYFBF8BwAjQ42DkaGBbyPh6Y1UmyGBgYGBgYGMRAFmKPviWCtF9TP/uXr93tJ5qBgYGBgYFBe3Eu8CEwO4K0GrAVEdHvZ2BD8DPDs9/AwKBbY+psAQwMWsHpwB+AOuDdZtItA3YAS4E0oAi4DbH0NRl4sT2FNDAwMDAwMGhbViNm8ataSDcj5P9XgeUh70/C8IExMDAwMDA4YBhH/Vp+KfDXCPO9RkMFwMDAwKBbY8yADA40/hTyfwpweGcJYmBgYHAgYwQCOrDJQRxw40VErlOCLwvgQax//9Zp0rUPMxu9HwecAqzoBFkMDAwMDlgMC8CBzS7gbOBfwFyEU6cDEfP+j8ClnSdau/B/QGLwfy34ty8wpnPEMTAwMDhwMSwABzZ+IBkYgVjffhcxQHqA4cA+hJIX6CwB25iLgD3A+8AoYBMwHbEj4LZOk8rAwMDgAMSwABz4DEA4w30ffF8JuBBb4N7i4Bn8rwLeQxzd+yEidv8LCAXgZ+CEzhPNwMDA4MDDsAAc2EwE0oG1iEER4BDEEsC3nSVUO/FwyP8XUL/c8TNwMpFFBTQwMDAwCGJYAA5sjkOExS1FOMfdAtyEUAq6GsdEkdZC/Vp/U2iN3nujksbAwMCgm2MoAAc2wxHPsArhDDcKOJSu6RH/f4gdC5HwNHBqO8piYGBg0O0xFIADlywgG7HV70XgKeAexLp/V+N64Ejg/0WQdioiSp/h2W9gYGDQjhgKwIHLFGAwUIw48Q5gI/BcZwnUDMcjTPR/iCDtHxA+DIPbUZ62ZCpCsclsZf7DgRvaThyGI+QZ2YZlHuhcBdyJ8I8xMDAIYigAXZPFiH38zXEIkAFsC/msDtiJGAQmIpzkOptbgK+AZ4A+wJxm0v4Z+B/wK2I5ozN5EKFQbUHItKCJdNMRA24y4tChDVFeZzwNoxtKUhBbOz+JsrzDgvKMD/PduGB5WxDt5ksanpfQ1nwLPNuO5UfCs4jto/9D7BwxMDAIYuwC6JqcjZgFvwhUNJHmEKCE+tm/glhjn4IwoW+m83cCZAVfm4ErEYPoTcA7YdJOAnoA3wG/II787QyygCeCspyBGCwBeiKUkp9C0o5EKF01QBzwCPB28Ls0xPMZhVDUPm10naMQ8RpqgOrgZ/0QCtwhwF5EbANbo3wzgnnWBq95GGClXlHwArXBskNZiFAsn0MoLRJ5IuhwRGTJXYidFQAJCN+SX4LvBwPuYBoQTqhuxBZUD2APfrYboQhdC5QH0+YAQ4L3tT74WRrCfyUz+N03iC2sjekBjAUKguUOCH6+Pfh3GCI+hD1Yfnrw/xGI5/YtYlssiHpPRNRfaaPrTEc8z5+DcqsI59rfEUqpgcFBhaEAdD1OQcz++gEnIg6xacz04PdFwEDENrg4xAx7JmJAuKkjhG2BMxGDlTyEZzWiIz8W+LxR2gmIDvcthCLTWQrAPESdnkf94A9CsZLP4yPgaITFYjUi1oIHmAWMBtYgljJGIAakfsFy5yMUtZuB/kAeYvByB69xAWIwjEdEd5yAGCRzg2WfHLxWOUIxPAKhhCQApwFXhMirNLqvixFbRW9r9LkfMViejRgsFWAdwqfkOOB8xHMEMaDvQ1h17gvmK0MM4n7gcoRCsQMxUF+CCNa0GTgHoVwlIxSGRxHLJ2ci6nlw8FpPIZRAydEIq1FySLlXBOW8PphmMULBMiOWVOKA/wbrcTTgBM5CKAynBev0JMSz/BZhLVmAaKsVwXupRTwvS/D9OuqVCAODgwJjCaDrcQaiowS4rIk0HuBuREe8CWHqNyOCAL2MWFPe2b5itkgfxExsH1AY/OxphKyXN0o7GdFBWxAD1KHBzy9qdyn3Jw3wsb8pvwQxkJ8VfH8NYrYI4ndUAwxCDMogBp5jEM/hW+B0xGD9F8RgvgMxaPWg/nc4AjHoehBnOIxCzPBBnHrYE6FMfYmwGniBDxARII9HKI/+MPc0B6E0yBlzb8TgdgZihm9HKJP3IyxPZwfT9aShM+ZI6n0zLgceQ1gediHa6uEIpWhTMM04hGUBxMD6KKJuZwTLTQ7KXIYYsKex/1kPFwav+xr1CtnwYF1JDgveUxYiIFQqsBVh9t8M/Ai8jlAEfkBYaQ5BKEUgLDeJCMvUaoSCcktQvtuD9XMKBgYHGYYFoGsxEjEjtAbfT2oi3aqOEScmxiGUgOtCPvuM+oEtG2HSBTHg7ELMiLXg5xrCXPt8B8krUQg/iH6GUEiks99RCEvF34J5VMRMXioFPiAfeDz4/gKEQjAUoSz8Pfj5K9QfaWxB1M+CkDJqEYNPHHAvDWfHOxADVC9EfR1KwyUKiTNYljSvOxAD+fjg9a5EmLivQTwX2f68QVklLuqXFjYiFIDHEYPmz4j2+jT1CkQd9daNlQgLQjZCyeiLqOe9wD+Cac5CWL9C2YgYrK8BZgc/89DQwlEbvE4CYvlhGcLv5DiE4iPX/lcFZRiOUE5rEX1gH4S1JZTRCEVrMUKxyERY3qL1yTAw6LIYFoCuxWk09FS2UT+AHGjkIGZf5SGfFSMG0hxERyw5DNH534swLd9OvYm7o6lj/0FIshox8/4L4t6g4UAU+n8AMehK5GDT2DRfQX1QIyX43kb9IAxiRltHQ8WkB6IukxAWgN8QJu/GAZJAnJ2QjbBQgJhJPx68lxTEoVF3BtP9iFgb70W9YiPRQt4vQJjF/4hY0ngaYZUqp96HgBCZP0bMrD9HDMi2YPnukLSh/0seAR4I3p+0aqnsX9cK9VYwV0g6E/V+Du8hLAf/QThBuhG+B40VvsOCn20PXvdjxNLEFgwMDiIMBaBrIdcrQzmjMwSJkRzEvv+7EQNJ7+DLAXyBmO1LL/UfaLh2LfmFevNxR/IqYnBYjZBxVPBvJmIngxUxK5TOfnKQVGg4YDYePGXo4n2Igfqc4OfnUX9eg4oYxGwhZZgQjnsDEKb8vogZ6SXBtBsRM9UchMIRKo+kAjFzPQ4xYA9DWBsUxGx6IeI5rAx+nh78/N8Ii4UVsRbfk/qQy36E5aKU+tnzasQg60KY4qU15U/B8l5GmNoTEcqEvD9JY7lBLLusRywtOBDPwYVYqjkW4WA5BjHwy/KaKnMqYilgVbCsRITlIzF4LwMQbU4u/3gQ7eFthKWms5fVDAzaFGMJoOtwLsLRbC+ig6tEdMQOxAzouqazdjlmIQbOZ2k4k9UQg1sA0XE/hpiVbgxThhnhXHYa9YNtR7ANsY3uIYT8exFrwE8jTMtbEAOoHAzciJl0IOR/qN8dIJH//wmxrHEdwjGwgPrtmjUIS4EcxOuor78TEOvgRwRlehKxDHFm8G8Jot34gjI03gXwZ4Sn/ELq/RjMCOXhYcTBSs8i2twuhIXhV8QA+BtiEC5CeMSDaJPS+e9GhNPp6KC8mxCz5huC8tyHWAJ5hfpZury3qkZ11HgXwAWIpbG4YJlFiMH6Xwifhc0IXwprMG8t9TN6X6MynwTuQFgobCH3koR4rscEy38XYRlYi3Ba9QSvcycGBgcRjbVtg87jVsQa5x2INd8ShKn5Q8RgcCCddncSYibV2JoBonOuQHTODkQHvQkxEEmOQ6xRBxADxAoaDqbnI9bjHyHysMevIurx7JYSNmIk9QpKPGIW+ztwdZTlNCaJprd4tiRPEWI5BUQ9/xb838r+A384pNn7f2HKlvcaeox0U0dKH0pDc/8AhN9AXhPXPYT6LYXRkBOUd1ejz7OodzCN9NjrdES/tzfMd8MQyxNFIZ8dhlAqtkYhr4GBgUFUnBny/6sIj2nJTA6cyHgdwcUIJ6/To8jzH8LHH4iUYQgLwGc0fFYGBgYGByTGEkDX4c1G70OtMx9iEMo+hMm2vKWEIfxGbBYvD2K2+wX7PysDAwMDA4M24VXgn50tRBfGiZiR26PI04vITyM0MDAwOOgxLABdl3DbuQwE0m8gGvLbQxADAwODAxVDAeia+C0WS8Dr9Xa2HAYGBz2apqEohj+0gX6AWui5HeMRESGLESG5DyqMVt/F0DQtddasWa9qmtbzkUce2ZGXl2fetWtXVXV1dZnZbA4NxBI1qqoSCETiKB0+LxBT/tbmjZVY7zsWuTsz/4F637G0tdbkDcrq9/l8v/3xj380lt4OfmYBYxISEnZt2LChtqioaMS999475q233soeOHCgZcmSJYVDhgxx1dTUqE8++WTPr7/+2u7xeGofe+yx9QMHDtzx1VdfVS5cuHAwIgbG54gAVwckhgLQhcjNzf1LfHz8Oa+88srAdevWJTz00EOUl5dTVlYWKCoqKqmqqipUVdWnaVrUSkBbDOCx5j9QByPj2tHnhc5pa7HkVRSlGvipurr6yWuuuSZcSGWDA5j169cf9cADDyx66aWXxs+ePTtp3rx51Ycccojf6/UmFRQUpPt8PiwWCz169CAxMRG3201xcTEejwefz0fPnj1r7XZ7ZXl5ufeTTz5JWrduncvlcu3761//+vb06dPvVBQl3EmWXRpDAegi5ObmLlUU5Qq73Z6wYsUKPv/8cx5++GFqa2tRFIWqqiqtoKCgtLKy8n+qqvowojgaGLQ1JsCsKMrGioqKe6+++uqfW8xh0JW5ABExMzU3N9fk9/vTampqkr1er93hcGC1WnVF12QyoaoqmqZhNpv57rvvGDVqFHa78DPWNA2/368vF/l8PrxeL16vF6fTWWmxWKq+++47/+WXX64hdgv9H51/HHuLGD4AXYCffvrpD5qm/UVRFDRNQ9Pq/f/k+4SEBCU7OztN0zRTXV3dz0qQlspunCS07EiRZcSStzX5Y8kbmr8z5Y41/4FU521537Hmb029AX5N0wKqqh6empq6AFjUmkIMOp+zzjrr3o0bN149Z84c89SpU5VAIICiKMTHx+vtJBAI4PeLoJE+nzi2w2QyUVNTw1133cWSJUsYOXKkPgmTSCXBYrHI/jkxEAgkjhs3jnfffZePP/64X58+fQbPnDnzb6NGjXqj4+8+cgwFoJPJzc09LRAILFMUpVmzZSAQIDExEb/fn1xQUDDI5/NtUxQl6ucXibNTU+bfWB2lYskfad5wsnem3JHmP5DrvCvmjyGvBtSoqnr8Sy+99Ofzzz//nlYLYdCRzAFmPvXUU9YjjzzyVLPZnApgNpupq6sjUodqh8PB+++/z44dO/jmm28YNWpU2LbU+LcqLQP9+vVj0aJF+Hy+IX6///U1a9YUzJs3r2j79u3rEeG2V8d6o22JoQB0Ij/++ONg4D4582+JQCBAUlIS1dXVPaurqys0TdtLmGco10GbKqM5Ysnbnvk7K29H5G+vvJHkb66Mg7neQvM3kbbKbDaftXLlyn/PmjWrcchkgy7EwIEDb8vOzr5iwoQJPXJyctA0jdraWiC6HR4mk4nq6mrWrVsHwC+//EJeXh5ZWVl4PC1H2NY0DY/Hg9vt1q9pNpuzly5dmv31118fXlpaetQJJ5xw24UXXthlrAKGAtC53Ik4izwiNE1DVVXS0tLwer29vV5vFSJCXcT+ACaTqeVE7ZC3pfwtmetbunZzSlQkeWO5dkt01TqH2OutOcW1PfO35TMLl1ZRFB8QX1dX91fEOrJBF0PTNHJzc/9VUFBwgtvt7jFgwAAURcHj8ejtIxpLkNVqZePGjeTmit1+n3/+OXPmzKFXr+jihzW+5ogRI+jfvz9VVVUjEhMTb/vtt98mDR8+/EO6QIRXQwHoJNauXXuJoigTVVW1ROOxHAgEiIuLIyEhwVFVVZUZCAR2ScUg0vyNiTRvuPyx5I0mf1vL3ZnXjiZvrPk763l1dv5Yr41wkK7VNG3k22+/fdZpp532ejSZDdqVU4A/v/TSS6mjR4/O6devn91sNlNbW4tc648WRVHwer1s2rSJX36pP69q48aNHHHEEcTHx+t+AtGgaRoul4u4uDg0TcNkMo3w+Xx9TzjhhFM+/vjj7YgTLT+IuuA2ojsqAGcgTtr7MoK0AxDHhv7WUsJosVgsJwK9ZUclTVWRLAVIp0CPx5Pi8Xj2KYpSpyhKRL1bIBDQryF/KNF0qqE/LkVRoupUpcNNuGsHAoEWTbqhdRON7OE6hVDZW7p2qNzR5m0se0fWeUv3HUn+1tZ5U/lD8zZXd+HuO/TasTyzcNdqTNAnQ0MoAqcChgLQNfgbMP+WW27pP2zYMHw+H99//z1paWmMGDGCurq6VjmAWiwW9uzZw5o1axp8/tZbbzFjxgzktaJFVVXsdjs//vgjn3/+OQsWLEBV1fi//e1v8YcddljOvffea0EcCb4h6sLbgO6mAFiAxYgjT7+MIP19CPP6qW0pxNq1ay9QVXWcw+HYr4O22+26ttgUmqZhsViIi4tzapqWCuRH2uijnX22Vd6W8rdUdnvKHcv3kcjVWXXens+rLfK3Z3uIRvam0gY/DwB9Vq5cefasWbOWR1yoQZvj8XhGP/vss3N69uzZf9CgQbpjn6ZpnHnmmTz55JNMnjy5VUqApmns2rWLDz5oOBkvLS3l559/JicnJ+rYGCaTCZvNxkcffcS1117L/PnzMZvN+P1+EhISOPfcczn99NOnxMfH33XooYeeqyhKZVRCtwHdTQG4HXGGuR8YTfOhHS9EhIHcDvRHnAHfJiQmJk6uqqrq9+KLL/LRRx9J05A+sG/dupUZM2a0WI7D4VD8fn+Kz+fbpyiKR9O0iGxfsYQ+7ay8Mj+0zsO7LfK2Nr8s40DL21b5oXOfWSyoquoPBAJxiqIcBxgKQOcw9bbbbjt+27Zt5x5zzDEDfD4fbrcbEF7+qampACxYsIArr7ySyy67TN+rH0k7MJlMVFVV8cknnzBs2DBOO+00XnnlFU444QR2797N7bffzsSJE8nMzIxIAVAUBYvFgtfr5Y477uC1114DICcnR0/j9/tRFAW73Y7ZbD7pyy+/XIuIKvgs8EPUNdRKupMCcBiQDuwCRiHiPjelAKQDYxBbgtKBEbSRArBq1arDNU2bWFtbS25uLieddBIZGRl6g7BYLPz3v//F5Wo+qJSiKJhMJiwWS7ymafGBQKA0VoexpojEzN1cXoh9Ntnaax+IcrcFnXnvsV67Kz2zYJAYRVGU7A8++OC4E0888bM2K9wgEs4D/pyYmDhKURRqamr2S+B0OjGZTPj9fv75z39SUFDAH//4R9LT0/H7/REN2qWlpaSmpnL33XczaNAgXnvtNWbMmEGvXr049NBDyc/Pp0ePHi2WIwMKFRQUsHTpUr788kv9u4yMDEK3e8vgQi6XC6fTOeSqq64a8vDDDx8G/J0O8gvoTgrA4Yj7vQN4BJgOPNZE2pMRVoLVwAkIX4A2IT4+frTf7z/E7/fj8XiYMWMGffv21dcsbTYbmqbtZ4pqjHT8s9lsaiAQSPb7/aXtdaBJZ5qhY+FAlbstOFCXDrraMwuW6QPSrFbrOMBQADqWP917772jpk6dqm/tC0VRFKxWK2PGjGHt2rUAvP3225SVlXHZZZdxyCGHoKpqs+v3gUCA5ORkLrzwQpKSkqitraWiooK6ujp69OjBWWedRXV1dYuKhDTvr1+/nscee0zfTihJSkoKa83y+/1YrVbOP/98MjIyJuzZs+eyRx991FAA2hArMAH4BngZ+DPQnI39TOAK4HKEE2BWFNc6D+E49FK4L00m0wlms6h2RVGoq6ujpqYGn8+nm61C95E2h7QCmM3mZEVRLJqmeSOJDmhgYBA5gUAgoChKnKqq/VeuXJk4a9asDl+r7Y78+uuvz/z+++/DMzMz9UE8XLRIq9VK3759dQUA4Msvv2Tnzp1ccsklHHPMMTgcjiaXAzRNIz4+HkC3vEpl0u12o6oqycnJ+zmWhqKqKpWVlXzwwQcsWbIkbBp5jXB4vV4sFgszZsxQA4HAtD/+8Y9Lhw0btrjJDG3EgT3NiZyBQC/E+grAm4iB/U9h0t4CfIJYKvgWqAQSI7jGecAa4OHm0gcCgRPDeSi3Zt8qiIZnNpttiqIkqKrql2VJr+fGr9DvW3q1Zd6OvHbj/J0pd2fed3e5dnvXuclkQlEUv6qqfWw224SofqAGrWLjxo2P+3y+s7Kzs21Qv2beGKkAhO7VdzqdzJ07l2HDhvGf//yHdevWhc0bSiAQaHLXTGjI4KaQwYfS0tJ45JFHeOGFFxg7dqz+/ejRo7FarU3mVxQFv9+Pqqo4HI7kPXv2XLFgwYIVzV60DeguFoAbgNBjPv8OXAVci/D0D+VahAIwCUgBUhF+AOEYhDhwYj5CwQB4hSaWFjRN679ly5YkGUvaZDLpL6mdyjWkSJAOWkErQGogECiS5USz5akxzV2/K0fza6/8HVFnzZXRWfXWmXUeaf6OyquqqhfIslgsAxH9g0H7MAF46uuvvx41adKkFrfeScfp9HTRRU+ZMoWtW7cyffp0Tj75ZCorK3G5XK3awidpSXmQcmRmZtKrVy/i4+NZu3Yt69ev58EHH+Taa68lJycHm80WUTnBA4YS4uPjZwNrgXGtFr4FuoMCcASQBHzU6PNnEFsC5wGvBj97A6EAPAf0BFwIK0AOYhmgEJgCTAbGAscBCSFl5gdfi9i/busef/zxGUOGDCEQCLBv3z7KysooKCjQnUFA+AAUFxdH5cUcnLmkKOJsALl3ucm0sXCgru8eqNeONb9x322TV1GUgKZpFovF0mb+QAZhufOmm24aNW7cuBZn3SCUNbPZTHJyMgC33HIL27ZtY9myZQwYMIAePXrENPhHg5S3qKiIF154gWuvvZYzzzyTdevWER8fj9lsjjjku8Vi4fzzz6empmbszp07//LBBx/c3R4ydwcF4ALg8TCf34hY41+EUACuB8oQZnyAPcG/ZQgnwGyEAjAGoTQMZf/6iwOORjgQNh6EAx9//PGE119/Xdda+/btyyuvvLJfnGlFURg3blzEMyhFUbBYLOZAIODQNK0GcaxpWJoqM9IOs62js0Wav7m6iCV/V792U/k7s86jGVwPVNnD5FdUVfUqijJ4xYoVmaecckpRRAUZRIymafzzn/+cNnLkSGw2m77VryVUVQTbufTSS8nIyCAzM5Ply5fz7bffcsopp6AokQVYixVpjV2zZg0bNmzg1ltvpaysjLlz5/LLL7+gqmrEcni9Xt0x0O/3n71y5cq7I7FERMvBrgBMRwzYBYhtgKE1WAkUASMRDn/nAJ+yf9S/WoQ1YAiwDngIcd7z6YjtgYcCacG0KvAusIT6JQGAyquvvnrY6aef/qXf77dK031TDVPTNGw2W4tbASWyrEAgkKKqahXNKADNNaKWGpiMVxBtvpbSRZK/pTTNfd+U3G1Rdqyyt7bOY712e8sNscnemffdTDv3Ar0yMzP7IPoOgzZk06ZNnx5zzDEmr9cb8eAP4ijffv360b9/f7xeL2azmSuvvJIbb7yRMWPG0Ldv34gO84kVs9lMcXExb775JjfffDNxcXG4XC6ysrJISkrCZDJFNanzeDzScfDwjRs3vo/wMytvU5nbsrAuSDZQjNj335gAsAUR6Gc0wnRf0ijNeGAHYjtgqOnv0+DLCSwMpjsS6IvYQvgfGikSl1566VRVVU2RaKPSISQSE1hoHlVVk5T2UBMNDAxA9BmJNpttKB0YrKUbMKF///63eb3eaV6vN+rZeiAQID09XXfY8/l85OTkMGfOHD755BMuuOACVDW6KH7RIq/9/fffk52dzejRo3Wlw2QykZiYGPX1FUXsCjObzezatWsG8G/gVuDrtpL7YFcAPgV+BOIJvy5ehVjnTwC8CHO/ivihA+wEHkCY9O1h8tcgDnMAmAkcBcxFWAfuCk3o8/mOURTFEsO9tIjZbHZommZRFMVPEzs82jK6WrRlxBJRL5Zrt6XcseY/UK8da3s5UO+7UX4N0BRFGRFVgQYtcddJJ510nKZprTbVh+aVOwOmTp3K7NmzmTZtGjk5OREPwJqmsW/fvqh8B0wmEyUlJdx000288cYb2O12XQGI5b5AKDhpaWmmhQsXHvvEE08UYygAESOd8lpLEZGb+uTxjrcilgsaM0xRFLU916IURTGrqupALG90OWKJ8hZr/gM1Ml6sdFaddTbt9MwUxPHbh8Yim0EDbps6deqYc889t01n6F6vl379+nH//fdz8cUXs2rVqoh8AeRWvOeee46BAwdGvAxrMpl47LHHuPnmmxkwYECbOh4GD3/j1FNPpaamZsiLL744FVjVFmUf7ApAZ7Gl8Qd2u90szUTtRdD871RVtYxmdgJ0FrEORhZL6w0o3XkgPFDvuyvKrmmaW9N7LPWvAAAgAElEQVS0lmPCGkTEsmXLMrOzsx3x8fF6TAZN0/STJGOxCACMGTOGI444go8//piTTz6Z6urqsOlDY0AATJo0Cbfbjd/v17dpy1gBjbHb7eTm5vL9999z8cUXY7Vao/JhkNcMjUEh70Fet6amhh49enDDDTfk3HjjjaNHjBjRpRWACYQ3mXdH/IAzPz/fJB9meyCPCHY6nQmapjkDgcB+XkyxeMOGNsrW5u+MvN312p39vGK9dqz529PSZrPZ4nr37n3u7t27d9I9JlEBYBtiF1SboWnaUVu3bp3odrttO3bsQFEUHA4HVqsVm82GxWJpECdFru9H2od6PB4yMzM588wzWbhwIRMnTsThcOiHBJlMJqxWK4FAAJfLRV1dHS6XC6/Xq/tfyTQ2mw2Hw6Gf1CrTyAH7/PPPZ8mSJfTv3z9iq0FIPQBQV1eHx+PB5XLhdrupq6ujqqqK4uJiioqKmDJlCoceemhKQUHBOU6n8/OampqN0dX4/rR14/0LMAex714BGD58OMXFxZSUNPav6zZogPnCCy9Mh/3PKW8rioqKuO2225gyZUpKXV2dI1yaWDrWzsrbVvk7cyCEA6vO20ruWPN3VeXF4XCYZs6ceeczzzxTRxe0tLUDGmIi8xtwdhuVmX3jjTfefeqppx7idDr5+eefefzxxxk1ahTZ2dmkp6eTlJREQkIC8fHxOJ1O7HY7SUlJzYb1bYzb7WbMmDFcd911FBcXk5OTg8lkwm63U11dzaZNm8jPzyc/P5/t27ezbds28vPzdRO+3W4nOzubgQMHMnDgQPr06UOvXr3o3bs3TqcTt9uNy+XiqaeeYvDgwVE7bgcCAX766Sd27NhBeXk5xcXF5OXlsXnzZkpLS/W01157Lb179yYQCFBcXDw+Li7u5ZqamnDO7VHRlo33b4cccsifFy1alDBs2DDy8/M577zzWLRoEXPnzsXv93fIXsyuSnvfeyAQwG63k5ycvJ+GHEuH3NiBKpb8nZW3O127LfN39LW7yjNrKa+qqlRXV1NbW9sq58gDDUVRqK2t5fXXX/c+//zzvyAOVouVv15yySV3Xn755VitVvx+P3fffTfLl+9/4nJ8fDypqamMHz+eiy66iN69e0c10KqqisfjwWw243Q6qays1CP1vfvuu/To0YMZM2aQk5NDYmIidrtdXz6Sp/VVVFSwbds2XnnlFXr06MHUqVMZO3YsY8eOJS4ujrq6OiDy6JcSRVEoKSnh3//+N08++WTYNNOnT+fOO+/EbrfrpxteeeWVrFmz5jJEQLtW01atd0zv3r2/XrJkSdzYsWNxuVzY7Xa2bt3KKaecwmuvvcbo0aO7zQ+ms5ABMQwMDNoXaTbuLsi4CIsXL2blypUvIQKsxULhM88803PSpElUV1frSsCYMWPCJr7ppps45ZRTsNvtrXKws1gsxMXF8eWXX/LUU0/xww8/sGDBAo499lhSU1ObXN+XhK7NFxcX8+mnn/L8889z5JFHcuWVV3L00UdTXl7eKguvqorDhnbs2MFxxx233/erV68mJSUFt9uNpmkkJiby4YcfcvXVV38AzIr6gqH3FUvmEL5funTpuNNPP53KSuGArmkaTqeTzz77jBUrVnDTTTeRkpLSYWEZuyOqquJ0OjtbDAODg55AIEBtbW23sWrK4GRut5tx48Z5EdFQ/93a8h566KGyyZMnJ8uyNU3D4XCQl5fHzJkzG6Q988wzWbJkCW63G4/HE9UsW1HEccE1NTVcdNFFbN68mcWLFzNlyhScTie1tbVRD9pmsxmHw0F5eTmffvopDz/8MGeddRbXX389cXFxRBrLQEYONJlMbNu2jXnz5jFq1Ch++uknXbl86aWXGD9+PBUVFQ0sc8Fn8c24ceOOjkr4RrSFm+z0iRMnjjv22GMbnNesKIpsLNTW1rJt27Y2uJRBc8gIg605yc14GS/jFfkreEJgt1EAFEX05ykpKfz973+3II5UbxWapo2eMWNGcmj9KYpYZujTpw+PP14fuf2kk04iKyuLwYMHs2rVKtxut+4c2BKqqmI2m9m8eTNHHnkkEydO5OWXX9YVjMrKylbN2H0+HxUVFVitVs444wyWLVtGdXU1119/Pb///jtmsxlFaX5ubbFYUFWV4uJiHn30URYuXMgtt9zCzTffjDwu/q677mLMmDENBn9ZVz6fD4vFMvrdd9/d32QQBS3XYss8v2DBgr5jx44Na+K3Wq2kpqby3nvvMWnSpIgPRDBoHVarVf9xdHYnabyM18H4kgq21+sNe4TswYq85759+/Lss89aETFSNkRbztChQ59LT08f1NgarCjCKa53795kZGSwevVqTjjhBBYuXMjIkSN57733+P7770lLSyMlJUX36A+H3Na3fv16brzxRhYuXMjJJ59MQkICdXV1+mSptUhZ3W436enpjBo1irq6OpYvX86AAQPIysraz1IhT4G12+0UFxfz1VdfcffddzNixAiuuOIKpkyZgqqqPP744yxatIjTTz+9JWuH6dlnn+3/008//UYr493EqgCkAnfdfvvt9qZCLZrNZlRV5cUXX2TatGkkJCQYCkA7YrFYdA003AsI25lF8oolb7j80ZTR1nk76tpdrc5juXZnP7NYZW/ra4duBesuaJpGXFwciYmJtm+++UYF9vfaa56ne/XqNfuoo46yuN3u/epObs/r06cPXq+XsrIyjj/+eHr37s2YMWMwmUzcd9991NbWkpCQQHZ2NkCD56AoChaLhR9//JH/+7//49JLL2XSpElomobH42nT5yXbgdVqZfDgwZjNZp5//nmGDh1Kr1698Hq9entxOBx4vV6+/fZbnn76aYqKirjyyiuZPHkyPXv2xOVyUVlZyZ49e7joootITk5u0kIRLFNdtWpVxi+//KIBK1sjf6wKwK2TJ08++txzzzVLL8jGhB5sU1FRwYgRI9ptK1x3R4bAlAFzWurc2mIA74zBqCMHwfbI35l13ln33ZplqbZ65u31vP1+Pz6fT8/TXVAUhbi4OPX111+vRRydHk2Hfu+CBQt6ZmdnNzl7DwQCxMfHk56eTlVVFaNGjcLj8eBwOBgwYADHH38869evZ/HixaSnp9OnTx+SkpL0/f02m42dO3fy//7f/+OKK65AHi3cXtYaRVH0wFP9+/dH0zTuu+8+TjjhBJKSknTl5Ndff+Xll1/mrrvu4oYbbuDss8+mZ8+eKIpQIiSjR4+mZ8+eLfo6BP0HLO+//74L8RyiJlYfgGNPPfVUe3OOfYFAAKfTycCBA3n++ee73Y+lo5GNvKmXNI21pkMOzdvR+Q9Uudvyvg/ka0ebty2feXvUmfyuO6JpGj169GD8+PEZwMVRZB1gNpttQ4cObTFSntvtZtCgQZxzzjl6TH2fz4ff7yclJYU//elPvP3229x///3MmzePVatEYDyz2YzH42H27NlcdtlljB8/Xh/82xt5gNuMGTOYNm0aF198sb4zKz8/n7vuuguTycTatWuZPHkyZrNZX0aCeutKdna2HgmxOQKBAEOHDuXvf/97bbMJmyGW0dgB/Pzpp5/mpKWlNTurt9vt/Prrr5x11ll88803xMXFdcgD6W7IBmQssxgYtC+KouiR2hSle01qVFXF5/Px+uuv++67775/AQsizbthw4YtgUBgcKRWYEVp+sj0uLg4AD788ENsNhsTJkwgJSWF66+/HqvVysUXX4zJZOrwnWdmsxm/38/ixYs5/vjjWbBgAZWVlXi9XtLS0qirq2szK7jNZsNms30zZMiQVu0GiEWFnTd8+PC4cIFnGuPz+cjMzOSEE05gx44d2Gy2GC5r0BzGwG9g0P5IJ7LuNviDuHeLxUL//v3NQEak+bZv3z7X7/c7o+mjmkqrKIoeMnfWrFlMnTqV+Ph41q9fz4oVKzjxxBOx2+0NTOsdhdfrJS4ujssvv5x//vOf/PbbbzidThwOB9XV1W26BO73+ykqKup5yy23nNea/LEoAKMnTpwYL7csNIff7yc5OZm+ffuSm5uLxWIxBqp2QGrLRt0aGLQ/cvDvbr83TdNQVZW0tDSAZMKffrofDz744Nzq6uq0tpaltrYWn8+H2+1m+fLlzJ8/n4EDB1JXV9cpCpqiiC2NI0aMYPr06axevRqXy9UuVm9VVcnLy+t/1113nQxEfVpaLApAv4EDBzqh5R+AdE5LS0vjhx9+iGgPp0HrCJ2ZGC/jZbza79VdfQBADHLx8fFMmDAhg8gUgFPfeeedwzwej62t603TNOx2O7/88gtvvfUWs2bNiuo0vvbC7XYzd+5c3nrrLfLy8rBarW1+DUVRsFgspp49ew4Hol4GiOVJJPXs2VOJRPuVg1J6ejrffvutvjXCoO2RFgCjfg0M2o9QRaA7Igfdvn379gCyI8gyauTIkentsfyrqiper5eNGzcybdo00tPTdcfBzkQufQ8ePJjt27e3y46R4CmwjBkzJgVIjzZ/a08DTAJsKSkpESVWFLFNokePHvpxh03FDTBoG7prx2Rg0BF0dwUgEAgQFxdHampqKhCJWb9o5syZ1TabLbWt+32LxcKePXtYs2YN55xzDi6Xq0s8FzkRmzVrFqtWrWLs2LEkJia2qVOix+MhKyuL6667bsu77777fbT5W2sBOBSwx8XFRVzRfr8f0VagvLzcWAZoJ7rbeqSBQWfRnRUAud8+OTnZBCS0lH7fvn1bjz322Eqr1drixE9uvYwUVVXZs2cPX375Jb179+5S581omkZmZibvvPMOlZWVUbcXk8nUYmjhQCBAWlpafF5eXma08rVWAeg5cuRIezRrGoFAgISEBHr06EFVVVWL62eRxnuG+shPkVauyWTSg+VEgtlsjiqEsYzzHAmKokS8NiSjZEUje7SdVDQ/vmjLbk9Zok3flWSPdjbZ2vSRpu0I2duz7K7SBiTR9mVWqzXi66iqGnF/IEPRRuK4LWmqL5NlBQ8fa/EI0p07dw6sq6tLbG7wt1gsetC4cFECw6EoIi5+SUkJJ554IiaTqctNguLi4jjuuOPYt29fxLKZzWZ27tzJxo0b9fHSZrOFfRaqqrJ79+5eDz74YETOmA3yRpshSEpWVpY9GmeOQCCAw+EgMTExIgVg37591NbWtphONoCioqKIwnIqikJNTQ3FxcURN7CysrKorBZFRUW43e6IZPd6vRQUFERUrslkorq6muLi4ojKVhRFD4IRaUAUeZJVJA5Qmqbp61qRpA8EAvoziiS9z+eLWHZA3/LT1rKH1mOk6WVUskjSapqmbw2Kph4jSR+t7EC7yS5libQNAFHJLp9ppLJH0x5D6zG0PbaEPPClpqamxfRSpsLCwojWi1VVpa6ujuLiYj1/c5hMJr0vi0R2gL1794b1ppeTkeDx4y0qAEuXLh2bl5eXGdpvyedks9mIi4ujsrKStWvX8t5771FcXByRoqIoCh6Ph6KiIg455JCI7qkjCQQCWCwWhg4dSn5+fkTRCKWSkJqays0338xDDz3E6tWr+f333/VTE0MVHUVR2LhxY58HHngg/FnKzdBaBSAhISHBFo0ZX+4dtdvtVFdXN1kJJpMJl8vFihUryM3NxWq1Nqk1yd0Fe/bs4dFHH6WioqLZQVo6rvz888/cfffdEc28zWYzn332GW+++Sbx8fHNanBS9hdeeIHNmzdjs9mald1ms7Fr1y4eeOAB6urqmm3w8sF/8803LFu2LKIfh6qqFBYWUl5eHpHCoGkaO3fujFh5cblc7Nq1K6JGraoqJSUlFBUVRWQdCWq1EZnNZMeZl5cXsezV1dUUFhZG5DCpqir79u2jpKQkoo5T0zQKCgqorq6O6F49Hg/5+fkRxymvrKykuLg4YmfPvXv37neiWDgUpV4hjWQdVVGEMl1YWBhxTPyysjJKSkpaTCcH3D179kQ8eLrdbgoKCiLa+60oih53PVL27t1LWVkZQIPOtzlsNhv3338/69evJy4ursX+o7q6mgcffJCCgoIW+z673c6GDRt46623Wmz3sv945ZVX+O677yI+Te+ee+5h27ZtYfsyRVGk9SGuhaKsb7zxRu/y8nKb7GcURcHpdGK329m1axcrV67kqaee4pJLLqGiokI35Uun5qZeUgEoLCykZ8+eLd5TZ2A2m0lLSyMvL0+vQzkWBgP5NHjZ7XZMJhP9+/fnzjvv5N///jdXX30199xzj/78vF4vSUlJuoUm2A57RC1bK+8pLj4+3iIfZiRIk5HNZqOurk6fhYX+gEwmE1arFbfbTVFREb169cJut+szwcbmI2kyCgQCrFixgquuukoPMuT3+xvIpiiKfhKTy+Xi008/1Rt1IBDYb91IntNstVopLS1lx44dxMXFUVtbG1YWs9mMxWLB5XKxefNmJk2apAeiaJw+VBafz8fHH3/MrbfeqiskjWWXYUftdjtlZWWsX7++wX2GCywhZ4vy+MxQp8twP2T5kidlyecTLq2UCdAdOuXnTaWXEblCD8doLr2U3e/3NylL6H1KWZqTPTS9PMlLvm+qDqUsXq9Xfw6yzYRLL5URue83dHbaVHpN0/Tzv6VszaUPBAK6shBJ2V6vVz+UqznZ5XN0u916PbYkS+gBK009U3lfUG9dkO+bamPy5Xa79Vl3c7LI8kKfaSRtoHE9Nie7TNtcPUpkfdtsNj788EOmTJmC3W7H4/GE7ZtkX6OqKh9++CGXXnopNptN/32H6w9kf5Sfn6/n93q9Yfsy2X/88ssvZGRk6OZk2bc2lkVVVUwmEx9//DFnnXUWNptND8UbqvwEJyItKQD9gDhZZnJyMl6vlx9//JHVq1eTm5vLmjVrAJg6dSoXXXQRGRkZzW7lkxMQj8ejLwHIyIBdCTnGORwOfcJhMpkoKiqisrKyWaVNUcTOuX79+rFz506++uorvvrqKzIzMxk3bhwTJ05k/PjxZGVlSUuMK1r5WqsARL0+CzTbYckZot/vp7a2lrq6OsrLy9m9ezd1dXUkJCTgcDgaDGJ79uzBYrFQXFysV6r8YUrtKFRLLC0txel0UlpaCkB+fj51dXVYrVaSkpIaKCWVlZXU1NRgtVqprq7G4/GQl5dHWVkZ8fHxcu1LZ9++fQQCAaqrq/H5fJSWlpKXl0ddXR1JSUkNNGiv10txcTF2u519+/YBsGfPHmpra9E0jeTk5AYmntraWioqKqiqqtJDj+7evRu3243NZiMpKamBLKGmc1kfbrcbn8+nd0yhSLO/HLC8Xq8+mDZ2QJHKkhwUgQazj8brkbLTCO3IZKculaxw6WUn5vf7dUWgsZ+HHNykzPJepOyNZZEmX9nxSVlkW25sVZGyyGch67Ep2UPrUeaX6ZuSHeoHFqlkNCW7NAtL2UMHr3CySznkfUtZwrUBuW0qtB5l+saWstBry3uWzwj2bwOhA21oGwD0gSZcPcryQmUJ5+sjn2FofUqaa7+h9SiVksb16Pf79XKlTFJBakq50DSN0tJSXC4XDocDEI7PeXl5VFdXk5ycjN1u1/saOYABuoVh79697N69G4/HQ2pqqv68pJJeWVlJRUUFZWVluFwuCgsLdWtZampqg0G6oqKC2tpaKisrCQQCVFRUsHv3brxeL06nk4SEBP23HwgEKC0t1ZVGEH2b7MtSU1ObtUw0wdabbrppS1ZW1tFVVVWWN998k9tuuy1sQo/Hw6uvvkpVVVWzBbrdbiZNmsS0adMoLy+noqIiKt+GjkQqjTU1Nbrl5vnnn2fFihUkJyc3mc/n85GRkUFhYWGDz4uKinjvvfd47733OP/88/nDH/7AtGnTKn/88cc1hx9+eFSydViNSc0n1AIQitVqZfny5WzZsgVFUdiwYQObN2/mhx9+IBAIcO655zJ27NgGHc99990HQFVVFX6/n8cffxyr1UpmZibnn38+ffr0wePxYDKZKCwsZOnSpaSkpLB7924Ali5dSk1NDUcddRRz5szB6XTqHf7atWt58803SUxM5Oeff6aqqoo777yT8vJy5s2bx8SJE3XZA4EAb7zxBps2bUJRFH788UcCgQCrV6/G7/ezcOFCBg0ahM/nw2QyUV5ezj/+8Q/8fr/+g3/kkUdQFIU+ffrwhz/8gdTUVD391q1befLJJ0lOTmbLli1s376de+65h5qaGiZOnMjpp5+O9K7VNI3y8nJ9mUVqyFK5yMjIICkpSe98gqEk9XU+TdMoKirSB5Xs7GxdeZFa9549e/T10EAgwO7du3Ufj6ysrAadVXV1Nfv27dNlCQQC7Nq1S98Vkp6erpcdCAQoKSnRNWN5HGhVVRWappGdnY3T6dTTe71e9uzZo3f40mQsZe/Tp48+uMgfoFQSZccuZXc6nfTq1atBx1leXk5ZWZkuO6DXZ0ZGBqmpqQ06zuLiYmpra/X0JSUllJeXo2kaffv2bVCP0uwv69Dj8VBQUKDPwAYMGKD/blRVpaqqij179ugDl9/vJy8vj0AgQGJiItnZ2fqAKdedKyoqUFVV33pbU1ODz+cjKytLP2pUyl5YWKjfo9vtbuBn0q9fP719qaqqL/3I9uPz+cjPF8eR2+12+vTp0+A3X1FRwZ49e/TDT+Q1AoEAqamp9OjRQ1dWQtfMpRXI5/Ppg1dWVtZ+A9bu3bt1xcvr9VJYWKi3gV69eukTAblmvnv3bkwmk36c765du9A0jfj4eDIzM3UlzGQyUVJSQmlpKSaTSbcuyJNPk5KS9lNepNXi888/54svviAhQTjIv/POO2zYsIHy8nKuu+46hg4dqivk+/bt46WXXmL37t36M1y2bBmJiYkoisLNN99MfHy8rgBt3ryZ5557DkVR2LVrF7t27dKVmEGDBrFo0aIG/i3r1q3j7bffJiEhgXXr1lFUVMTmzZupqqrijDPO4MQTT9QtebW1tbz//vusW7dOzip59dVX+fzzzyktLeVvf/sbAwYMiHqf/fz580vcbrersLDQ4vP5OOmkk3j//ff3Syd/P1JBagq53CqVd7vd3m6n/bUFcrlatp9FixZxxRVXNJtHtq0jjzyywedTpkzh8MMPZ8KECQwZMkRaVzWLxRK192Nra+umiy+++LpLL700zeFwRBTbWFGEs8f8+fOZO3cus2fPbrC+KysmEAhQU1PDM888w8iRIznxxBOpra0lLi6uQQhhTRMhIK1WK1u2bOHSSy/ltddeIzMzE7/fj8PhaDCj9/v91NTU4HQ6+eSTT/jrX//Kf//7X33tvbH5yOPx4Ha7sVqt/Otf/yI/P58lS5ZQVlaG3W7fb1YkTb7V1dXceuutnH322UyZMkWXPbSjCAQC1NbW6mt4CxYs4P333ycxMRFNE4dchNaL1+vVrSAvvfQSn376KU899ZRu3pc/VEA3scmZ1f/+9z+cTic9e/Zs4PAUSmhnumnTJvr166cPtI0VNTnzUVWV6upqdu3axZAhQ/R0TaU3m836jKZ///76TLyxLKHlb926lZSUFNLT0xuY08PJ7vV62b59O3379tXXWsPJImfvci26f//+TTp1habfvXs3iqKQnZ2tt8HG5YfOuH///XfS0tJISUnRB87GyPR1dXUUFBTQu3dvveNrSnZpKaupqaFXr15N1nuopaygoAC73a7XY7j1X1mPHo+H3bt3k5GRofu8NFfvlZWVlJSU0Lt37wYDbTjZFUWhqKhIH8ghvGe9bANSyUlOTm5Qj43Ty7ZUW1tLQUEBffr00X+fTbVHRVEoKSmhqqqKfv366d83lR4gLy8Pm81GZmamfk8VFRVhA5u5XC68Xi8Oh4MJEyZw8803M3v2bGpqanA4HA12FWmapivgpaWlzJkzh2XLljFs2DD9GNzQ8n0+Hy6Xi/j4eN5//33WrFnDokWLcDqdurk5dPB0u914PB4SExO5+uqrGTduHGeccQZer1fvy0LT19XV6crJ5MmTefDBBznqqKOoq6vD6XTqFjG73c4XX3zBokWLlgPn0AxfffXVnVardZHdbk+0Wq0UFhaydetWfv31Vz766CM2bdoEwIwZM7j99ttJTU1tcSeAnIRUVVXx6KOPMmnSJIYMGdLljpuXE8qtW7dyzTXXAA2XrRoTumzwzjvvcMMNNwBw0UUXMXr0aAYNGkT//v11JUhRFIqLi+t+/PHH2xYvXnxPNLK11gLQKsVBzhbCbanTNOGkIs+zl9aCtLQ0vYE2XqtKTEzE4XCQkJCgO0XIhhO6Xii1+ZSUFOLj4/XBPjU1VVc6Gjcau92O0+nU5XG73aSnp+vlNV7/czqdWCwW/SSouLg40tLSsFgs+61dmkwmkpKSGiwlJCUlkZKSos+SQ2W3Wq3Y7XaSkpIwm83U1NQ0uM/GssvB32Qy6d9J81g4rdpkMukdsTSPms3msGuusuHKl7SYyE6hqfShZnR5vebWZxvL3ngdtLHsoabd5mQ3m816nkhkD107l7I0tRYtB1Ypj5zNN3WvodaJaGUJNeWHSy/LDm2rcm1Xfh6uHqUsoc+suXoHWpRdthWJ/D2Gvm+cXpYdWo+hzyEUWQ+NZQ9Xdmj7DZW9OVkafxfaBpqapTqdTlRV1ZcAQvuyxj5BqqqSkJCA1WrV23x8fDxpaWnU1NTs196k75NcSlAUhaSkJBITE3WrRihxcXE4HA5SUlKorKzEbreTmpqqp23cl8XHx6MouoMfTqeT1NRUamtrm/wdtsRtt93We8GCBc4hQ4ZQU1NDWloaGRkZjBo1imOPPZbNmzfzn//8h48++ogjjjiCuXPnhu1nGyO3RWdkZFBeXh61XO2N7AsqKyvJzs7W+4JwfmShWK1Wtm7dyt13381f/vIXxowZo1vuQq2pcmKdm5sbt3jx4r7RytdaBcDjdrv90TYE2Uk3dRiQNIUCDBo0iOzs7GaPTvT7/bhcLuLi4pg/f75upguXXq651tXVkZaWxvz586mrq2vSY1g+IGm+zc7O1tf3w2ml8oehKMc6ESoAACAASURBVArjx48nIyNDP6Qi3AzH7/fr/gHz5s3TTbXhZJeDfG1tLQMGDOCkk07C7XY3KbusW+kLIZ2JmnpesiPTNI309HRMJlOTg1xoeundKq/VFLLBO51O3WmzubYj08sOriVZQPzQ0tLSmnUWCy3barUiI1k215HL9PHx8fp9tiQLQHJycoNlmebSS+W0Oce1UFni4uIapA2XPvSz+Ph4XYmOpB6Tk5N1Jb2l9FarVe+UIpFFzk5bev4S2X4jaV+N67Gl9FKpjlSWhIQEXaFv/F1jpM+Ly+Vi/vz5ZGVl6f1NU/2BXK684IILcDqduFyuJvsyn89HTU0N2dnZDB8+vMGg0BjZBmtqajj11FP1iUZTAXPkNf1+P5dddhmJiYm4XK6w6YPXa3HbxWeffZZwxhlnmIYMEVvVvV6vboHIycmhd+/eTJo0iV9//ZXPP/+c33//nQEDBrSoAMjfclZWFlu2bGH8+PEtidKhhFrVJk+eDEQWrE1aa1988UV69Oihj5mhSy9y0ibHBiBq00drlwCunD179uIbbrihd6ShDWXHfP7557N48WLGjx8vhd5fqKD2KS0GLa3ryPTSeagl5Gwl0nUsWfmRnmFgs9l07TpS2SOVpSXZzWZzAydCef1IlbWWBqHGsksNNxKilaU1skcjS3ODVqyyRJO+veulNbJEW35Xkr0jZJHLTuXl5S3+zqXSEOlSaaR9mbSkSN+KSO5D9mWRRsuzWq377RSQ2Gw2Pv74Y66//vpngMtaKOr1pUuXzp0+fboueyihlhmfz4fH44k4wJHVauW7777jjjvu4JlnnmlxgtGRmEwmqqqquO6663jooYd0X7BIkHXSnCVEpvnggw/cN910083AvdHI19o4AKV79uxxRRNyUTrgVFVVkZSU1KJGL2fDkQy4Mn2kD11q25Eit9ZE6mAiTfPRyB4p0coe6QAniebHE4mJLhZZWiN7NGVHe6/tJXt710trZIm2/PaQJdr0HVmP0eQLZ5Zv7hqR9mVS+Y6m7wu3TbA5mrIqyJlncPtqTUvlTJ069dVx48ZtbipSn7SCSKtmNFFmFUUhMzNTd9xtbmtdRyNlkn4s0SDrpKWxUlVV5syZs1rTtJeila+1NVW8ZcuWqBUA6RGekJDQ5Rw1DhYaz2zDvcLRXPpIBoVY8saSPxa5Y73nzrzvjrh2rHJ3xbbWHtfujkh/oaAVt8X956tWrXq7Z8+eJZFOiqKpV7mzZebMmaxZs6bFHQQdTW5uLrNnz9Z3r7QHHo+nWlGUwpZTNqS1CsDOiooKVzRnLquqSnl5OW63m8TExHarCANBe3VirRksWsobS/5Y5I4lb2ffd0dcO1a5myojlrwdUWeR5u9KpuaORi6BBPfrh1/LbURRUZGnPY6C9/v9JCQkMGLECB566CHdEbSzkVtm//WvfzFs2DDdn6ktkdvKP/vsMxvQdFCBJmitE+A2wNNSsAaJptXvqQV0BxeDtkXTtKjWYw0MDFqP/J111b3n7YmM0VBRUVEFROJ+n3zHHXfYFy9erG/Vbku8Xi+HH344I0eOZO3atRx55JHNhpxvbzRNbOf+6quvmD17Njk5Oe0y6TWZTOTl5fGnP/3JDmQQ2bPQiUVNqpVR7CJBURT27t3L0KFDW/TqNWg94fZVGxgYtC3dXdGWcVsKCwtLgUgGgvIvv/xSD3bV1ng8HrKyspgzZw6vvvpqi2ertDdms5na2lqWLFnCpEmT9N1SbWmZkMswwfMsyoEt0ZYRizSFu3btcktBmkMKWlJS0uW2aRxsRHNAk4GBQevpzj4AIKL2ff/990XAjgiz7Ny2bVvLJzVFgaKI45MdDgcul4u5c+fy008/8dlnn3Xa2QCaJqJKvvjii8ycOZMpU6bg8Xj0E2hDA7fFSjA4WR7waWvyx6IAbPz++++rIpnJy60QBQUFTJgwIaLTugxahzH7NzBofzRN69aOzIFAQB4tXAR8F2G2c+bNm/dLNNbfpmbMoUG9tm7dynPPPUdFRQV2u53ly5dz//3389NPP7XpYBspTqeTr7/+mtdee41FixYRFxeHy+Vi5cqVHH744fz0009YrdawZ3LA/oGzmkIu+Y4ePfoX4PHWyBqLjeSr1atXX1lTU5Muw8Y2eRGzmb1795Kbm8sVV1wR8bGnBq1D06LbnmdgYBA93fU3Js/pyMvLgyjXnIFVqqoODwQCtpYSmkwm3ZQfOiDKWAYlJSV88MEHPPPMM1xzzTVYLBaqq6sZOXIkt956K8uXL2fhwoVkZmZGfXZBa5AxHLZv386DDz7Ivffey5AhQygvL8dms3HaaafRp08f7rjjDo444gjOO+88MjMz9bgP0lL+v//9jz59+hAXF9eskhkMMlRZU1Pzc2tljsVevBu49Nhjj82QZzc3hdVqZdOmTbzwwgtcf/31hgWgnZBhIVvaBmi8jJfxav0Loo9VcjAhvdvffffdkl9//fUDYFWkeSsqKtLS09NPysrKsjY3uFksFiorK3nnnXcYPny4HgDNZrNRVlbGunXrOPvssxkzZgzXXnstEyZMaBBwaciQIezdu5fVq1czePBgZMC69nxWNpuNgoICnnjiCebOncupp56qB7vTNA2n08nQoUMZP348lZWV3HPPPTgcDpKTk/UTH71eLy+//DKKopCTk6O3t3CYzWa++OKLunPOOed74LPWyByrR8Iv33zzja+54yFlKMT8/HwuvvhiY426nekK218MDA5mZF/XXS0AiiJO+XzjjTeKgK+iyfvKK6/4b7zxxmaPk5cRPb/99lvuvfde/bA2TdNYs2YN999/P8uWLWP58uVceOGFDBo0CKgPYSzPyTjnnHPo27cvTz/9NPn5+frJjO2B0+lkx44dPPzww0yfPp1TTz1VP25a4vV6qa2tpW/fvpx++unce++9bN26lTvvvJOVK1fqBzbZ7Xbuv/9+fv/99yajIcrAevfff78HMRlvFbGOFq898cQTLo/H0+TAYzabKS8v57///S/HHXdct143a29CD3rRtPoDJ0Jfkc5y2jpvNPnDldFZeTsyf2fW+YF63+2RP5o83RFVVdmyZQtAKfBFlNlf2759u2/Dhg1Nrs/LI48feOABANLS0ti6dSv33HMP8+fPZ/LkyTz66KMMGzZMP6it8bPw+Xw4nU4uueQSBg8ezKJFi8jNzSUxMTHsYXStQdM0LBYLSUlJfPHFF1xxxRWcdNJJnHbaaXoo+3C43W5UVWXQoEFce+21XHzxxfz5z39m6dKlfPPNNzgcDnbu3Mk999yD2+0Ou5vBYrGwbds2CgsLy4B/tvYeYp2ObwIuP/LII5NycnLCHt9oNpvZuXMnS5cu5brrrmvyICCD2JEesd21YzIw6ChkSO7uZv4HsTa/dOnSiry8vDeAz1tRROXMmTNn9u3bV228HGyxWNi7dy9XXXUV+fn59OvXj+LiYq6//nomTZrEgw8+yGGHHQbQ7AFnUG8JOProo0lPT+eGG27A5/MxePBg4uPjW91PytMpHQ4H5eXlPPzwwzz77LM8/PDDzJ49G01r2UFUKpGKotCvXz8uv/xydu/ezV/+8he2bNmCy+UiLy+Pbdu2ceaZZxIu6F7Pnj2Ln3jiif6tuokgbWGPt3k8nuOnT58e9lhar9fL22+/zWmnncaIESOMwb+d0DRxOl/oKW5NvZrKH8mrueu3Nm+s+Q9muQ/k53WwPbPQ72Xc+u6kAGiaWMfesGED//jHP/KA01pZ1Np//OMffVwu15jQQdhkMuH1ern55pvJzc0FoKKigh9++IHly5dz9tln646B0cjs9XoZO3Ys06ZN44cffuC2224jLe3/t3fecVKU9x9/z+41DmmHSjkUBDUUPUAUIQrWRCNSVNREE0uMiJooARvWn0bFaCyAsQWwhChqNEYBRUksiAWQQ0AhHCBNpEg7ub678/vjM8/t3N5e2evC83699nW7M/PMPDM3M8/3+32+pS3t2rUr443vz6Fivpvlphy18a/as2cPM2fO5Oabb6Zfv35MnjyZvn37kpeXV+X9F4vxIzniiCP47rvvWLp0aem6devW0aZNG/r06VPqZ2f61apVq4kTJ06siQBWSl0IAB9v2rTp98cdd1x6586dSx38XFd17NeuXctf/vIXRo8eTevWrRMqRGGpHuamTE5ObtTkFxbL/oBJg2te3Im+8H9M+AUcE3Y3duzY8NatW2cAb9d0vxdccEFeSUnJhUneCysQCJCWlsa0adN4+eWXy21/xBFHkJaWVuN3XGFhIYcccgj9+/fn2GOPZc2aNdx6662lZaFjqzWa8zaCXn5+Pnv27OGbb77hjTfeYOrUqfTo0YNrrrmGCy+8kNatW1NYWJiwVSEQCJCbm8tbb73FJZdcQk5OTrltvvzyS/r06UNmZmZp2evs7GxOOeWUwQlfiBjqSny957zzzrvj+uuvp23bthQUFNCsWTNyc3OZMGECp59+OmeccUa1pHNLzXBdt1RStdfYYqk/zKC/P0QA+C0dqampzJkzhzFjxiwFetdy18decsklb/zqV7/K7NSpE47jMG/ePK6++uoKG/Tq1Ytx48aRlZWVcAlq11XYoAm727NnD99++y1r1qzhww8/5D//+Q+9e/emW7dutGnThtTUVFzXpaioiB07dpCTk8OSJUs4//zzGThwIJ07dyYzM7N0KmHTpk0UFBTQtWvXhGpEBAIBNm/ezDfffENubi7bt29n8+bNrF+/ngULFpTuZ8CAAYwfP54jjzySnJwcRowYkReJRA6o1kEquza13YGPuVddddVp559/Ph07dmTHjh08++yzzJ49m+uvv56OHTs2SCxmU8R13VKP0Pp6YYTDYXr37l1641oslrrHPMMrVqzYL6YAWrduTefOnUlKSmLBggXcddddu7du3XoRtdD+PZKAN+65554hI0aMYNWqVYwcORKAk046iW7dunHIIYfQvn17MjIyaNGiBcnJyaSlpSWU4c91XVq2bMncuXOZP38+48aNAzTwJiUlUVxcTF5eHvn5+eTm5rJz50527txJQUEBjuOQnp5ORkYGGRkZtGzZkubNm5Oenk4wGCQcDhMKhWjWrBlffPEFkydP5r777qNjx45x5+wrwpj0zf5CoRAlJSWlfdu9ezcbNmygY8eO9OvXj+nTp/Poo48+B1yewPWOS13ai697+umnJ6xatWpI586dg5s3b+bdd9/9vE2bNvkvvPBCYPfuRPNF7DO4P/zwQ/revXuPAtLr80CvvfYaqampRZFIpIi6Fe72a/Z1M+++SH39z4LBoJOXlxe6/PLLl7Rr187Zl8NuI5GIk5mZ2b1Lly4HBwIBPvnkk7Vbt259iNoP/gAh4OV169b13rVrV6c2bdrw7rvv0qpVK5KTk8sJVuZ3otEXycnJ7Nq1i6lTpzJ8+HDS09PJy8sjHA6XWnBatGhBy5Ytad++fYX3jDm+67plpgscx6GoqIijjz6atLQ0srOzadeuXUL3n9+alJKSUprLxU/fvn1Lp3mPOOKIt4Ex1b4IlVAfg8RhwNFANrCxHvb/o2Tjxo1rS0pKDqvPMMhwOBxxXXclsN1xnDp1BjA3876u8VgsleACzdPS0hZ26dLlqsbuTAPSH0glwZj/6rBixYqfFRQUTE5OTv5JKBQqM7jXhQCXnp7Oiy++yL333suqVavIzc2tso3fAbCqSANDcnIymzZtYsiQIbz55pt06dKlTi3eJstgcnLygu7du1/tOM7iuthvfXiMfUP1i0PsN2zfvn17IBA4rL727920EaAASKb2OR4sFktZXCAtEol83dgdaWAW1NeOe/To8d7XX3/93g8//NApNTW1eV1abVJTU8nJyeGll17i5ZdfpqSkpFrTsCkpKSxdupTp06dz5513Vqt6bTgcpkOHDtx222289dZbXHXVVaUJjWqL6e/atWvz169f/3GPHj3qZPCH+hEALHEIBAJfAH0dx0muL3NyOBwuCgQCRa7r2sHfYql7HMdxSvLz81c0dkf2JXr27DnprLPOGnnDDTc0P/DAA2usOfvN7oFAgKKiIubNm8fgwYPp1atX6bx+VZhUxyUlJaWx+lURiURITk5m0KBBjBs3jpNPPpmsrKxSX4BAIFBjJ/hgMMjGjRsZM2bMrnXr1iVc8rcyrADQcMx2HOcypJ3XOd7N9UMoFAoHAoGATQZksdQt3rTajlAoZC2cdUvO7NmzF2RkZAwbN25cjTVn/zx9MBhkzZo1vPrqqzz11FMJh58HAgGCwWBCU56hUIgOHTpw6aWX8vDDDzN16tTS9kaoSTSE0XEcwuEwL7/8csm6devmAk8ntIMqaEhNMQnIqMZ2h6OT/BtwRL32qAHp06fPTM85r87xJSfZHYlEHDNvZT/2Yz918/Gcz1Jc1/2moKDACgB1z/XTp0+fvWvXroTrxZi8DAsWLCASiRAIBCguLuall15i9OjRtG/fvkFS0LuutPuBAweSkZHBrFmzaNWqFeFwmPnz57N9+/aEz811XVJSUoqnT5/+EPDnuu5zQ1oALgFGA2OBjyvZ7v+ATOCPwJ+ATsCJlWz/KnAQMA74oi46Wl84jrM8EAicWNc3o+vKizQSieQ6jmO1f4uljnEcx41EIgHXdVefcsopNptZ3bMOGNKqVaun0tPTr8rLy6u21m6c9ebNm4frupxxxhm8//77bNq0idGjR5eubwhKSko48MADGTZsGNdddx2/+MUvKCwsZNy4ccyYMaPaFgXXdUlLSyM9PZ3U1NSbgIn10d+GFABcIAKEUfRBVyDF+7sE+BYYiQbzhd6yXwKtvPadkIPbT4A2wCxv+e+8fecCvwEmAd2Q1+p3KGFFe2AL8GU9nl+VOI7zt/oQALz40R9c1y10HCelTndusVhwXTfJcZzdJSUlaxu7L/sy/fr1G/33v//9wI4dO57Xtm3bannhm/TAe/fu5eqrr2bx4sVcccUVTJ06lUMPPbS0JG9DYHwPzj77bD744APuueceevbsCSitcVXnYmjevDkLFy7k8ccf/3ThwoX1MvhDwwsAAMXApcCvgFVAH+AHNHhnAf2Ag4ErgM5IILgaafitgDQkNJztLb/LW3aN1yYVeAx4BU05nAK0A3YD/0IWg0ahd+/eLyxZsuT5uopRNvNDnnlyp+u6NkbPYqljXNfFcZxkYE0oFFrZ2P3Z1/nNb37z1emnn372mDFjUjMzM6vU3h3HIT8/n23btgEwYsQIRo4cSefOndm1axeFhYU0a9asXgvRmXfx+vXrycvLo1WrVgwcOJAbb7yRf//73wBs3brV3EuV9iMpKYmvvvqKJ598Mn/hwoXl8yLXIY3hBFiCBuTj0GD8B2T+uRZVluoHfApMBZ4nagHoQVQYCKOY1Ku9fbVAQsB44GU03QDwnrfd5ciEci2NKAB4fBEIBPrVhRXAmP5DoZAbiUR2RyKRYFUmJv/6mjwMtWkf27dE2sc7r9q0b6i2TenYDdnvum7f2Nfcdd1IJBLZeOqppzaqFXE/4a65c+d2ysjIGDF27NiMqiqcGgFg3bp1AGzYsIHU1FTuvvtuli5dytChQxk1ahQpKSlV3ge1ERBM9MCTTz7Jp59+Wto3s8/NmzdXuY9gMEhRUVHJ4sWLN3722WcvU0+mf0NjCAAOmgrYAUzxls1Hpv33kIBg/gsh7zdAIbCWaEzqOjRFUOxtk+R9N1wAtEYCxfNIUGhT1yeTKK7rzgwGg3UqAITD4dxIJFLgViP8r6kMCI39Qm+oY8e2b8i2+8qxa9u+DtomAbnhcNhq/w3H3a+88sqq2267bURSUtKASCRCYWFhXEUgEomQn5/Pd999V7osJyeHnJwcbrjhBn7+859Xq/xvUlJS3PsuGAySlJRUaXpfo9n36tWLu+++mxkzZjBt2rQy997atWsrDCt0XdekOC4JBoMf9OnT5zFgdqUdrgMaKwzQ+AMYQl5fHN8nlnBMmxLKVjN0kfnfXPEMYC+wHPkCpAB5ddD3WhEKhT53HGe34zita2uOikQipirZroju7kBVFgD/Q5BoVj/jEV2TtrU9duzDm0h7f79re+yGPu+6uuYN3W+oXd8b816LvV9QtNS2YDBY7y9kSykbgD9nZWW9/d577z1aXFx8ardu3cjPzy/3LEciEfLyyr/aH374YU466SSSk5NLq9TGw3EcQqEQS5YsoV27dvTu3RuT4jk9XdnbP/roIw4//HAOOuigCgUJo5C1a9eOa6+9lo4dO3LvvfeWrl++fDnFxcWkpaWVO4c2bdowd+5ctm3btvb222+/NCsr67t4x6hrGlIACHrHC3jf/fHwyd6ygLeNGdiTfH00AoK/jePbJhXYjDR9gKeA33v7erxuT6XmHHfccW9nZ2e/n5SUdE5tSyOXlJQQCoUKw+HwHjv/b7HUPY6kh5JIJLLytNNO29LY/dnfcBxnKTDmqKOOWnr99dczcOBAioqKygiHJSUl7Nq1q0y7F198kT59+pQm9KkM43EfiUQYOnQoDzzwAJmZmaSmprJ69Wpef/115syZwzvvvFOtKYSSkhICgQAXX3wxhx56KKNGjQI0BVBUVERaWpr//AgGg7z++uvceOONIeCOO+64o0EGf2hYASAXefoXIYc8f52AbWjwL0Te+rt8ywu871uRpcCwCWn4W4F8NNCvA/6NIghuBI4C3kE+Bbu875Pq9KxqxsJwOHym4zjNamoFMCaxUCi0OxQKNZybq8WyH+E4ThDY2a1btyajROyHLFu+fPl5V1555cSpU6ceeOyxx6aZ6AAjAGzZItlsyJAh3HbbbbRt25bc3NyErD+HH344I0eO5JZbbild9uabbwLwxBNPkJqaWqUwYTBWicGDBzNnzhwmT57MzJkz2bFjB23atMF13dJkQxs3bsx99tlnNwG9qn9J6garNTYC2dnZRziOMzUYDA6qiS+AcXrJzc0tDofDqyORyG7HcSqc/6+N+dvfvjZta9K+Mftd2/ZN4bwb+tixwuw+cq+lAHOGDBlya8IdstQ58+fPv7V58+a/LCoq6pWcnBxITU1l69atTJo0ie7du3P++eeTkpJSob9ARZhKfLNmzSojAAD07NmTyZMn07Zt24QzCgKkpaWxc+dOXnnlFY466ihOOukk8vPzycvLCx1wwAFftWrV6s/dunV7KeEd1wFWAGgklixZ8hBwleM4LRJ1aAuHw+zYsYPi4uLvQ6HQauT3YP+Xlv0SownWw36THMf5YdiwYWc7jmOtbE0E13V7Pvjggy+mpaX17t+/PwBr1qyhe/fuJCUl1WiQBg3UOTk53H///SxcuLB0+e23387w4cMJBoM1Lu6TkpLC3r17KSwsJCkpiU8//ZRZs2Yt69q165jnnnvuvzXaaR1gawE0EkVFRX9KS0s7GTg2kXaO47B3716KiopKQqHQ1nA4HPbMlOWorxdjQ/Bj7XttrQ6WxKntvVJBexdoDjxnB/+mheM4XwMPAlddffXVg88991z69etnpkRrvN/i4mK6du1KVlZWqQCQnp5Or169SE1NrVGRImPqj0QitGjRghYtWrgTJ078fsqUKdnA6x999FGjDf5gtcZGZfHixVcFg8E/O47TqjqSpckytWXLFsLh8JaSkpI1QGnsf3UtCRUloqhOgqLGatuYx65tvyvatjHPu7btm/r/rKLtqtPWdV3XcZwDHMf538iRI8+v8kCWxuJo4JzXX3+9fffu3c+ORCKHGC29oKCgysbxaN68OfPmzSt13Lvsssv47W9/S8uWLWskXKSnpxMKhcjNzSU9PT0nGAy+2rt37xzgIxTW3qhYC0AjcswxxzydnZ19guM4v3Ycx6nsxWTyWe/YsYOSkpKC4uLidcQp5lSdl2pFVPelWtP2jdW2Po9d2/ZNue/763kDqY7j7AmHw5Mr3YmlsVkGLDv33HNxXfeaoUOHflJUVDRg9OjRTrdu3fA7ClZXUC8oKKB///507tyZ9evXk5WVRUZGBoWFhdVqb+4783fBggXMmDGDnJycJWeeeebov/71r5/X6EzriaZqATgB6IsSAx0AtAXeTaD9eah2QGwWpWbAIGA7kJ1gnx5CkQV1zpIlSz4PBoP9I5FIhRpPJBJh+/bt5ObmRoqLi7+MRCJ5eAJcU3D6akJOW/XaNnYfPzYHw8Y8dlN26vRNAyQDJaFQ6JnLLrvs2RodyNKY3A9cOWHChMCwYcOSCgsLmzuOEzRx/VVp8a7r0rp1a5577jneffdd7rvvPjp06FBpEiCgtMqfZ8kNJSUl5efm5m4YNGiQC7wB3FnrM6sHmqoAMBY4H5U/7IFy/1+ZQPspSIDoF7O8O3ADsBL4S4J9qldHu+zs7BWO43T3S6uO45SGuezYsYNdu3aVlJSUrA2Hw9sd1SYHyifJqQzzINSkbWz72rRNtP2Ptd/x2ieyj9q0jde+Nm0b8tix7evzf+ZZ34KO4wRd193tuu6bl19++WMJHdDS5FizZs2vNmzYcOn7778/MDMzs+Vhhx1G27ZtCQQCpfH3UFpMrbRdcnIyW7du5bPPPmP48OGl9VZA91VyslLYeDVYSE5O5ttvvyUnJ4cFCxbkZWVlfX7eeedNPuyww95o+LNOjMYSAE4CVqPsftu9v35GIy1+Eorxbwe86Ft/KOr7+ph2nVG2v/FIADgV1RLY460/BBiMEga972s3EKUmXuX9zkLhP4t82+xF1oh6YdGiRccEAoEHA4HA8UlJSQdEIhFCoRCFhYXs3LmTPXv2FJeUlHwbiUR2Ol7J30Sdn8z2ximlJs5Tpm2imJSapm0ix66rfkPiA4npt2nb2Nc80fa1OW9/vxM99o/oXnOAiOM4ua7rbgiHw3NHjRr194QPamnKPAb0HjBgQMuHH344r0WLFq03bdrUdffu3c3T09PJyMigdevWpUWHzP1TWFiIqUNgYvYLCgrYvHkzr6Xh+gAAG49JREFUe/fuJTk5ubBLly5rMjIyvn/wwQdDU6ZMcYCvgL+jirZNnoYWAG5B1fnWoAE3AnQEnkaD7Xhkov8Hqhj4CPBTNLBfCkxDAzPA4Sjhz2jv9xPI7L8OedYXecd6DgkFPwH+hMoHrwTuA4Ygs/4qlFBoBnAmSsjQ0tvHxd7+61UAAFi0aFGHYDB4bSAQ6BMKhToXFRWl5ubmbty6deu3xcXFO8Lh8K7K4v0tFktiOJIMSkKh0Ld5eXmzbrzxxm2N3SdLvdEfWPD999+fNmHChF9MmzbtmB49enQZPHhw3kUXXbTedd0W8+fP77V+/fq2qampBAIB8vLyaNGiReGgQYOWtWvXbtvy5ct54IEHjli8ePF3/fr1++qmm26adeGFF/5oU0Q3pAAwHLgXDchLUC7/5sADaGCfCMwEcoClwEVoCuBcoBtwBrAYZRN8Bg3yv/a2OxpVBpyCJLAbgA6o4uAcNIVwCxIOHvL2cwMSQm5H3piFyC+gF6ou2Nbb91de23oXAAyLFi1qVVRU1K+oqCitffv2OT179sxpiONaLBbLfkR34Aggz3Xd7C1btnQ48sgjj//hhx8OQYqmi7LP7rz//vsXjR8/fqXjOC4wAI0ltjhUAswBnoyz/DM00LcnatK/GjkAng5MBmZ5yz9H5hyQNPcuKvH7HrIAGCYBH3rf5yNtH2Tafw+YAFyBBI14XOn1dRkSNkACgMVisVgaj1Tf9ww0PZzeSH350dOQYYAu8TXoZ5F1YDSyDEDFlgm/i3wqmkJwkQ9Bim9dbEVBvwun632CMW0MC1EFweloesJisVji4aB3iP/9cgB6H9UsEL16HI0UpjzgkwTbHoqmU13gP6hOyo+JnsCFQBfkR7YNOBCVgn+Hsn5blipoyPnkfwG9gYeBs4CR6AF6GpncrwRMvm1T3S8JPWCmfFIK0SqCSSisrwWqm3yM134YcKS3Dq9tmq9NmrfuGeQgOBE4B/kDNPP6OAlNIXSIObbFYrEYgsi36GHgVWSNPB0YCvwRKRFn1fExxyHrZS9v3/dWvnk57kMCwIloavTHRjZwPBICdhAt7jYK+ZBZpS0BGlIAeBp53ndCjnaHE9XoV6JqgV95v7cj6W4Pqhq4xrfdBu97rreNuQmykXQ4wNvGJFz4H2DKK+Z5bb71fj+IHoJTvbYFwD/RA3a4d2wTGWCsExaLxQKaH14KnI0UGlPRtARZJ7Oo2wHpKuA3wE40FfqJ9/uSBPYxBDlDn4mcrZsaj1Rjmxaoouyj3u87UWTXiZQP/bY0MY4BLvD+Glaim9vQFpXyTUKmnp7e8t7IhIW3rheaAzKcAZzmfT/E+5sFZHrfA16bTr42R6KH93jfsnOBPkBrFIEAurksFosllhyiyouf66jbAelNpND4mQV8Xc32LyCh5UWUa8UwHvlQDY/Zfrz39zKqb8k4pOpN4vIPdA2ryr+QhXzFYhPDLUHX4YQaHt/SCPRFg/+rjd0Ri8ViqQG/RvPQf4uzLoO6s7L+BFlGZ8UsvwXYRfVqyT+P/BNeRY7WICvnbBRBtRqFQhtyveMtJBoOXRG3A98j5e4NZN0dX2mLaJ/Wesf9HZp2reo4PyArhmEGCuO+qxrHs/ho7FoAEeC3JO7IYonPr9A0x5v1fJwjUabGV5D2YylPB2T+XYemqSrj5+gF/mgV29U1lyA/nOcb+Lj7EmcBbYAV3u8zkPXyPSqOMjoVea7HS1DvIIe2WA23E7KMxj5v25C/1FnEt0L4uRQN0KbAUQ5yArzA+30Nsgw8CNyETO0FKJy6Kl4F7kDX4lXgbeCLONs5aJr2MjR1Mh+FeVe3JvpP0fn2QlPKrb1j/bKa7S2WfZILkMS+CU1p1CfnowyNF1S14X7MGOSVfJn3uxWKO47HY0hQqG96IY9pw38omxHTkjgfo+fuVuD3KNy5KgF8NjJZZ8f5LCEawuznXORb8KeY5b9BAkN1UpsfinwUDkRTsBuRBcHPF2iqAKSgHVmN/YI08zzKTuXG404ktEyp5n79ZCJrhPHvyka+AJYaYrPK7Rt0Rd7H44F5wIh6Pl4+0gwSL5C9/7AJaWRbvN/3IA0sHiXep775E2V9WULY/2Ft+AVwEAo9+wANSBvQM1gZZyEfo75xPn1QqvRYjIYcGyLteOuqc/+YfUSIJrqJzbUcu//qjhHDkNP201Vs1wI57KVQXpipirOQJWSj9/sBZEl5MMH9WDz2BQHgQuAPyIy0v3IwCmv8K9JIEi9cXTnXonm955AmEvY+hcDjaA7ubN/2PVACp9dQ0iXjqHkkysTYC2ksZl7xeOBllBHyFPRgZ/n2d6tvX/Ho47VpgZyZXkH3hZ+T0DV6Fb2sQGFcY1DdifuQ05afvl6boG/ZvcDl3vebkTn3WuB1ympThcj0vxqZRn+FzJQm74WfeHkvTF+v9y0bgF6aA1C+8WdQJjM/V6Jr9QS67kYzfAgNWOPR9YFoDo1z0P/3PiyJ8FOklX6DpjHno4ikd+rhWLvR+7p5zPIUNPh/k8C+UlECtlzKChs3ozwG/jr11Z0mPhpFUFXFjeg5cNEz/h+UCK46ZCFLmhEA5qAIr9MqbGGplH1BADgeDRqZVW24D7OIaAKMCJVrAwei+en2cT7xeB8N1KZeQjoSMMJEHXIORg+xCUfqgx7wZejhNGWZW6Ppg0lIYDPmu5lIe9iNBrgriAoN09Aguxi9cF+L08dmyPQ4HVknCtGAN8pb/zukgUfQXO1TyAQaRvfO3SizZGzNz25IkGjhW3YG0YiRwch8f7x3ba4jGpc9AE3FDECe23neOa6gap+A/6Hr+g2aZjFZLjOQsHszcgg7DnlPG8epR5DAsN073odEp4O+9a7LNqIpTEPIS30omoK4GPh3FX2zROmMLCj+lLDLvA+UFRz9/MdrsyLOZyUanGP5Dv1fD49Z3ho97y+Ua1GeVCQwtPZ+P4yirBYD/0XP3Xyi2U8dygsc8RiG8qXECtAVsRJZw55A59oLefDfX0W79uj+NT5ju5GvxSFU7aRo2Ud5CGlfg2vQ9myqH0LzY+FxZAWIRyc0YMxDg4P5zEPzlqfGbD8Fvcx+E7P85+jhMxrvT9HcpfEg9md8/CO6xpegMM49aMA3L8f1lH15Pe5t8zOUHTJWs4kn3HRHg/tFvmVvIO0bZLl427fudqLOVB+gec94YU4j0UDqTzW6FJjqfX+XshUpn0QvaZA2/SVycgW9YCuKu/6Lrz8zkSDj3+ccFN40GA3aQ7x1JyItbjgaxLORwGR4DsWMGzZRNvzrbfTyP8X7fQ8aaDIq6KclSiYSjr8kvm/HLShCIB5DkRZ8YZzPL5GVLR4vUT4M8B8oc2l1SEWJhPyD+onIgnUTut9b+dbdhBwPq+JzaufDkoXeDx8SdaaM5dfovbCaslOc16Fnwvqy1ICGjgK4GN387ZEUOBpphCPQA7UR3eSzkWfySlT051DgLfSCAt0sl6AbIoAGkx1Ie2yLvFnx9jMLmcZPQw9XN/TSvhOZjbsg09WLaL72EvRAb0eDyD+QFnYa0spaI42yKXIFepjnV7B+E4lJyseigT22PGoK0p6N1/En6H9hsi92RtfR5Fw4CP2fUpGWPYNoCehOlE1k8ia63g5wGKrK+JR3zGKv/QVEzdh4+3UpWzL6CqKD8dFeu6fRvZJJdJALoJdXvIpeJm10JM4ywyrf9xlEq1OadmbbIBVrhPi2O5powSsHaXzt0fTJN+i6mVCwj73fB3rnczCabjC8R9mXpRPThwDSqMzLc4O37AT0vFkqZjiyGn2JBMQ+aGDtiJ7BEPLLiUdNr+1ryNpzLxIM05EJv1NljXwUIa3fz8dUrDBUd279Uar2e6iMpd7HKAJBypeIDyPh1fitHIDqs0xC1s9eSED+qBb92O9oSAFgGIrTnIYG3g7oH3YrMBcNTM8hzWk2eqB6I1PROUg63uht+wgy+b6FtKMgGtQ7UTYx0JFETeP3etucigb9jch6cAdRM+lCJIGejG7qsUjDykeD1JM0bYeTsUiDqyg0rwU6j4MoO4g5SNN9i7LmzDDRVMjxSPZ9N85IoJjoEJpf74Q0XP9+KrvvWnp/XW//RUhLbeMtv4byc6zxQoj6ImtBGzSobUWWiDQkuEz29buiqbCQt76wkmP5B9TmFfTFHCf2pRaPABqIv0aCzVdoTvZNZBWJ5y8Q8X0yiWa6NIJR7Laxx/N/N34BlooJomfoAyT4nuv9bYsEtnzqJxTXzLGf6B2zO9GQvsZkRtWbJES8+++lSrb/BBtKXiMaUgD4LdJMH/B+f4e08LVENcyZaMC4CL2MXkUSNshM1Mf7LCA6F/wl0hQPQZKhvwhHofc5ET2YA73l67y/BURfkBd7301fJiEBYijSNndT1nza1JiBhJ8JRLMlxpKGrlUmZQeCAHqBtYrZfgkS0q6kfKKTeAORuZYDfevPRYKHOV5soabVyBT9C+/3cK+fIXRvhNEL9Rkqptg7h9uIOrLdgu6NXej/nUHUF6G6zENCyFXIevB7pI2bF1TsucTz0DYUUnlaWLPt1+h/FC+u2S9k+UlFQl8u0j4XeMsvpOzLNEDl5v3Y87HEJ4z8RhqDf3qf9kQjTCyWGtGQAsABSAvz0ww9THne7wh68ad43/0vWjOApPu2h6hHunl5+TUasyyF+C+2ZKIv1OaUnV/O9Y4ZRC/Yphxv+gf0sh+HhJo2FWy3Hbghgf2OR1aPMShzmJm/X47uHb/2m0TUIjDX22YlZU3mZht/u9vR1M0ipPmmEL0H3kJOdH9Emn8xGuiujNPXCBIO5yJBJkA0r/gbaEpggbePMDKFvun1qaLnYKfX9g5kOdlAWaExtm2Q6H1m1plznY0sYG97x54b085cu1u89V8gwSeENM27iV/BMhndn2+iazWU6Jxs7JTDPCTo9kfWhCBln5cg5f+vlqaJHfwttaYhBYDX0Iv0bfRSxfs7Ac1TPoxeYIehqYAbff0z86fJaD7fX8KyF9Iwi5HGarywr0BSchKaF8pDpmj/ABghqhE9gzTIE9Dc6e+RpvwcEg785u6mxh+RWfwR5CHur5ndBmnBNWEb0n5/i3wfctE1XoEsOf4CSVOIWl9GowFzFxICPkCD70av3QJfu1eJhgR9hwbnnkSndW5DVoEMJKBtoDwmpnk8ms5J8/pm7rPn0QvzOHQ/FBGdu59CWYEylgvQ4BtBTnbvEPUteI6yguUyovffO15fzbk+hgTeCNEwJsNsos6E2UiLP9/bdxFRr/KvifrBGCYQ9fm4DVlNOiF/Dxf5cRjGI2cqE+3wfEz/P0FTXNV1KrNYLJZqcwN68X5JdD7rd2hA/xw5IxlP9C+Ilgfui0zcxoQ7Fs1z/hfFVU8BBnnrPvDWvYQG/j94yy9Dc/xfIyHkJOSHMA/NMf8chXN9jF7aHxDVNH9JxWk9G5sPUbVEE897D7ouIKtARR7FTYX0mN+fIL+OdnG2rYi+lJ/b3h+JDdlaTlQIslgsFss+xJ/RtIp/PnI00v7WoXjj3g3frYQ4B2m/7yDBcAFlkwpVh95EtfL9mcnIafBtNFViPaIt9cEBKNnX/khW1ZtYLA3DH4k/p/8I0qKHxFnXFGmHcg3YjF61px+KnOnb2B2xVMkwolNGVfEIcGYC+55ENOFPTXgUVSCMx0iUe2V/5L9Vb2KxWCwWS+XcTNnwtVEoRDkey5EzbnVIRhagw2rcM/n5nFLBunHsvxa36lYtrIxRVC/BksVisVj2UXpS1kdnJcqqGY8LqLiaZDwqykJYXS6ibApsP9ey/0Yh1EWOjFgnYIvFYrH8COmBUjd/ifwvro1Z/w7SpuNl/7sO+emAwkJd5MD8RZxtFxJN+tMKOXeu8LWPxeRPGY2mD85B/jVrkAbv5ynfvkyJ78WULbA2A0WYvI8cjTfH7ON9bx//qqA/Z6CIn2XIEdsIOq1RNMooVBBsI2VTZi+mbPGsu1BelnjThVNRquRlyLpi+Ds672Vo2tTwgnfce7z1c1EUmJ/J3rpPUESUKbR2jneuJuusg9KY+zOUdkW1DtagMN3+6P/oIj+td33b3uL1PYeyFRVPRFFCY7ztE/WPslgsFks9cTyq9NgTDdA70UABCgN9Evm4nEX5rJoPEB1ITZ2Maylf4REUAmsGmy/QYNqWiqN8jKZ6DXKy/RzliHgYpU2/yVs/jWj+/ZOAo7zvxSgtdQfkTPqZt/4UZP434bhdUPjuWBSq+xZlw7QNpyGrhEly5a9YuhhZFMYhX6C1RAWbLyibM2Me5YWpPkjgeR+lXz4VDZypaNCfg3xjfu/129TL+BdK7z7Ra7fI279xcJyB0m+f4Z37CqK5Yn5H2bBcx+uXEd4u97Ydg+6Rn6EU6aD/zflIQMBrtxoJH6amh0nPfZS3n49QVJrJlGqxWCyWJkA6EgJGEQ1jBQ0Q06m4JsD9RNM2g/JmVKTh5RGtbvkp0gor0wbNAHsNigi6ybfuPaK5+2cjrTS2fLbJFXE/0mD9xxqHBn3Qub6OLAfnorwUnxPfObkLEgJGoHM1Yd7LiBbYAuV6MXVGehIN8R2Grm9sPYOX0aAZWxL+eTQg/9y3bBJRgSc29fn1SAO/BglkeZS1PmQQFawuR7lG7vSt/ze6lnjn56/L4cc/jTAEXUt/crM/IGuA2XcE1fuoc/aFcsAWi8XSWJyHTL8jUTrrtkQHrAdQ2NgtREs6V0Vspkc/JmnTNO84N1E+RXcsySiLqb+eRSHRbI9nIQ1zLDKVxworzZA1YKZvWbHv+8EoZfoIdA2O9vbnPx4oMuVeNKBehAQUf94K/z5NgbejkBC1ESW5GoSurb/oF8iysgcJKn7aooJBflN7rnfs4eja+BOLbfWOneK1DVO2PLa/smZFNTn8LImzjcGUXz8eJVzzZ5p929v/wb79fl/JvmqMFQAsFoul5lyK6oxMQvPC2USTW72ABICv0UBbVS2R2MJTFfE3NHDMRZr3JZVs66L3fGzNCr83+09R4rTeRMtXG0xa7uN8y/yZRl2krf4FTXfc6/Xpcd82B3nLuiKt9gI0DeHPrho7FvmrcD6JErllooEw1kciTNkS5IZ8JMAc41uW7h1rsfc7NpW3SV2e563zZ9L0p1gvQNfFfw7NfN8DVBzRAVEnyo3Ip8PfdhA6p52xjeoaKwBYLBZLzWmHNN4PkVZ5CtFB/GTv7z/RYJIa0za2+JIpxRyPJKLv6wHe33uQFh3vPW72a9Kox6uRAtFcIY8h7fgg3zbdkMk9n6g5uh+apzdTDP9EwsgJaFrhM8pn90xDA3QxMr+bsuzmOsUrouWv6/KAd559iF958EM0OPudB49AjpKtiDr+DUGC2Eo08MbWJQkQreHxOZqGMJabo71jG6FkttdHIxjdioQFkw79HTQF8DNffzK97yHkzAgS5nYih1DQdbocWTRe99rVW4EuKwBYLBZLzZmIHLNWIzP4R0TneG9G3t7TkCl5QkzbEspWL52MHAjjOdHt9bZvhubXNyLnvqmoJkUs+d7fYu+7v9BZEdHB9xfIR2A9Goge8LVPR45yE1Ely+3e939631ORj8BfvX5vRqneY6MMNiLv+NbIWnA8uk4mzLCQslMAxZS3hHyCBux4AsBE7/MTr185aGrmRe98DkP/h0eQc+EtXrsCyl7/ENL8jXBzj9eP7eh/OJOo5r4HJUvq7C3rgvwhzP4uRNfuWTS18AQSIvD6cT1R58Y/oOu/AflD7PSOvcQ7Z/O/tFgsFotlv6I/GmSbel0Ti8VisVgsdcTvUBbEf1e1oSVx7BSAxWKxWJoqJ6A5++FVbWixWCwWi8VisVgsFovFYrFYLBaLxWIBysZAWiwWi+XHTQZKn/sdSuxjahBsQkmJgij//cXAoShkrjq0R6FuO6ibkrgWi8VisezTtGrg440GPva+34AS79zv/Z4N/J/3/QuUaKa63Ig88SsqV2z5EWKjACwWi6V+mE60vG5DUYQ0fFASm71Ek+rsJVrkp4SyyYGqohAlyUmkjaWJYwUAi8ViqR2/RvnqJ/qW3YCq141G6V4Pr6DtPcBTRFPyGroADxKtfDeOaF76sSjTnWEE0ex7K1Ea2njMI2odAA3mg1AmwVtjtjWV7MagErXLUBXBFSj97Z2ULVz0J5ThD1RP4EwUwjcFpQ4GGIxqBMRmCrQ0ElYAsFgslppzJsrNvwelujUV6UwFPlPJLRyn7RKUSrYIpQk2OevPQeb6LJRu97/A7SiXfEeUS/80335O9paBSt/eXEFfb0SDOSjd7Qkohe9OVMlvvm/bK4E3Ufx9CAkZ16J0tr1RcZ72vu3/QDQv/lBUHGgcSl38ABIyrkQ5/cdT/eqIlnrECgAWi8VSc95HhV1uQVrzdyjv/RRkiv8ADXjfxLR7GjnUXYrywi8CzkBOetcgc/2ZwO+RFaA1yglfiHL0p/n2lUq0tK4ppRsPf1XAAEqv+xSyKDyFSuBO9dYfhPLan4PK05qiQi7KT38AZfP1+6vqtUbWgX8gZ8OZ3rnMQ4VuxqAMf5ZGJqnqTSwWi8VSAUlIO+4FHII863Nj1sdjKLAQOeUF0KDZHeiLct9f5tt2FrIkpHh/Tclag/93hPJ16eNtF0BCiZkSeAZp+91868cSrVNvyvO6vo8pmoNvnWm7AnjN+70F+Q884/2ejkolWxoZawGwWCyWmnM30VKuE5FZ32jnDvFN/yDTeAkqY9sWVYN7CNWpjy1Ta3CJOuH5BQD/MWpTOjYQs6+WlWzrICtFRceNLbMbu96GEjYBrAXAYrFYas5gVAp4rPf7MaJac4SKwwAXAQejufdYVgCjUNldvO8OGvzz0CB9kG/7PkQH7soGVv+6CNAV+RV8ixwZuxAtUQvxhRDH6wPA1UjoOQtNSxTH2b4qTkZ+DR+jcriWBsQKABaLxVJzFgA/Q057u5BmbwbId5G3/uHAKTHtrgdeArKRk2AKMplPAp5Hc/+LUS35rWjwN+/r91C9+SXI58AlqmGnovl58z3d+4u33FgnQt7+pnjHzkSCxwRvfbKvHV675t7+PvT6drPXjxXANmTJMG2TfW2TYn5D1Pp8GTAQ5Sp4HkuDYjMBWiwWS81ZjpzztqA5/Q+A/6EB8iM00K1Dg6af7ShiIA9pvv9DwsQG4HNkRdiBBtc/o8H2FWAVEgAiaPD/HPkIrPaO76Ksfx/6tvnM60MScsRb7a1731u+yzv2E0SdFYPecfJ9fV6DNPWN3vc9KJPgXCTILPO1zwaWet9dNMXxqW9fySi6Idnrw8dI0LFYLBaLxeLDRXkFLJY6wzoBWiwWS9NnCxV791ssFovFYrFYLBaLxWKxWCwWi8VisVgsFovFYrFYLBaLxWKxWCwWi8VisVgsFovFYrFYLBaLxWKxWCwWi8VisVgsFovFYrFYmjz/D0OsaFlNNbiyAAAAAElFTkSuQmCC;" vertex="1" parent="120">
                    <mxGeometry x="9" y="27.5" width="329.14" height="126" as="geometry"/>
                </mxCell>
                <mxCell id="38" value="Electrostatic Potential Energy" style="swimlane;gradientColor=none;startSize=23;fontColor=#000000;fillColor=#F0A729;strokeColor=#F0A729;" vertex="1" parent="1">
                    <mxGeometry x="1573" y="350" width="597" height="100" as="geometry"/>
                </mxCell>
                <mxCell id="39" value="\[W_{ext}=\int_\infty^R\vec{F}_{ext}\cdot\vec{dr}=\int_R^\infty\vec{F}_{el}\cdot\vec{dr}=\frac{q_1q_2}{4\pi\epsilon_0}\int_R^\infty\frac{dr}{R^2}=\frac{q_1q_2}{4\pi\epsilon_0R}\]" style="rounded=1;whiteSpace=wrap;html=1;shadow=0;labelBackgroundColor=none;strokeColor=none;strokeWidth=3;fontFamily=Helvetica;fontSize=14;align=center;spacing=5;fontStyle=0;arcSize=7;perimeterSpacing=2;fontColor=#000000;fillColor=#f5af58;" vertex="1" parent="38">
                    <mxGeometry x="8.5" y="30" width="581.5" height="60" as="geometry"/>
                </mxCell>
                <mxCell id="53" value="" style="edgeStyle=none;rounded=1;jumpStyle=none;html=1;shadow=0;labelBackgroundColor=none;startArrow=none;startFill=0;jettySize=auto;orthogonalLoop=1;strokeColor=#E85642;strokeWidth=3;fontFamily=Helvetica;fontSize=14;fontColor=#FFFFFF;spacing=5;fontStyle=1;fillColor=#b0e3e6;exitX=0;exitY=0.75;exitDx=0;exitDy=0;entryX=1;entryY=0.5;entryDx=0;entryDy=0;" edge="1" parent="1" source="9" target="30">
                    <mxGeometry relative="1" as="geometry">
                        <mxPoint x="850.3587786259545" y="823" as="sourcePoint"/>
                        <mxPoint x="773.6412213740459" y="756" as="targetPoint"/>
                    </mxGeometry>
                </mxCell>
                <mxCell id="54" value="Applications" style="swimlane;gradientColor=none;strokeColor=#61C6CE;startSize=23;fillColor=#00BFBF;fontColor=#000000;" vertex="1" parent="1">
                    <mxGeometry x="1810" y="1180" width="350" height="180" as="geometry"/>
                </mxCell>
                <mxCell id="55" value="Electrostatic Spray Painting" style="rounded=1;whiteSpace=wrap;html=1;shadow=0;labelBackgroundColor=none;strokeColor=none;strokeWidth=3;fillColor=#61c6ce;fontFamily=Helvetica;fontSize=14;align=center;spacing=5;fontStyle=0;arcSize=7;perimeterSpacing=2;fontColor=#000000;" vertex="1" parent="54">
                    <mxGeometry x="9" y="30" width="331" height="40" as="geometry"/>
                </mxCell>
                <mxCell id="88" value="Dust Extraction" style="rounded=1;whiteSpace=wrap;html=1;shadow=0;labelBackgroundColor=none;strokeColor=none;strokeWidth=3;fillColor=#61c6ce;fontFamily=Helvetica;fontSize=14;align=center;spacing=5;fontStyle=0;arcSize=7;perimeterSpacing=2;fontColor=#000000;" vertex="1" parent="54">
                    <mxGeometry x="9" y="80.5" width="331" height="40" as="geometry"/>
                </mxCell>
                <mxCell id="89" value="Van de Graaff Generator" style="rounded=1;whiteSpace=wrap;html=1;shadow=0;labelBackgroundColor=none;strokeColor=none;strokeWidth=3;fillColor=#61c6ce;fontFamily=Helvetica;fontSize=14;align=center;spacing=5;fontStyle=0;arcSize=7;perimeterSpacing=2;fontColor=#000000;" vertex="1" parent="54">
                    <mxGeometry x="9" y="130" width="331" height="40" as="geometry"/>
                </mxCell>
                <mxCell id="58" value="Conservation of Charge" style="swimlane;gradientColor=none;strokeColor=#61C6CE;startSize=23;fillColor=#00BFBF;fontColor=#000000;" vertex="1" parent="1">
                    <mxGeometry x="1669.99" y="1380" width="380" height="90" as="geometry"/>
                </mxCell>
                <mxCell id="76" value="In a closed system, \(\sum Q=\) constant" style="rounded=1;whiteSpace=wrap;html=1;shadow=0;labelBackgroundColor=none;strokeColor=none;strokeWidth=3;fillColor=#61c6ce;fontFamily=Helvetica;fontSize=14;align=center;spacing=5;fontStyle=0;arcSize=7;perimeterSpacing=2;fontColor=#000000;" vertex="1" parent="58">
                    <mxGeometry x="10" y="30" width="360" height="50" as="geometry"/>
                </mxCell>
                <mxCell id="77" value="" style="edgeStyle=none;rounded=1;jumpStyle=none;html=1;shadow=0;labelBackgroundColor=none;startArrow=none;startFill=0;jettySize=auto;orthogonalLoop=1;strokeColor=#12AAB5;strokeWidth=3;fontFamily=Helvetica;fontSize=14;fontColor=#FFFFFF;spacing=5;fontStyle=1;fillColor=#b0e3e6;entryX=0;entryY=0.25;entryDx=0;entryDy=0;exitX=0.75;exitY=1;exitDx=0;exitDy=0;" edge="1" parent="1" source="12" target="58">
                    <mxGeometry relative="1" as="geometry">
                        <mxPoint x="1425" y="980" as="targetPoint"/>
                        <mxPoint x="1456.248" y="887" as="sourcePoint"/>
                    </mxGeometry>
                </mxCell>
                <mxCell id="78" value="" style="edgeStyle=none;rounded=1;jumpStyle=none;html=1;shadow=0;labelBackgroundColor=none;startArrow=none;startFill=0;jettySize=auto;orthogonalLoop=1;strokeColor=#12AAB5;strokeWidth=3;fontFamily=Helvetica;fontSize=14;fontColor=#FFFFFF;spacing=5;fontStyle=1;fillColor=#b0e3e6;entryX=0;entryY=0.25;entryDx=0;entryDy=0;exitX=1;exitY=1;exitDx=0;exitDy=0;" edge="1" parent="1" source="12" target="54">
                    <mxGeometry relative="1" as="geometry">
                        <mxPoint x="1920" y="942.5" as="targetPoint"/>
                        <mxPoint x="1544" y="871" as="sourcePoint"/>
                    </mxGeometry>
                </mxCell>
                <mxCell id="79" value="Electrostatic Induction" style="swimlane;gradientColor=none;strokeColor=#61C6CE;startSize=23;fillColor=#00BFBF;fontColor=#000000;" vertex="1" parent="1">
                    <mxGeometry x="1760" y="727" width="360" height="100" as="geometry"/>
                </mxCell>
                <mxCell id="80" value="A conductor is charged by bringing a charge body near it without contact." style="rounded=1;whiteSpace=wrap;html=1;shadow=0;labelBackgroundColor=none;strokeColor=none;strokeWidth=3;fillColor=#61c6ce;fontFamily=Helvetica;fontSize=14;align=center;spacing=5;fontStyle=0;arcSize=7;perimeterSpacing=2;fontColor=#000000;" vertex="1" parent="79">
                    <mxGeometry x="9" y="30" width="341" height="60" as="geometry"/>
                </mxCell>
                <mxCell id="84" value="Methods of Charging" style="swimlane;gradientColor=none;strokeColor=#61C6CE;startSize=23;fillColor=#00BFBF;fontColor=#000000;" vertex="1" parent="1">
                    <mxGeometry x="1800" y="840" width="430" height="80" as="geometry"/>
                </mxCell>
                <mxCell id="85" value="Friction" style="rounded=1;whiteSpace=wrap;html=1;shadow=0;labelBackgroundColor=none;strokeColor=none;strokeWidth=3;fillColor=#61c6ce;fontFamily=Helvetica;fontSize=14;align=center;spacing=5;fontStyle=0;arcSize=7;perimeterSpacing=2;fontColor=#000000;" vertex="1" parent="84">
                    <mxGeometry x="9" y="30" width="131" height="40" as="geometry"/>
                </mxCell>
                <mxCell id="86" value="Contact" style="rounded=1;whiteSpace=wrap;html=1;shadow=0;labelBackgroundColor=none;strokeColor=none;strokeWidth=3;fillColor=#61c6ce;fontFamily=Helvetica;fontSize=14;align=center;spacing=5;fontStyle=0;arcSize=7;perimeterSpacing=2;fontColor=#000000;" vertex="1" parent="84">
                    <mxGeometry x="149" y="30" width="131" height="40" as="geometry"/>
                </mxCell>
                <mxCell id="87" value="Induction" style="rounded=1;whiteSpace=wrap;html=1;shadow=0;labelBackgroundColor=none;strokeColor=none;strokeWidth=3;fillColor=#61c6ce;fontFamily=Helvetica;fontSize=14;align=center;spacing=5;fontStyle=0;arcSize=7;perimeterSpacing=2;fontColor=#000000;" vertex="1" parent="84">
                    <mxGeometry x="290" y="30" width="131" height="40" as="geometry"/>
                </mxCell>
                <mxCell id="90" value="" style="edgeStyle=none;rounded=1;jumpStyle=none;html=1;shadow=0;labelBackgroundColor=none;startArrow=none;startFill=0;jettySize=auto;orthogonalLoop=1;strokeColor=#12AAB5;strokeWidth=3;fontFamily=Helvetica;fontSize=14;fontColor=#FFFFFF;spacing=5;fontStyle=1;fillColor=#b0e3e6;entryX=0;entryY=0.5;entryDx=0;entryDy=0;exitX=1.004;exitY=0.456;exitDx=0;exitDy=0;exitPerimeter=0;" edge="1" parent="1" source="12" target="84">
                    <mxGeometry relative="1" as="geometry">
                        <mxPoint x="1670" y="510" as="targetPoint"/>
                        <mxPoint x="1537.5" y="833.9439590443685" as="sourcePoint"/>
                    </mxGeometry>
                </mxCell>
                <mxCell id="91" value="" style="edgeStyle=none;rounded=1;jumpStyle=none;html=1;shadow=0;labelBackgroundColor=none;startArrow=none;startFill=0;jettySize=auto;orthogonalLoop=1;strokeColor=#12AAB5;strokeWidth=3;fontFamily=Helvetica;fontSize=14;fontColor=#FFFFFF;spacing=5;fontStyle=1;fillColor=#b0e3e6;entryX=0;entryY=0.5;entryDx=0;entryDy=0;exitX=1;exitY=0.25;exitDx=0;exitDy=0;" edge="1" parent="1" source="12" target="79">
                    <mxGeometry relative="1" as="geometry">
                        <mxPoint x="1710" y="700" as="targetPoint"/>
                        <mxPoint x="1544.616" y="852.184" as="sourcePoint"/>
                    </mxGeometry>
                </mxCell>
                <mxCell id="93" value="Electric Potential" style="swimlane;gradientColor=none;startSize=23;fontColor=#000000;fillColor=#F0A729;strokeColor=#F0A729;" vertex="1" parent="1">
                    <mxGeometry x="1560" y="90" width="547" height="220" as="geometry"/>
                </mxCell>
                <mxCell id="94" value="Work done to bring unit charge from infinity to distance R from charge" style="rounded=1;whiteSpace=wrap;html=1;shadow=0;labelBackgroundColor=none;strokeColor=none;strokeWidth=3;fontFamily=Helvetica;fontSize=14;align=center;spacing=5;fontStyle=0;arcSize=7;perimeterSpacing=2;fontColor=#000000;fillColor=#f5af58;" vertex="1" parent="93">
                    <mxGeometry x="8.5" y="30" width="530" height="60" as="geometry"/>
                </mxCell>
                <mxCell id="95" value="\[V=\int_R^\infty\frac{\vec{F}_{el}}{q}\cdot\vec{dr}=\frac{Q}{4\pi\epsilon_0R}\] \[W_{ext}=qV \Rightarrow W_{el}=-qV\]" style="rounded=1;whiteSpace=wrap;html=1;shadow=0;labelBackgroundColor=none;strokeColor=none;strokeWidth=3;fontFamily=Helvetica;fontSize=14;align=center;spacing=5;fontStyle=0;arcSize=7;perimeterSpacing=2;fontColor=#000000;fillColor=#f5af58;" vertex="1" parent="93">
                    <mxGeometry x="8.5" y="100" width="530" height="110" as="geometry"/>
                </mxCell>
                <mxCell id="96" value="" style="edgeStyle=none;rounded=0;jumpStyle=none;html=1;shadow=0;labelBackgroundColor=none;startArrow=none;startFill=0;endArrow=classic;endFill=1;jettySize=auto;orthogonalLoop=1;strokeColor=#F08705;strokeWidth=3;fontFamily=Helvetica;fontSize=14;fontColor=#FFFFFF;spacing=5;entryX=0;entryY=1;entryDx=0;entryDy=0;exitX=0.75;exitY=0;exitDx=0;exitDy=0;" edge="1" parent="1" source="10" target="93">
                    <mxGeometry relative="1" as="geometry">
                        <mxPoint x="1370" y="340" as="targetPoint"/>
                        <mxPoint x="1243.999999999999" y="682.9999999999998" as="sourcePoint"/>
                    </mxGeometry>
                </mxCell>
                <mxCell id="97" value="Potential Difference" style="swimlane;gradientColor=none;startSize=23;fontColor=#000000;fillColor=#F0A729;strokeColor=#F0A729;" vertex="1" parent="1">
                    <mxGeometry x="94.5" y="140" width="839" height="190" as="geometry"/>
                </mxCell>
                <mxCell id="98" value="\[V_A-V_B=\int_A^\infty\vec{E}\cdot\vec{dr}-\int_B^\infty\vec{E}\cdot\vec{dr}=\int_A^B\vec{E}\cdot\vec{dr}=\int_A^B\vec{E}\cdot\vec{d\ell}\quad(\mathrm{Electric\ force\ is\ conservative\ force})\]" style="rounded=1;whiteSpace=wrap;html=1;shadow=0;labelBackgroundColor=none;strokeColor=none;strokeWidth=3;fontFamily=Helvetica;fontSize=14;align=center;spacing=5;fontStyle=0;arcSize=7;perimeterSpacing=2;fontColor=#000000;fillColor=#f5af58;" vertex="1" parent="97">
                    <mxGeometry x="8.5" y="30" width="821.5" height="60" as="geometry"/>
                </mxCell>
                <mxCell id="99" value="Change in potential energy: \[q(V_A-V_B)=K_B-K_A\]" style="rounded=1;whiteSpace=wrap;html=1;shadow=0;labelBackgroundColor=none;strokeColor=none;strokeWidth=3;fontFamily=Helvetica;fontSize=14;align=center;spacing=5;fontStyle=0;arcSize=7;perimeterSpacing=2;fontColor=#000000;fillColor=#f5af58;" vertex="1" parent="97">
                    <mxGeometry x="8.5" y="100" width="821.5" height="80" as="geometry"/>
                </mxCell>
                <mxCell id="100" value="Potential Gradient" style="swimlane;gradientColor=none;startSize=23;fontColor=#000000;fillColor=#F0A729;strokeColor=#F0A729;" vertex="1" parent="1">
                    <mxGeometry x="94.5" y="360" width="800" height="310" as="geometry"/>
                </mxCell>
                <mxCell id="101" value="\[\vec{E}=\frac{Q}{4\pi\epsilon_0r^2}\hat{r},\quad V=\frac{Q}{4\pi\epsilon_0r}\]" style="rounded=1;whiteSpace=wrap;html=1;shadow=0;labelBackgroundColor=none;strokeColor=none;strokeWidth=3;fontFamily=Helvetica;fontSize=14;align=center;spacing=5;fontStyle=0;arcSize=7;perimeterSpacing=2;fontColor=#000000;fillColor=#f5af58;" vertex="1" parent="100">
                    <mxGeometry x="8.5" y="30" width="781.5" height="60" as="geometry"/>
                </mxCell>
                <mxCell id="102" value="\[\frac{dV}{dr}\hat{r}=-\frac{Q}{4\pi\epsilon_0r^2}\hat{r}\quad\Rightarrow\quad\vec{E}=-\frac{dV}{dr}\hat{r}\]" style="rounded=1;whiteSpace=wrap;html=1;shadow=0;labelBackgroundColor=none;strokeColor=none;strokeWidth=3;fontFamily=Helvetica;fontSize=14;align=center;spacing=5;fontStyle=0;arcSize=7;perimeterSpacing=2;fontColor=#000000;fillColor=#f5af58;" vertex="1" parent="100">
                    <mxGeometry x="8.5" y="100" width="781.5" height="60" as="geometry"/>
                </mxCell>
                <mxCell id="103" value="\[\left|E_x\right|=\left|{\frac{\Delta V}{\Delta x}}\right|_{yz},\quad\left|E_y\right|=\left|{\frac{\Delta V}{\Delta y}}\right|_{xz},\quad\left|E_z\right|=\left|{\frac{\Delta V}{\Delta z}}\right|_{xy}\]&amp;nbsp;" style="rounded=1;whiteSpace=wrap;html=1;shadow=0;labelBackgroundColor=none;strokeColor=none;strokeWidth=3;fontFamily=Helvetica;fontSize=14;align=center;spacing=5;fontStyle=0;arcSize=7;perimeterSpacing=2;fontColor=#000000;fillColor=#f5af58;" vertex="1" parent="100">
                    <mxGeometry x="8.5" y="170" width="781.5" height="60" as="geometry"/>
                </mxCell>
                <mxCell id="104" value="\[\Rightarrow\vec{E}=-(\frac{\partial V}{\partial x}\hat{x}+\frac{\partial V}{\partial y}\hat{y}+\frac{\partial V}{\partial z}\hat{z})=-grad\ V\]" style="rounded=1;whiteSpace=wrap;html=1;shadow=0;labelBackgroundColor=none;strokeColor=none;strokeWidth=3;fontFamily=Helvetica;fontSize=14;align=center;spacing=5;fontStyle=0;arcSize=7;perimeterSpacing=2;fontColor=#000000;fillColor=#f5af58;" vertex="1" parent="100">
                    <mxGeometry x="8.5" y="240" width="781.5" height="60" as="geometry"/>
                </mxCell>
                <mxCell id="107" value="" style="edgeStyle=none;rounded=0;jumpStyle=none;html=1;shadow=0;labelBackgroundColor=none;startArrow=none;startFill=0;endArrow=classic;endFill=1;jettySize=auto;orthogonalLoop=1;strokeColor=#F08705;strokeWidth=3;fontFamily=Helvetica;fontSize=14;fontColor=#FFFFFF;spacing=5;entryX=1;entryY=1;entryDx=0;entryDy=0;exitX=0.25;exitY=0;exitDx=0;exitDy=0;" edge="1" parent="1" source="10" target="97">
                    <mxGeometry relative="1" as="geometry">
                        <mxPoint x="1536.5" y="330" as="targetPoint"/>
                        <mxPoint x="1205.5" y="683" as="sourcePoint"/>
                    </mxGeometry>
                </mxCell>
                <mxCell id="108" value="" style="edgeStyle=none;rounded=0;jumpStyle=none;html=1;shadow=0;labelBackgroundColor=none;startArrow=none;startFill=0;endArrow=classic;endFill=1;jettySize=auto;orthogonalLoop=1;strokeColor=#F08705;strokeWidth=3;fontFamily=Helvetica;fontSize=14;fontColor=#FFFFFF;spacing=5;entryX=1;entryY=0.5;entryDx=0;entryDy=0;exitX=0;exitY=0;exitDx=0;exitDy=0;" edge="1" parent="1" source="10" target="100">
                    <mxGeometry relative="1" as="geometry">
                        <mxPoint x="978.9999999999998" y="330" as="targetPoint"/>
                        <mxPoint x="1128.5" y="683" as="sourcePoint"/>
                    </mxGeometry>
                </mxCell>
                <mxCell id="123" value="Equipotential Surfaces" style="swimlane;gradientColor=none;startSize=23;fontColor=#000000;fillColor=#F0A729;strokeColor=#F0A729;" vertex="1" parent="1">
                    <mxGeometry x="970" y="80" width="547" height="230" as="geometry"/>
                </mxCell>
                <mxCell id="124" value="A surface with same electric potential at every point" style="rounded=1;whiteSpace=wrap;html=1;shadow=0;labelBackgroundColor=none;strokeColor=none;strokeWidth=3;fontFamily=Helvetica;fontSize=14;align=center;spacing=5;fontStyle=0;arcSize=7;perimeterSpacing=2;fontColor=#000000;fillColor=#f5af58;" vertex="1" parent="123">
                    <mxGeometry x="8.5" y="30" width="530" height="40" as="geometry"/>
                </mxCell>
                <mxCell id="125" value="The surface of a conductor is equipotential regardless of its shape" style="rounded=1;whiteSpace=wrap;html=1;shadow=0;labelBackgroundColor=none;strokeColor=none;strokeWidth=3;fontFamily=Helvetica;fontSize=14;align=center;spacing=5;fontStyle=0;arcSize=7;perimeterSpacing=2;fontColor=#000000;fillColor=#f5af58;" vertex="1" parent="123">
                    <mxGeometry x="8.5" y="80" width="530" height="40" as="geometry"/>
                </mxCell>
                <mxCell id="126" value="At equipotential surfaces, electric field lines are perpendicular to the surface" style="rounded=1;whiteSpace=wrap;html=1;shadow=0;labelBackgroundColor=none;strokeColor=none;strokeWidth=3;fontFamily=Helvetica;fontSize=14;align=center;spacing=5;fontStyle=0;arcSize=7;perimeterSpacing=2;fontColor=#000000;fillColor=#f5af58;" vertex="1" parent="123">
                    <mxGeometry x="8.5" y="130" width="530" height="40" as="geometry"/>
                </mxCell>
                <mxCell id="127" value="A charge put on the surface at rest will accelerate perpendicular to the surface" style="rounded=1;whiteSpace=wrap;html=1;shadow=0;labelBackgroundColor=none;strokeColor=none;strokeWidth=3;fontFamily=Helvetica;fontSize=14;align=center;spacing=5;fontStyle=0;arcSize=7;perimeterSpacing=2;fontColor=#000000;fillColor=#f5af58;" vertex="1" parent="123">
                    <mxGeometry x="8.5" y="180" width="530" height="40" as="geometry"/>
                </mxCell>
                <mxCell id="128" value="" style="edgeStyle=none;rounded=0;jumpStyle=none;html=1;shadow=0;labelBackgroundColor=none;startArrow=none;startFill=0;endArrow=classic;endFill=1;jettySize=auto;orthogonalLoop=1;strokeColor=#F08705;strokeWidth=3;fontFamily=Helvetica;fontSize=14;fontColor=#FFFFFF;spacing=5;entryX=0.5;entryY=1;entryDx=0;entryDy=0;exitX=0.5;exitY=0;exitDx=0;exitDy=0;" edge="1" parent="1" source="10" target="123">
                    <mxGeometry relative="1" as="geometry">
                        <mxPoint x="1570" y="320" as="targetPoint"/>
                        <mxPoint x="1205.5" y="683" as="sourcePoint"/>
                    </mxGeometry>
                </mxCell>
            </root>
        </mxGraphModel>
    </diagram>
</mxfile>